<svg width="645" height="108" viewBox="0 0 645 108" fill="none" xmlns="http://www.w3.org/2000/svg">
<path d="M250.887 23.0945C250.745 21.6622 250.135 20.5495 249.058 19.7564C247.981 18.9633 246.519 18.5668 244.673 18.5668C243.418 18.5668 242.358 18.7443 241.494 19.0994C240.63 19.4427 239.967 19.9221 239.506 20.5376C239.056 21.1532 238.831 21.8516 238.831 22.6328C238.807 23.2839 238.943 23.852 239.239 24.3374C239.547 24.8227 239.967 25.2429 240.5 25.598C241.033 25.9413 241.648 26.2431 242.347 26.5036C243.045 26.7521 243.791 26.9652 244.584 27.1428L247.851 27.924C249.437 28.2791 250.893 28.7526 252.219 29.3445C253.545 29.9363 254.693 30.6643 255.663 31.5284C256.634 32.3925 257.386 33.4105 257.918 34.5824C258.463 35.7543 258.741 37.0978 258.753 38.6129C258.741 40.8383 258.173 42.7678 257.048 44.4013C255.936 46.023 254.326 47.2836 252.219 48.1832C250.124 49.071 247.596 49.5149 244.637 49.5149C241.701 49.5149 239.145 49.0651 236.967 48.1655C234.8 47.2659 233.108 45.9342 231.888 44.1705C230.681 42.3949 230.048 40.1991 229.989 37.5831H237.428C237.511 38.8023 237.86 39.8203 238.476 40.6371C239.103 41.442 239.938 42.0516 240.979 42.4659C242.033 42.8684 243.223 43.0696 244.548 43.0696C245.85 43.0696 246.981 42.8802 247.94 42.5014C248.91 42.1226 249.662 41.5959 250.195 40.9212C250.727 40.2464 250.994 39.4711 250.994 38.5952C250.994 37.7784 250.751 37.0919 250.266 36.5355C249.792 35.9792 249.094 35.5057 248.17 35.1151C247.259 34.7244 246.14 34.3693 244.815 34.0497L240.855 33.0554C237.789 32.3097 235.369 31.1437 233.593 29.5575C231.817 27.9714 230.936 25.8348 230.947 23.1477C230.936 20.946 231.522 19.0225 232.705 17.3771C233.901 15.7318 235.54 14.4474 237.624 13.5241C239.707 12.6009 242.074 12.1392 244.726 12.1392C247.425 12.1392 249.78 12.6009 251.793 13.5241C253.817 14.4474 255.391 15.7318 256.516 17.3771C257.64 19.0225 258.22 20.9283 258.256 23.0945H250.887ZM263.782 49V21.7273H271.346V49H263.782ZM267.582 18.2116C266.457 18.2116 265.493 17.8388 264.688 17.093C263.895 16.3355 263.498 15.4299 263.498 14.3764C263.498 13.3348 263.895 12.4411 264.688 11.6953C265.493 10.9377 266.457 10.5589 267.582 10.5589C268.706 10.5589 269.665 10.9377 270.458 11.6953C271.263 12.4411 271.666 13.3348 271.666 14.3764C271.666 15.4299 271.263 16.3355 270.458 17.093C269.665 17.8388 268.706 18.2116 267.582 18.2116ZM289.692 59.7955C287.242 59.7955 285.141 59.4581 283.389 58.7834C281.649 58.1205 280.264 57.215 279.234 56.0668C278.204 54.9186 277.535 53.6283 277.228 52.196L284.223 51.255C284.436 51.7995 284.774 52.3085 285.235 52.782C285.697 53.2554 286.307 53.6342 287.064 53.9183C287.834 54.2143 288.769 54.3622 289.87 54.3622C291.515 54.3622 292.87 53.9598 293.936 53.1548C295.013 52.3617 295.551 51.0301 295.551 49.1598V44.1705H295.232C294.9 44.928 294.403 45.6442 293.74 46.3189C293.078 46.9936 292.225 47.544 291.184 47.9702C290.142 48.3963 288.899 48.6094 287.455 48.6094C285.407 48.6094 283.543 48.1359 281.862 47.1889C280.193 46.2301 278.861 44.7682 277.867 42.8033C276.884 40.8265 276.393 38.3288 276.393 35.3104C276.393 32.2209 276.896 29.6404 277.902 27.5689C278.908 25.4974 280.246 23.9467 281.915 22.9169C283.596 21.8871 285.437 21.3722 287.437 21.3722C288.964 21.3722 290.243 21.6326 291.272 22.1534C292.302 22.6624 293.131 23.3016 293.758 24.071C294.397 24.8286 294.889 25.5743 295.232 26.3082H295.516V21.7273H303.027V49.2663C303.027 51.5864 302.458 53.5277 301.322 55.0902C300.186 56.6527 298.611 57.8246 296.599 58.6058C294.599 59.3989 292.296 59.7955 289.692 59.7955ZM289.852 42.9276C291.071 42.9276 292.101 42.6257 292.941 42.022C293.794 41.4065 294.445 40.5305 294.895 39.3942C295.356 38.246 295.587 36.8729 295.587 35.2749C295.587 33.6768 295.362 32.2919 294.912 31.12C294.462 29.9363 293.811 29.0189 292.959 28.3679C292.107 27.7169 291.071 27.3913 289.852 27.3913C288.609 27.3913 287.561 27.7287 286.709 28.4034C285.857 29.0663 285.212 29.9896 284.774 31.1733C284.336 32.357 284.117 33.7242 284.117 35.2749C284.117 36.8492 284.336 38.2105 284.774 39.3587C285.224 40.495 285.869 41.3769 286.709 42.0043C287.561 42.6198 288.609 42.9276 289.852 42.9276ZM316.61 33.233V49H309.046V21.7273H316.255V26.5391H316.574C317.178 24.9529 318.19 23.6982 319.61 22.7749C321.031 21.8397 322.753 21.3722 324.777 21.3722C326.671 21.3722 328.323 21.7865 329.731 22.6151C331.14 23.4437 332.235 24.6274 333.016 26.1662C333.797 27.6932 334.188 29.5161 334.188 31.6349V49H326.624V32.9844C326.636 31.3153 326.21 30.0133 325.346 29.0781C324.481 28.1312 323.292 27.6577 321.777 27.6577C320.759 27.6577 319.859 27.8767 319.078 28.3146C318.308 28.7526 317.705 29.3918 317.267 30.2322C316.841 31.0608 316.622 32.0611 316.61 33.233ZM374.325 12.6364H382.013V36.2514C382.013 38.9029 381.379 41.223 380.113 43.2116C378.858 45.2003 377.1 46.7509 374.839 47.8636C372.579 48.9645 369.945 49.5149 366.938 49.5149C363.92 49.5149 361.28 48.9645 359.019 47.8636C356.758 46.7509 355 45.2003 353.746 43.2116C352.491 41.223 351.864 38.9029 351.864 36.2514V12.6364H359.552V35.5945C359.552 36.9794 359.854 38.2105 360.457 39.2876C361.073 40.3648 361.937 41.2112 363.05 41.8267C364.162 42.4422 365.459 42.75 366.938 42.75C368.43 42.75 369.726 42.4422 370.827 41.8267C371.939 41.2112 372.798 40.3648 373.401 39.2876C374.017 38.2105 374.325 36.9794 374.325 35.5945V12.6364ZM388.196 59.2273V21.7273H395.654V26.3082H395.991C396.322 25.5743 396.802 24.8286 397.429 24.071C398.068 23.3016 398.897 22.6624 399.915 22.1534C400.945 21.6326 402.223 21.3722 403.75 21.3722C405.739 21.3722 407.574 21.893 409.254 22.9347C410.935 23.9645 412.279 25.5211 413.285 27.6044C414.291 29.6759 414.794 32.2741 414.794 35.3991C414.794 38.4413 414.303 41.0099 413.32 43.1051C412.35 45.1884 411.024 46.7687 409.343 47.8459C407.674 48.9112 405.804 49.4439 403.732 49.4439C402.265 49.4439 401.016 49.2012 399.986 48.7159C398.968 48.2306 398.133 47.621 397.482 46.8871C396.831 46.1413 396.334 45.3897 395.991 44.6321H395.76V59.2273H388.196ZM395.6 35.3636C395.6 36.9853 395.825 38.3999 396.275 39.6072C396.725 40.8146 397.376 41.7557 398.228 42.4304C399.08 43.0933 400.116 43.4247 401.335 43.4247C402.566 43.4247 403.608 43.0874 404.46 42.4126C405.313 41.7261 405.958 40.7791 406.396 39.5717C406.846 38.3525 407.07 36.9498 407.07 35.3636C407.07 33.7893 406.852 32.4044 406.414 31.2088C405.976 30.0133 405.33 29.0781 404.478 28.4034C403.626 27.7287 402.578 27.3913 401.335 27.3913C400.104 27.3913 399.063 27.7169 398.21 28.3679C397.37 29.0189 396.725 29.9422 396.275 31.1378C395.825 32.3333 395.6 33.742 395.6 35.3636Z" fill="white"/>
<path d="M6.63 102L1.2 88.29H3.36L7.8 99.54H7.38L9.81 93.96C10.29 92.86 10.67 91.84 10.95 90.9C11.25 89.96 11.47 89.09 11.61 88.29H13.65C13.49 89.13 13.24 90.05 12.9 91.05C12.56 92.05 12.14 93.13 11.64 94.29L8.31 102H6.63ZM23.16 102.3C22.16 102.3 21.25 102.15 20.43 101.85C19.61 101.53 18.9 101.07 18.3 100.47C17.72 99.87 17.27 99.13 16.95 98.25C16.63 97.35 16.47 96.33 16.47 95.19C16.47 94.03 16.63 93 16.95 92.1C17.29 91.2 17.74 90.45 18.3 89.85C18.88 89.23 19.55 88.76 20.31 88.44C21.09 88.12 21.91 87.96 22.77 87.96C23.55 87.96 24.28 88.09 24.96 88.35C25.64 88.61 26.23 89.01 26.73 89.55C27.23 90.07 27.62 90.74 27.9 91.56C28.2 92.38 28.35 93.35 28.35 94.47C28.35 94.63 28.34 94.8 28.32 94.98C28.32 95.14 28.31 95.3 28.29 95.46H18.54C18.58 96.34 18.73 97.11 18.99 97.77C19.25 98.41 19.59 98.94 20.01 99.36C20.43 99.76 20.91 100.06 21.45 100.26C22.01 100.46 22.6 100.56 23.22 100.56C23.7 100.56 24.15 100.51 24.57 100.41C24.99 100.29 25.38 100.12 25.74 99.9C26.12 99.66 26.46 99.37 26.76 99.03L27.96 100.2C27.58 100.66 27.14 101.05 26.64 101.37C26.16 101.69 25.63 101.92 25.05 102.06C24.47 102.22 23.84 102.3 23.16 102.3ZM18.63 93.78H26.16C26.16 93.14 26.07 92.57 25.89 92.07C25.73 91.55 25.49 91.11 25.17 90.75C24.87 90.37 24.5 90.09 24.06 89.91C23.64 89.71 23.16 89.61 22.62 89.61C22.14 89.61 21.68 89.69 21.24 89.85C20.82 90.01 20.43 90.27 20.07 90.63C19.71 90.97 19.4 91.4 19.14 91.92C18.9 92.44 18.73 93.06 18.63 93.78ZM33.57 88.29H35.82L35.73 92.28L35.46 91.83C35.58 91.21 35.79 90.66 36.09 90.18C36.39 89.7 36.75 89.3 37.17 88.98C37.59 88.64 38.05 88.39 38.55 88.23C39.05 88.05 39.57 87.96 40.11 87.96C40.83 87.96 41.49 88.09 42.09 88.35C42.71 88.59 43.26 88.96 43.74 89.46L42.78 91.14L42.66 91.41L42.45 91.29C42.41 91.13 42.35 90.98 42.27 90.84C42.19 90.7 42.02 90.53 41.76 90.33C41.44 90.13 41.14 90 40.86 89.94C40.6 89.86 40.3 89.82 39.96 89.82C39.46 89.82 38.96 89.92 38.46 90.12C37.96 90.3 37.5 90.59 37.08 90.99C36.68 91.39 36.36 91.9 36.12 92.52C35.88 93.14 35.76 93.88 35.76 94.74V102.03H33.57V88.29ZM48 102V100.26H51.51V90.03H48.18V88.29H53.67V100.26H56.88V102H48ZM52.47 85.41C52.05 85.41 51.69 85.26 51.39 84.96C51.09 84.66 50.94 84.3 50.94 83.88C50.94 83.44 51.08 83.07 51.36 82.77C51.66 82.47 52.03 82.32 52.47 82.32C52.89 82.32 53.25 82.48 53.55 82.8C53.87 83.1 54.03 83.46 54.03 83.88C54.03 84.3 53.87 84.66 53.55 84.96C53.25 85.26 52.89 85.41 52.47 85.41ZM64.86 90H61.89V88.29H64.86V87.15C64.86 85.93 65.07 84.93 65.49 84.15C65.93 83.37 66.53 82.8 67.29 82.44C68.05 82.06 68.92 81.87 69.9 81.87C70.76 81.87 71.56 82.03 72.3 82.35C73.06 82.65 73.69 83.12 74.19 83.76L73.05 85.35L72.87 85.59L72.69 85.47C72.67 85.31 72.63 85.15 72.57 84.99C72.51 84.83 72.37 84.63 72.15 84.39C71.83 84.11 71.51 83.91 71.19 83.79C70.87 83.67 70.46 83.61 69.96 83.61C69.38 83.61 68.86 83.73 68.4 83.97C67.94 84.19 67.58 84.56 67.32 85.08C67.06 85.58 66.93 86.27 66.93 87.15V88.29H71.43V90H66.93V102H64.86V90ZM78.81 107.22C78.17 107.22 77.58 107.12 77.04 106.92C76.52 106.72 76.06 106.43 75.66 106.05L76.59 104.58L76.77 104.31L76.95 104.43C76.99 104.59 77.06 104.72 77.16 104.82C77.26 104.94 77.45 105.09 77.73 105.27C77.91 105.33 78.1 105.37 78.3 105.39C78.5 105.43 78.71 105.45 78.93 105.45C79.47 105.45 79.92 105.32 80.28 105.06C80.66 104.8 80.99 104.4 81.27 103.86C81.55 103.32 81.82 102.64 82.08 101.82L84.69 93.75C84.99 92.83 85.28 91.92 85.56 91.02C85.84 90.12 86.03 89.21 86.13 88.29H88.29C88.15 89.21 87.93 90.14 87.63 91.08C87.33 92.02 87.01 92.96 86.67 93.9L83.25 103.56C82.77 104.9 82.15 105.84 81.39 106.38C80.65 106.94 79.79 107.22 78.81 107.22ZM76.38 88.29H78.63L83.07 99.72L82.11 102.39L76.38 88.29ZM108.81 107.22C108.17 107.22 107.58 107.12 107.04 106.92C106.52 106.72 106.06 106.43 105.66 106.05L106.59 104.58L106.77 104.31L106.95 104.43C106.99 104.59 107.06 104.72 107.16 104.82C107.26 104.94 107.45 105.09 107.73 105.27C107.91 105.33 108.1 105.37 108.3 105.39C108.5 105.43 108.71 105.45 108.93 105.45C109.47 105.45 109.92 105.32 110.28 105.06C110.66 104.8 110.99 104.4 111.27 103.86C111.55 103.32 111.82 102.64 112.08 101.82L114.69 93.75C114.99 92.83 115.28 91.92 115.56 91.02C115.84 90.12 116.03 89.21 116.13 88.29H118.29C118.15 89.21 117.93 90.14 117.63 91.08C117.33 92.02 117.01 92.96 116.67 93.9L113.25 103.56C112.77 104.9 112.15 105.84 111.39 106.38C110.65 106.94 109.79 107.22 108.81 107.22ZM106.38 88.29H108.63L113.07 99.72L112.11 102.39L106.38 88.29ZM127.5 102.24C126.26 102.24 125.16 101.94 124.2 101.34C123.26 100.72 122.52 99.88 121.98 98.82C121.44 97.74 121.17 96.51 121.17 95.13C121.17 93.73 121.44 92.5 121.98 91.44C122.52 90.36 123.26 89.52 124.2 88.92C125.16 88.3 126.26 87.99 127.5 87.99C128.74 87.99 129.83 88.3 130.77 88.92C131.73 89.52 132.48 90.36 133.02 91.44C133.56 92.5 133.83 93.73 133.83 95.13C133.83 96.51 133.56 97.74 133.02 98.82C132.48 99.88 131.73 100.72 130.77 101.34C129.83 101.94 128.74 102.24 127.5 102.24ZM127.5 100.44C128.3 100.44 129 100.21 129.6 99.75C130.2 99.29 130.67 98.66 131.01 97.86C131.37 97.06 131.55 96.14 131.55 95.1C131.55 94.06 131.37 93.14 131.01 92.34C130.67 91.54 130.2 90.92 129.6 90.48C129 90.02 128.3 89.79 127.5 89.79C126.72 89.79 126.02 90.02 125.4 90.48C124.8 90.92 124.32 91.54 123.96 92.34C123.62 93.14 123.45 94.06 123.45 95.1C123.45 96.14 123.62 97.06 123.96 97.86C124.32 98.66 124.8 99.29 125.4 99.75C126.02 100.21 126.72 100.44 127.5 100.44ZM141.63 102.33C141.09 102.33 140.58 102.25 140.1 102.09C139.62 101.93 139.18 101.69 138.78 101.37C138.4 101.03 138.07 100.61 137.79 100.11C137.51 99.61 137.29 99.01 137.13 98.31C136.99 97.61 136.92 96.82 136.92 95.94L136.95 88.29H139.05V95.94C139.05 96.8 139.13 97.53 139.29 98.13C139.45 98.73 139.67 99.21 139.95 99.57C140.25 99.93 140.59 100.19 140.97 100.35C141.35 100.51 141.75 100.59 142.17 100.59C142.65 100.59 143.11 100.5 143.55 100.32C143.99 100.12 144.38 99.83 144.72 99.45C145.08 99.07 145.36 98.58 145.56 97.98C145.76 97.38 145.86 96.67 145.86 95.85V88.29H147.96V99.87C147.96 100.23 147.97 100.59 147.99 100.95C148.03 101.29 148.12 101.64 148.26 102H146.19C146.09 101.76 146.02 101.53 145.98 101.31C145.94 101.07 145.91 100.83 145.89 100.59C145.89 100.35 145.89 100.12 145.89 99.9C145.67 100.28 145.41 100.62 145.11 100.92C144.81 101.22 144.47 101.48 144.09 101.7C143.73 101.9 143.34 102.05 142.92 102.15C142.52 102.27 142.09 102.33 141.63 102.33ZM153.57 88.29H155.82L155.73 92.28L155.46 91.83C155.58 91.21 155.79 90.66 156.09 90.18C156.39 89.7 156.75 89.3 157.17 88.98C157.59 88.64 158.05 88.39 158.55 88.23C159.05 88.05 159.57 87.96 160.11 87.96C160.83 87.96 161.49 88.09 162.09 88.35C162.71 88.59 163.26 88.96 163.74 89.46L162.78 91.14L162.66 91.41L162.45 91.29C162.41 91.13 162.35 90.98 162.27 90.84C162.19 90.7 162.02 90.53 161.76 90.33C161.44 90.13 161.14 90 160.86 89.94C160.6 89.86 160.3 89.82 159.96 89.82C159.46 89.82 158.96 89.92 158.46 90.12C157.96 90.3 157.5 90.59 157.08 90.99C156.68 91.39 156.36 91.9 156.12 92.52C155.88 93.14 155.76 93.88 155.76 94.74V102.03H153.57V88.29ZM187.98 102.33C187.42 102.33 186.89 102.24 186.39 102.06C185.89 101.9 185.43 101.66 185.01 101.34C184.61 101.02 184.25 100.64 183.93 100.2L183.18 102H181.8V82.05H183.96H184.26V82.26C184.14 82.38 184.06 82.51 184.02 82.65C184 82.79 183.99 83.03 183.99 83.37V90.39C184.21 90.03 184.47 89.7 184.77 89.4C185.07 89.1 185.4 88.84 185.76 88.62C186.12 88.4 186.5 88.24 186.9 88.14C187.3 88.02 187.69 87.96 188.07 87.96C188.91 87.96 189.67 88.11 190.35 88.41C191.05 88.69 191.65 89.13 192.15 89.73C192.65 90.31 193.03 91.04 193.29 91.92C193.57 92.8 193.71 93.83 193.71 95.01C193.71 96.23 193.55 97.3 193.23 98.22C192.91 99.14 192.47 99.91 191.91 100.53C191.37 101.13 190.76 101.58 190.08 101.88C189.4 102.18 188.7 102.33 187.98 102.33ZM187.71 100.41C188.19 100.41 188.65 100.32 189.09 100.14C189.55 99.96 189.96 99.67 190.32 99.27C190.68 98.85 190.96 98.3 191.16 97.62C191.38 96.94 191.49 96.11 191.49 95.13C191.49 94.23 191.4 93.45 191.22 92.79C191.04 92.11 190.78 91.55 190.44 91.11C190.12 90.67 189.73 90.35 189.27 90.15C188.81 89.93 188.31 89.82 187.77 89.82C187.03 89.82 186.37 90.05 185.79 90.51C185.23 90.95 184.79 91.58 184.47 92.4C184.15 93.2 183.99 94.13 183.99 95.19C183.99 95.97 184.06 96.68 184.2 97.32C184.34 97.96 184.55 98.51 184.83 98.97C185.13 99.43 185.51 99.79 185.97 100.05C186.45 100.29 187.03 100.41 187.71 100.41ZM197.37 102V100.26H201.42V83.79H197.55V82.05H203.61V100.26H207.63V102H197.37ZM217.5 102.24C216.26 102.24 215.16 101.94 214.2 101.34C213.26 100.72 212.52 99.88 211.98 98.82C211.44 97.74 211.17 96.51 211.17 95.13C211.17 93.73 211.44 92.5 211.98 91.44C212.52 90.36 213.26 89.52 214.2 88.92C215.16 88.3 216.26 87.99 217.5 87.99C218.74 87.99 219.83 88.3 220.77 88.92C221.73 89.52 222.48 90.36 223.02 91.44C223.56 92.5 223.83 93.73 223.83 95.13C223.83 96.51 223.56 97.74 223.02 98.82C222.48 99.88 221.73 100.72 220.77 101.34C219.83 101.94 218.74 102.24 217.5 102.24ZM217.5 100.44C218.3 100.44 219 100.21 219.6 99.75C220.2 99.29 220.67 98.66 221.01 97.86C221.37 97.06 221.55 96.14 221.55 95.1C221.55 94.06 221.37 93.14 221.01 92.34C220.67 91.54 220.2 90.92 219.6 90.48C219 90.02 218.3 89.79 217.5 89.79C216.72 89.79 216.02 90.02 215.4 90.48C214.8 90.92 214.32 91.54 213.96 92.34C213.62 93.14 213.45 94.06 213.45 95.1C213.45 96.14 213.62 97.06 213.96 97.86C214.32 98.66 214.8 99.29 215.4 99.75C216.02 100.21 216.72 100.44 217.5 100.44ZM233.55 102.33C232.55 102.33 231.63 102.15 230.79 101.79C229.95 101.43 229.22 100.93 228.6 100.29C228 99.65 227.53 98.9 227.19 98.04C226.85 97.16 226.68 96.2 226.68 95.16C226.68 94.14 226.85 93.2 227.19 92.34C227.53 91.46 228 90.7 228.6 90.06C229.22 89.42 229.95 88.92 230.79 88.56C231.63 88.2 232.54 88.02 233.52 88.02C234.64 88.02 235.64 88.25 236.52 88.71C237.42 89.15 238.15 89.77 238.71 90.57L237.36 91.89L237.15 92.1L237 91.95C237 91.79 236.96 91.64 236.88 91.5C236.82 91.36 236.67 91.17 236.43 90.93C235.99 90.53 235.52 90.25 235.02 90.09C234.52 89.93 233.94 89.85 233.28 89.85C232.7 89.85 232.15 89.97 231.63 90.21C231.11 90.45 230.64 90.8 230.22 91.26C229.82 91.7 229.5 92.24 229.26 92.88C229.02 93.52 228.9 94.23 228.9 95.01C228.9 95.79 229.02 96.51 229.26 97.17C229.5 97.81 229.83 98.37 230.25 98.85C230.67 99.33 231.17 99.71 231.75 99.99C232.35 100.25 232.99 100.38 233.67 100.38C234.13 100.38 234.57 100.32 234.99 100.2C235.41 100.06 235.81 99.87 236.19 99.63C236.57 99.37 236.92 99.06 237.24 98.7L238.5 100.17C237.82 100.89 237.06 101.43 236.22 101.79C235.4 102.15 234.51 102.33 233.55 102.33ZM245.97 95.13L244.17 96.81V102H241.98V82.05H244.14H244.44V82.26C244.32 82.38 244.24 82.51 244.2 82.65C244.18 82.79 244.17 83.03 244.17 83.37V94.59L251.04 88.23C251.16 88.25 251.28 88.27 251.4 88.29C251.52 88.31 251.64 88.33 251.76 88.35C251.9 88.35 252.04 88.36 252.18 88.38C252.34 88.38 252.49 88.38 252.63 88.38H253.41L247.65 93.81L254.37 102L251.58 102.12L245.97 95.13ZM263.55 102.33C262.55 102.33 261.63 102.15 260.79 101.79C259.95 101.43 259.22 100.93 258.6 100.29C258 99.65 257.53 98.9 257.19 98.04C256.85 97.16 256.68 96.2 256.68 95.16C256.68 94.14 256.85 93.2 257.19 92.34C257.53 91.46 258 90.7 258.6 90.06C259.22 89.42 259.95 88.92 260.79 88.56C261.63 88.2 262.54 88.02 263.52 88.02C264.64 88.02 265.64 88.25 266.52 88.71C267.42 89.15 268.15 89.77 268.71 90.57L267.36 91.89L267.15 92.1L267 91.95C267 91.79 266.96 91.64 266.88 91.5C266.82 91.36 266.67 91.17 266.43 90.93C265.99 90.53 265.52 90.25 265.02 90.09C264.52 89.93 263.94 89.85 263.28 89.85C262.7 89.85 262.15 89.97 261.63 90.21C261.11 90.45 260.64 90.8 260.22 91.26C259.82 91.7 259.5 92.24 259.26 92.88C259.02 93.52 258.9 94.23 258.9 95.01C258.9 95.79 259.02 96.51 259.26 97.17C259.5 97.81 259.83 98.37 260.25 98.85C260.67 99.33 261.17 99.71 261.75 99.99C262.35 100.25 262.99 100.38 263.67 100.38C264.13 100.38 264.57 100.32 264.99 100.2C265.41 100.06 265.81 99.87 266.19 99.63C266.57 99.37 266.92 99.06 267.24 98.7L268.5 100.17C267.82 100.89 267.06 101.43 266.22 101.79C265.4 102.15 264.51 102.33 263.55 102.33ZM272.19 82.05H274.26H274.56V82.26C274.44 82.38 274.36 82.51 274.32 82.65C274.3 82.79 274.29 83.03 274.29 83.37V90.72C274.65 90.16 275.07 89.68 275.55 89.28C276.05 88.86 276.57 88.54 277.11 88.32C277.67 88.08 278.23 87.96 278.79 87.96C279.61 87.96 280.33 88.15 280.95 88.53C281.59 88.91 282.08 89.52 282.42 90.36C282.78 91.2 282.96 92.31 282.96 93.69V102H280.86V93.75C280.86 92.79 280.75 92.03 280.53 91.47C280.31 90.89 280.01 90.48 279.63 90.24C279.25 89.98 278.82 89.85 278.34 89.85C277.98 89.85 277.61 89.91 277.23 90.03C276.85 90.15 276.48 90.33 276.12 90.57C275.78 90.81 275.47 91.11 275.19 91.47C274.91 91.81 274.69 92.2 274.53 92.64C274.37 93.08 274.29 93.57 274.29 94.11V102H272.19V82.05ZM291.33 102.33C289.77 102.33 288.57 101.98 287.73 101.28C286.89 100.56 286.47 99.65 286.47 98.55C286.47 97.81 286.65 97.15 287.01 96.57C287.37 95.97 287.86 95.47 288.48 95.07C289.12 94.65 289.86 94.33 290.7 94.11C291.54 93.89 292.43 93.78 293.37 93.78C293.71 93.78 294.05 93.79 294.39 93.81C294.75 93.81 295.12 93.83 295.5 93.87C295.9 93.89 296.31 93.93 296.73 93.99L296.79 95.64C296.43 95.58 296.06 95.54 295.68 95.52C295.32 95.48 294.96 95.45 294.6 95.43C294.24 95.41 293.89 95.4 293.55 95.4C292.83 95.4 292.17 95.46 291.57 95.58C290.97 95.7 290.45 95.88 290.01 96.12C289.57 96.36 289.23 96.67 288.99 97.05C288.75 97.43 288.63 97.89 288.63 98.43C288.63 98.85 288.7 99.21 288.84 99.51C289 99.79 289.21 100.02 289.47 100.2C289.73 100.36 290.03 100.48 290.37 100.56C290.73 100.64 291.12 100.68 291.54 100.68C292.32 100.68 293.01 100.56 293.61 100.32C294.23 100.06 294.75 99.69 295.17 99.21C295.61 98.73 295.94 98.14 296.16 97.44C296.38 96.74 296.49 95.94 296.49 95.04C296.49 93.68 296.33 92.62 296.01 91.86C295.69 91.1 295.21 90.56 294.57 90.24C293.95 89.92 293.15 89.76 292.17 89.76C291.51 89.76 290.86 89.89 290.22 90.15C289.58 90.39 289 90.77 288.48 91.29L287.43 89.91C288.07 89.27 288.81 88.79 289.65 88.47C290.49 88.15 291.38 87.99 292.32 87.99C293.22 87.99 294.04 88.1 294.78 88.32C295.52 88.54 296.15 88.91 296.67 89.43C297.21 89.93 297.62 90.61 297.9 91.47C298.2 92.33 298.35 93.41 298.35 94.71V102H296.01V99.9C295.75 100.4 295.43 100.81 295.05 101.13C294.69 101.45 294.3 101.7 293.88 101.88C293.46 102.04 293.03 102.15 292.59 102.21C292.15 102.29 291.73 102.33 291.33 102.33ZM303 102V100.26H306.51V90.03H303.18V88.29H308.67V100.26H311.88V102H303ZM307.47 85.41C307.05 85.41 306.69 85.26 306.39 84.96C306.09 84.66 305.94 84.3 305.94 83.88C305.94 83.44 306.08 83.07 306.36 82.77C306.66 82.47 307.03 82.32 307.47 82.32C307.89 82.32 308.25 82.48 308.55 82.8C308.87 83.1 309.03 83.46 309.03 83.88C309.03 84.3 308.87 84.66 308.55 84.96C308.25 85.26 307.89 85.41 307.47 85.41ZM317.16 102V88.29H319.26V90.72C319.62 90.16 320.04 89.68 320.52 89.28C321 88.86 321.53 88.54 322.11 88.32C322.69 88.08 323.29 87.96 323.91 87.96C324.67 87.96 325.35 88.15 325.95 88.53C326.55 88.91 327.03 89.52 327.39 90.36C327.75 91.2 327.93 92.31 327.93 93.69V102H325.83V93.75C325.83 92.79 325.72 92.03 325.5 91.47C325.28 90.89 324.98 90.48 324.6 90.24C324.22 89.98 323.79 89.85 323.31 89.85C322.85 89.85 322.38 89.95 321.9 90.15C321.44 90.35 321.01 90.64 320.61 91.02C320.21 91.38 319.88 91.82 319.62 92.34C319.38 92.86 319.26 93.45 319.26 94.11V102H317.16ZM352.53 102.3C351.77 102.3 351.04 102.22 350.34 102.06C349.66 101.9 349.01 101.66 348.39 101.34C347.79 101.02 347.23 100.62 346.71 100.14L347.91 98.1L348.09 97.83L348.27 97.95C348.31 98.11 348.35 98.28 348.39 98.46C348.45 98.62 348.59 98.82 348.81 99.06C349.23 99.48 349.73 99.83 350.31 100.11C350.91 100.37 351.67 100.5 352.59 100.5C353.33 100.5 353.95 100.41 354.45 100.23C354.97 100.05 355.37 99.8 355.65 99.48C355.93 99.14 356.07 98.75 356.07 98.31C356.07 98.01 356.01 97.75 355.89 97.53C355.77 97.29 355.57 97.07 355.29 96.87C355.03 96.67 354.68 96.47 354.24 96.27C353.8 96.07 353.26 95.87 352.62 95.67C351.58 95.37 350.67 95.02 349.89 94.62C349.11 94.22 348.51 93.76 348.09 93.24C347.67 92.7 347.46 92.09 347.46 91.41C347.46 90.71 347.65 90.11 348.03 89.61C348.41 89.09 348.97 88.69 349.71 88.41C350.47 88.11 351.4 87.96 352.5 87.96C353.14 87.96 353.72 88.01 354.24 88.11C354.76 88.19 355.24 88.32 355.68 88.5C356.12 88.68 356.52 88.91 356.88 89.19C357.26 89.45 357.62 89.76 357.96 90.12L356.73 91.62L356.52 91.86L356.37 91.71C356.35 91.55 356.3 91.4 356.22 91.26C356.16 91.1 356.02 90.91 355.8 90.69C355.34 90.33 354.82 90.06 354.24 89.88C353.66 89.68 353.1 89.58 352.56 89.58C351.76 89.58 351.07 89.72 350.49 90C349.91 90.28 349.62 90.71 349.62 91.29C349.62 91.59 349.72 91.89 349.92 92.19C350.14 92.47 350.53 92.76 351.09 93.06C351.65 93.34 352.45 93.63 353.49 93.93C354.63 94.29 355.54 94.66 356.22 95.04C356.92 95.4 357.42 95.82 357.72 96.3C358.04 96.78 358.2 97.35 358.2 98.01C358.2 98.77 357.99 99.48 357.57 100.14C357.17 100.8 356.55 101.33 355.71 101.73C354.87 102.11 353.81 102.3 352.53 102.3ZM368.16 102.3C367.16 102.3 366.25 102.15 365.43 101.85C364.61 101.53 363.9 101.07 363.3 100.47C362.72 99.87 362.27 99.13 361.95 98.25C361.63 97.35 361.47 96.33 361.47 95.19C361.47 94.03 361.63 93 361.95 92.1C362.29 91.2 362.74 90.45 363.3 89.85C363.88 89.23 364.55 88.76 365.31 88.44C366.09 88.12 366.91 87.96 367.77 87.96C368.55 87.96 369.28 88.09 369.96 88.35C370.64 88.61 371.23 89.01 371.73 89.55C372.23 90.07 372.62 90.74 372.9 91.56C373.2 92.38 373.35 93.35 373.35 94.47C373.35 94.63 373.34 94.8 373.32 94.98C373.32 95.14 373.31 95.3 373.29 95.46H363.54C363.58 96.34 363.73 97.11 363.99 97.77C364.25 98.41 364.59 98.94 365.01 99.36C365.43 99.76 365.91 100.06 366.45 100.26C367.01 100.46 367.6 100.56 368.22 100.56C368.7 100.56 369.15 100.51 369.57 100.41C369.99 100.29 370.38 100.12 370.74 99.9C371.12 99.66 371.46 99.37 371.76 99.03L372.96 100.2C372.58 100.66 372.14 101.05 371.64 101.37C371.16 101.69 370.63 101.92 370.05 102.06C369.47 102.22 368.84 102.3 368.16 102.3ZM363.63 93.78H371.16C371.16 93.14 371.07 92.57 370.89 92.07C370.73 91.55 370.49 91.11 370.17 90.75C369.87 90.37 369.5 90.09 369.06 89.91C368.64 89.71 368.16 89.61 367.62 89.61C367.14 89.61 366.68 89.69 366.24 89.85C365.82 90.01 365.43 90.27 365.07 90.63C364.71 90.97 364.4 91.4 364.14 91.92C363.9 92.44 363.73 93.06 363.63 93.78ZM383.55 102.33C382.55 102.33 381.63 102.15 380.79 101.79C379.95 101.43 379.22 100.93 378.6 100.29C378 99.65 377.53 98.9 377.19 98.04C376.85 97.16 376.68 96.2 376.68 95.16C376.68 94.14 376.85 93.2 377.19 92.34C377.53 91.46 378 90.7 378.6 90.06C379.22 89.42 379.95 88.92 380.79 88.56C381.63 88.2 382.54 88.02 383.52 88.02C384.64 88.02 385.64 88.25 386.52 88.71C387.42 89.15 388.15 89.77 388.71 90.57L387.36 91.89L387.15 92.1L387 91.95C387 91.79 386.96 91.64 386.88 91.5C386.82 91.36 386.67 91.17 386.43 90.93C385.99 90.53 385.52 90.25 385.02 90.09C384.52 89.93 383.94 89.85 383.28 89.85C382.7 89.85 382.15 89.97 381.63 90.21C381.11 90.45 380.64 90.8 380.22 91.26C379.82 91.7 379.5 92.24 379.26 92.88C379.02 93.52 378.9 94.23 378.9 95.01C378.9 95.79 379.02 96.51 379.26 97.17C379.5 97.81 379.83 98.37 380.25 98.85C380.67 99.33 381.17 99.71 381.75 99.99C382.35 100.25 382.99 100.38 383.67 100.38C384.13 100.38 384.57 100.32 384.99 100.2C385.41 100.06 385.81 99.87 386.19 99.63C386.57 99.37 386.92 99.06 387.24 98.7L388.5 100.17C387.82 100.89 387.06 101.43 386.22 101.79C385.4 102.15 384.51 102.33 383.55 102.33ZM396.63 102.33C396.09 102.33 395.58 102.25 395.1 102.09C394.62 101.93 394.18 101.69 393.78 101.37C393.4 101.03 393.07 100.61 392.79 100.11C392.51 99.61 392.29 99.01 392.13 98.31C391.99 97.61 391.92 96.82 391.92 95.94L391.95 88.29H394.05V95.94C394.05 96.8 394.13 97.53 394.29 98.13C394.45 98.73 394.67 99.21 394.95 99.57C395.25 99.93 395.59 100.19 395.97 100.35C396.35 100.51 396.75 100.59 397.17 100.59C397.65 100.59 398.11 100.5 398.55 100.32C398.99 100.12 399.38 99.83 399.72 99.45C400.08 99.07 400.36 98.58 400.56 97.98C400.76 97.38 400.86 96.67 400.86 95.85V88.29H402.96V99.87C402.96 100.23 402.97 100.59 402.99 100.95C403.03 101.29 403.12 101.64 403.26 102H401.19C401.09 101.76 401.02 101.53 400.98 101.31C400.94 101.07 400.91 100.83 400.89 100.59C400.89 100.35 400.89 100.12 400.89 99.9C400.67 100.28 400.41 100.62 400.11 100.92C399.81 101.22 399.47 101.48 399.09 101.7C398.73 101.9 398.34 102.05 397.92 102.15C397.52 102.27 397.09 102.33 396.63 102.33ZM408.57 88.29H410.82L410.73 92.28L410.46 91.83C410.58 91.21 410.79 90.66 411.09 90.18C411.39 89.7 411.75 89.3 412.17 88.98C412.59 88.64 413.05 88.39 413.55 88.23C414.05 88.05 414.57 87.96 415.11 87.96C415.83 87.96 416.49 88.09 417.09 88.35C417.71 88.59 418.26 88.96 418.74 89.46L417.78 91.14L417.66 91.41L417.45 91.29C417.41 91.13 417.35 90.98 417.27 90.84C417.19 90.7 417.02 90.53 416.76 90.33C416.44 90.13 416.14 90 415.86 89.94C415.6 89.86 415.3 89.82 414.96 89.82C414.46 89.82 413.96 89.92 413.46 90.12C412.96 90.3 412.5 90.59 412.08 90.99C411.68 91.39 411.36 91.9 411.12 92.52C410.88 93.14 410.76 93.88 410.76 94.74V102.03H408.57V88.29ZM428.16 102.3C427.16 102.3 426.25 102.15 425.43 101.85C424.61 101.53 423.9 101.07 423.3 100.47C422.72 99.87 422.27 99.13 421.95 98.25C421.63 97.35 421.47 96.33 421.47 95.19C421.47 94.03 421.63 93 421.95 92.1C422.29 91.2 422.74 90.45 423.3 89.85C423.88 89.23 424.55 88.76 425.31 88.44C426.09 88.12 426.91 87.96 427.77 87.96C428.55 87.96 429.28 88.09 429.96 88.35C430.64 88.61 431.23 89.01 431.73 89.55C432.23 90.07 432.62 90.74 432.9 91.56C433.2 92.38 433.35 93.35 433.35 94.47C433.35 94.63 433.34 94.8 433.32 94.98C433.32 95.14 433.31 95.3 433.29 95.46H423.54C423.58 96.34 423.73 97.11 423.99 97.77C424.25 98.41 424.59 98.94 425.01 99.36C425.43 99.76 425.91 100.06 426.45 100.26C427.01 100.46 427.6 100.56 428.22 100.56C428.7 100.56 429.15 100.51 429.57 100.41C429.99 100.29 430.38 100.12 430.74 99.9C431.12 99.66 431.46 99.37 431.76 99.03L432.96 100.2C432.58 100.66 432.14 101.05 431.64 101.37C431.16 101.69 430.63 101.92 430.05 102.06C429.47 102.22 428.84 102.3 428.16 102.3ZM423.63 93.78H431.16C431.16 93.14 431.07 92.57 430.89 92.07C430.73 91.55 430.49 91.11 430.17 90.75C429.87 90.37 429.5 90.09 429.06 89.91C428.64 89.71 428.16 89.61 427.62 89.61C427.14 89.61 426.68 89.69 426.24 89.85C425.82 90.01 425.43 90.27 425.07 90.63C424.71 90.97 424.4 91.4 424.14 91.92C423.9 92.44 423.73 93.06 423.63 93.78ZM442.02 102.3C441.32 102.3 440.63 102.15 439.95 101.85C439.29 101.55 438.68 101.1 438.12 100.5C437.58 99.9 437.15 99.14 436.83 98.22C436.51 97.3 436.35 96.23 436.35 95.01C436.35 93.75 436.52 92.68 436.86 91.8C437.2 90.9 437.65 90.17 438.21 89.61C438.77 89.03 439.39 88.61 440.07 88.35C440.75 88.07 441.44 87.93 442.14 87.93C442.78 87.93 443.35 88.03 443.85 88.23C444.37 88.43 444.82 88.71 445.2 89.07C445.6 89.41 445.91 89.82 446.13 90.3V82.05H448.11H448.41V82.26C448.29 82.38 448.21 82.51 448.17 82.65C448.15 82.79 448.14 83.03 448.14 83.37L448.17 99.87C448.17 100.23 448.18 100.59 448.2 100.95C448.24 101.29 448.33 101.64 448.47 102H446.34C446.24 101.76 446.17 101.52 446.13 101.28C446.09 101.04 446.06 100.81 446.04 100.59C446.04 100.35 446.04 100.11 446.04 99.87C445.76 100.35 445.42 100.78 445.02 101.16C444.62 101.52 444.17 101.8 443.67 102C443.17 102.2 442.62 102.3 442.02 102.3ZM442.35 100.41C443.01 100.41 443.57 100.28 444.03 100.02C444.49 99.74 444.86 99.36 445.14 98.88C445.42 98.38 445.62 97.81 445.74 97.17C445.88 96.51 445.95 95.81 445.95 95.07C445.95 94.05 445.82 93.14 445.56 92.34C445.3 91.52 444.89 90.88 444.33 90.42C443.77 89.94 443.05 89.7 442.17 89.7C441.57 89.7 441.03 89.82 440.55 90.06C440.09 90.28 439.7 90.61 439.38 91.05C439.08 91.49 438.85 92.02 438.69 92.64C438.53 93.24 438.45 93.92 438.45 94.68C438.45 95.82 438.6 96.82 438.9 97.68C439.2 98.54 439.64 99.21 440.22 99.69C440.8 100.17 441.51 100.41 442.35 100.41ZM473.55 102.33C472.55 102.33 471.63 102.15 470.79 101.79C469.95 101.43 469.22 100.93 468.6 100.29C468 99.65 467.53 98.9 467.19 98.04C466.85 97.16 466.68 96.2 466.68 95.16C466.68 94.14 466.85 93.2 467.19 92.34C467.53 91.46 468 90.7 468.6 90.06C469.22 89.42 469.95 88.92 470.79 88.56C471.63 88.2 472.54 88.02 473.52 88.02C474.64 88.02 475.64 88.25 476.52 88.71C477.42 89.15 478.15 89.77 478.71 90.57L477.36 91.89L477.15 92.1L477 91.95C477 91.79 476.96 91.64 476.88 91.5C476.82 91.36 476.67 91.17 476.43 90.93C475.99 90.53 475.52 90.25 475.02 90.09C474.52 89.93 473.94 89.85 473.28 89.85C472.7 89.85 472.15 89.97 471.63 90.21C471.11 90.45 470.64 90.8 470.22 91.26C469.82 91.7 469.5 92.24 469.26 92.88C469.02 93.52 468.9 94.23 468.9 95.01C468.9 95.79 469.02 96.51 469.26 97.17C469.5 97.81 469.83 98.37 470.25 98.85C470.67 99.33 471.17 99.71 471.75 99.99C472.35 100.25 472.99 100.38 473.67 100.38C474.13 100.38 474.57 100.32 474.99 100.2C475.41 100.06 475.81 99.87 476.19 99.63C476.57 99.37 476.92 99.06 477.24 98.7L478.5 100.17C477.82 100.89 477.06 101.43 476.22 101.79C475.4 102.15 474.51 102.33 473.55 102.33ZM488.16 102.3C487.16 102.3 486.25 102.15 485.43 101.85C484.61 101.53 483.9 101.07 483.3 100.47C482.72 99.87 482.27 99.13 481.95 98.25C481.63 97.35 481.47 96.33 481.47 95.19C481.47 94.03 481.63 93 481.95 92.1C482.29 91.2 482.74 90.45 483.3 89.85C483.88 89.23 484.55 88.76 485.31 88.44C486.09 88.12 486.91 87.96 487.77 87.96C488.55 87.96 489.28 88.09 489.96 88.35C490.64 88.61 491.23 89.01 491.73 89.55C492.23 90.07 492.62 90.74 492.9 91.56C493.2 92.38 493.35 93.35 493.35 94.47C493.35 94.63 493.34 94.8 493.32 94.98C493.32 95.14 493.31 95.3 493.29 95.46H483.54C483.58 96.34 483.73 97.11 483.99 97.77C484.25 98.41 484.59 98.94 485.01 99.36C485.43 99.76 485.91 100.06 486.45 100.26C487.01 100.46 487.6 100.56 488.22 100.56C488.7 100.56 489.15 100.51 489.57 100.41C489.99 100.29 490.38 100.12 490.74 99.9C491.12 99.66 491.46 99.37 491.76 99.03L492.96 100.2C492.58 100.66 492.14 101.05 491.64 101.37C491.16 101.69 490.63 101.92 490.05 102.06C489.47 102.22 488.84 102.3 488.16 102.3ZM483.63 93.78H491.16C491.16 93.14 491.07 92.57 490.89 92.07C490.73 91.55 490.49 91.11 490.17 90.75C489.87 90.37 489.5 90.09 489.06 89.91C488.64 89.71 488.16 89.61 487.62 89.61C487.14 89.61 486.68 89.69 486.24 89.85C485.82 90.01 485.43 90.27 485.07 90.63C484.71 90.97 484.4 91.4 484.14 91.92C483.9 92.44 483.73 93.06 483.63 93.78ZM498.57 88.29H500.82L500.73 92.28L500.46 91.83C500.58 91.21 500.79 90.66 501.09 90.18C501.39 89.7 501.75 89.3 502.17 88.98C502.59 88.64 503.05 88.39 503.55 88.23C504.05 88.05 504.57 87.96 505.11 87.96C505.83 87.96 506.49 88.09 507.09 88.35C507.71 88.59 508.26 88.96 508.74 89.46L507.78 91.14L507.66 91.41L507.45 91.29C507.41 91.13 507.35 90.98 507.27 90.84C507.19 90.7 507.02 90.53 506.76 90.33C506.44 90.13 506.14 90 505.86 89.94C505.6 89.86 505.3 89.82 504.96 89.82C504.46 89.82 503.96 89.92 503.46 90.12C502.96 90.3 502.5 90.59 502.08 90.99C501.68 91.39 501.36 91.9 501.12 92.52C500.88 93.14 500.76 93.88 500.76 94.74V102.03H498.57V88.29ZM518.97 102.21C518.09 102.21 517.37 102.06 516.81 101.76C516.25 101.46 515.82 101 515.52 100.38C515.22 99.74 515.02 98.94 514.92 97.98C514.84 97.02 514.82 95.88 514.86 94.56L515.22 84.78L517.47 84.51L517.77 84.48L517.8 84.69C517.7 84.83 517.61 84.97 517.53 85.11C517.47 85.25 517.42 85.49 517.38 85.83L517.11 89.22L517.2 89.76L516.99 94.71C516.93 96.23 516.97 97.41 517.11 98.25C517.25 99.07 517.5 99.64 517.86 99.96C518.22 100.26 518.7 100.41 519.3 100.41C519.96 100.41 520.54 100.28 521.04 100.02C521.56 99.76 522.1 99.43 522.66 99.03L523.32 100.74C522.64 101.24 521.94 101.61 521.22 101.85C520.5 102.09 519.75 102.21 518.97 102.21ZM512.1 88.29H521.97V90.06H512.1V88.29ZM528 102V100.26H531.51V90.03H528.18V88.29H533.67V100.26H536.88V102H528ZM532.47 85.41C532.05 85.41 531.69 85.26 531.39 84.96C531.09 84.66 530.94 84.3 530.94 83.88C530.94 83.44 531.08 83.07 531.36 82.77C531.66 82.47 532.03 82.32 532.47 82.32C532.89 82.32 533.25 82.48 533.55 82.8C533.87 83.1 534.03 83.46 534.03 83.88C534.03 84.3 533.87 84.66 533.55 84.96C533.25 85.26 532.89 85.41 532.47 85.41ZM544.86 90H541.89V88.29H544.86V87.15C544.86 85.93 545.07 84.93 545.49 84.15C545.93 83.37 546.53 82.8 547.29 82.44C548.05 82.06 548.92 81.87 549.9 81.87C550.76 81.87 551.56 82.03 552.3 82.35C553.06 82.65 553.69 83.12 554.19 83.76L553.05 85.35L552.87 85.59L552.69 85.47C552.67 85.31 552.63 85.15 552.57 84.99C552.51 84.83 552.37 84.63 552.15 84.39C551.83 84.11 551.51 83.91 551.19 83.79C550.87 83.67 550.46 83.61 549.96 83.61C549.38 83.61 548.86 83.73 548.4 83.97C547.94 84.19 547.58 84.56 547.32 85.08C547.06 85.58 546.93 86.27 546.93 87.15V88.29H551.43V90H546.93V102H544.86V90ZM558 102V100.26H561.51V90.03H558.18V88.29H563.67V100.26H566.88V102H558ZM562.47 85.41C562.05 85.41 561.69 85.26 561.39 84.96C561.09 84.66 560.94 84.3 560.94 83.88C560.94 83.44 561.08 83.07 561.36 82.77C561.66 82.47 562.03 82.32 562.47 82.32C562.89 82.32 563.25 82.48 563.55 82.8C563.87 83.1 564.03 83.46 564.03 83.88C564.03 84.3 563.87 84.66 563.55 84.96C563.25 85.26 562.89 85.41 562.47 85.41ZM578.55 102.33C577.55 102.33 576.63 102.15 575.79 101.79C574.95 101.43 574.22 100.93 573.6 100.29C573 99.65 572.53 98.9 572.19 98.04C571.85 97.16 571.68 96.2 571.68 95.16C571.68 94.14 571.85 93.2 572.19 92.34C572.53 91.46 573 90.7 573.6 90.06C574.22 89.42 574.95 88.92 575.79 88.56C576.63 88.2 577.54 88.02 578.52 88.02C579.64 88.02 580.64 88.25 581.52 88.71C582.42 89.15 583.15 89.77 583.71 90.57L582.36 91.89L582.15 92.1L582 91.95C582 91.79 581.96 91.64 581.88 91.5C581.82 91.36 581.67 91.17 581.43 90.93C580.99 90.53 580.52 90.25 580.02 90.09C579.52 89.93 578.94 89.85 578.28 89.85C577.7 89.85 577.15 89.97 576.63 90.21C576.11 90.45 575.64 90.8 575.22 91.26C574.82 91.7 574.5 92.24 574.26 92.88C574.02 93.52 573.9 94.23 573.9 95.01C573.9 95.79 574.02 96.51 574.26 97.17C574.5 97.81 574.83 98.37 575.25 98.85C575.67 99.33 576.17 99.71 576.75 99.99C577.35 100.25 577.99 100.38 578.67 100.38C579.13 100.38 579.57 100.32 579.99 100.2C580.41 100.06 580.81 99.87 581.19 99.63C581.57 99.37 581.92 99.06 582.24 98.7L583.5 100.17C582.82 100.89 582.06 101.43 581.22 101.79C580.4 102.15 579.51 102.33 578.55 102.33ZM591.33 102.33C589.77 102.33 588.57 101.98 587.73 101.28C586.89 100.56 586.47 99.65 586.47 98.55C586.47 97.81 586.65 97.15 587.01 96.57C587.37 95.97 587.86 95.47 588.48 95.07C589.12 94.65 589.86 94.33 590.7 94.11C591.54 93.89 592.43 93.78 593.37 93.78C593.71 93.78 594.05 93.79 594.39 93.81C594.75 93.81 595.12 93.83 595.5 93.87C595.9 93.89 596.31 93.93 596.73 93.99L596.79 95.64C596.43 95.58 596.06 95.54 595.68 95.52C595.32 95.48 594.96 95.45 594.6 95.43C594.24 95.41 593.89 95.4 593.55 95.4C592.83 95.4 592.17 95.46 591.57 95.58C590.97 95.7 590.45 95.88 590.01 96.12C589.57 96.36 589.23 96.67 588.99 97.05C588.75 97.43 588.63 97.89 588.63 98.43C588.63 98.85 588.7 99.21 588.84 99.51C589 99.79 589.21 100.02 589.47 100.2C589.73 100.36 590.03 100.48 590.37 100.56C590.73 100.64 591.12 100.68 591.54 100.68C592.32 100.68 593.01 100.56 593.61 100.32C594.23 100.06 594.75 99.69 595.17 99.21C595.61 98.73 595.94 98.14 596.16 97.44C596.38 96.74 596.49 95.94 596.49 95.04C596.49 93.68 596.33 92.62 596.01 91.86C595.69 91.1 595.21 90.56 594.57 90.24C593.95 89.92 593.15 89.76 592.17 89.76C591.51 89.76 590.86 89.89 590.22 90.15C589.58 90.39 589 90.77 588.48 91.29L587.43 89.91C588.07 89.27 588.81 88.79 589.65 88.47C590.49 88.15 591.38 87.99 592.32 87.99C593.22 87.99 594.04 88.1 594.78 88.32C595.52 88.54 596.15 88.91 596.67 89.43C597.21 89.93 597.62 90.61 597.9 91.47C598.2 92.33 598.35 93.41 598.35 94.71V102H596.01V99.9C595.75 100.4 595.43 100.81 595.05 101.13C594.69 101.45 594.3 101.7 593.88 101.88C593.46 102.04 593.03 102.15 592.59 102.21C592.15 102.29 591.73 102.33 591.33 102.33ZM608.97 102.21C608.09 102.21 607.37 102.06 606.81 101.76C606.25 101.46 605.82 101 605.52 100.38C605.22 99.74 605.02 98.94 604.92 97.98C604.84 97.02 604.82 95.88 604.86 94.56L605.22 84.78L607.47 84.51L607.77 84.48L607.8 84.69C607.7 84.83 607.61 84.97 607.53 85.11C607.47 85.25 607.42 85.49 607.38 85.83L607.11 89.22L607.2 89.76L606.99 94.71C606.93 96.23 606.97 97.41 607.11 98.25C607.25 99.07 607.5 99.64 607.86 99.96C608.22 100.26 608.7 100.41 609.3 100.41C609.96 100.41 610.54 100.28 611.04 100.02C611.56 99.76 612.1 99.43 612.66 99.03L613.32 100.74C612.64 101.24 611.94 101.61 611.22 101.85C610.5 102.09 609.75 102.21 608.97 102.21ZM602.1 88.29H611.97V90.06H602.1V88.29ZM623.16 102.3C622.16 102.3 621.25 102.15 620.43 101.85C619.61 101.53 618.9 101.07 618.3 100.47C617.72 99.87 617.27 99.13 616.95 98.25C616.63 97.35 616.47 96.33 616.47 95.19C616.47 94.03 616.63 93 616.95 92.1C617.29 91.2 617.74 90.45 618.3 89.85C618.88 89.23 619.55 88.76 620.31 88.44C621.09 88.12 621.91 87.96 622.77 87.96C623.55 87.96 624.28 88.09 624.96 88.35C625.64 88.61 626.23 89.01 626.73 89.55C627.23 90.07 627.62 90.74 627.9 91.56C628.2 92.38 628.35 93.35 628.35 94.47C628.35 94.63 628.34 94.8 628.32 94.98C628.32 95.14 628.31 95.3 628.29 95.46H618.54C618.58 96.34 618.73 97.11 618.99 97.77C619.25 98.41 619.59 98.94 620.01 99.36C620.43 99.76 620.91 100.06 621.45 100.26C622.01 100.46 622.6 100.56 623.22 100.56C623.7 100.56 624.15 100.51 624.57 100.41C624.99 100.29 625.38 100.12 625.74 99.9C626.12 99.66 626.46 99.37 626.76 99.03L627.96 100.2C627.58 100.66 627.14 101.05 626.64 101.37C626.16 101.69 625.63 101.92 625.05 102.06C624.47 102.22 623.84 102.3 623.16 102.3ZM618.63 93.78H626.16C626.16 93.14 626.07 92.57 625.89 92.07C625.73 91.55 625.49 91.11 625.17 90.75C624.87 90.37 624.5 90.09 624.06 89.91C623.64 89.71 623.16 89.61 622.62 89.61C622.14 89.61 621.68 89.69 621.24 89.85C620.82 90.01 620.43 90.27 620.07 90.63C619.71 90.97 619.4 91.4 619.14 91.92C618.9 92.44 618.73 93.06 618.63 93.78ZM637.53 102.3C636.77 102.3 636.04 102.22 635.34 102.06C634.66 101.9 634.01 101.66 633.39 101.34C632.79 101.02 632.23 100.62 631.71 100.14L632.91 98.1L633.09 97.83L633.27 97.95C633.31 98.11 633.35 98.28 633.39 98.46C633.45 98.62 633.59 98.82 633.81 99.06C634.23 99.48 634.73 99.83 635.31 100.11C635.91 100.37 636.67 100.5 637.59 100.5C638.33 100.5 638.95 100.41 639.45 100.23C639.97 100.05 640.37 99.8 640.65 99.48C640.93 99.14 641.07 98.75 641.07 98.31C641.07 98.01 641.01 97.75 640.89 97.53C640.77 97.29 640.57 97.07 640.29 96.87C640.03 96.67 639.68 96.47 639.24 96.27C638.8 96.07 638.26 95.87 637.62 95.67C636.58 95.37 635.67 95.02 634.89 94.62C634.11 94.22 633.51 93.76 633.09 93.24C632.67 92.7 632.46 92.09 632.46 91.41C632.46 90.71 632.65 90.11 633.03 89.61C633.41 89.09 633.97 88.69 634.71 88.41C635.47 88.11 636.4 87.96 637.5 87.96C638.14 87.96 638.72 88.01 639.24 88.11C639.76 88.19 640.24 88.32 640.68 88.5C641.12 88.68 641.52 88.91 641.88 89.19C642.26 89.45 642.62 89.76 642.96 90.12L641.73 91.62L641.52 91.86L641.37 91.71C641.35 91.55 641.3 91.4 641.22 91.26C641.16 91.1 641.02 90.91 640.8 90.69C640.34 90.33 639.82 90.06 639.24 89.88C638.66 89.68 638.1 89.58 637.56 89.58C636.76 89.58 636.07 89.72 635.49 90C634.91 90.28 634.62 90.71 634.62 91.29C634.62 91.59 634.72 91.89 634.92 92.19C635.14 92.47 635.53 92.76 636.09 93.06C636.65 93.34 637.45 93.63 638.49 93.93C639.63 94.29 640.54 94.66 641.22 95.04C641.92 95.4 642.42 95.82 642.72 96.3C643.04 96.78 643.2 97.35 643.2 98.01C643.2 98.77 642.99 99.48 642.57 100.14C642.17 100.8 641.55 101.33 640.71 101.73C639.87 102.11 638.81 102.3 637.53 102.3Z" fill="white"/>
</svg>
