<svg width="384" height="279" viewBox="0 0 384 279" fill="none" xmlns="http://www.w3.org/2000/svg">
<path d="M19.3968 251.487C14.5819 251.487 10.5925 255.407 10.5925 260.291C10.5925 265.175 14.5132 269.095 19.3968 269.095C24.2804 269.095 28.201 265.106 28.201 260.291C28.201 255.476 24.2116 251.487 19.3968 251.487ZM19.3968 265.931C16.3015 265.931 13.7566 263.386 13.7566 260.291C13.7566 257.196 16.3015 254.651 19.3968 254.651C22.492 254.651 25.037 257.196 25.037 260.291C25.037 263.386 22.492 265.931 19.3968 265.931Z" fill="white"/>
<path d="M28.545 253.275C29.6467 253.275 30.5397 252.382 30.5397 251.28C30.5397 250.179 29.6467 249.286 28.545 249.286C27.4434 249.286 26.5503 250.179 26.5503 251.28C26.5503 252.382 27.4434 253.275 28.545 253.275Z" fill="white"/>
<path d="M33.7037 246.122C31.9153 244.264 29.3704 243.302 26.4815 243.302H12.3122C6.32804 243.302 2.33862 247.291 2.33862 253.275V267.376C2.33862 270.333 3.30159 272.878 5.22751 274.735C7.08465 276.524 9.56085 277.418 12.381 277.418H26.4127C29.3704 277.418 31.8466 276.455 33.6349 274.735C35.4921 272.947 36.455 270.402 36.455 267.444V253.275C36.455 250.386 35.4921 247.91 33.7037 246.122ZM33.4286 267.444C33.4286 269.577 32.672 271.296 31.4339 272.466C30.1958 273.635 28.4762 274.254 26.4127 274.254H12.381C10.3175 274.254 8.59788 273.635 7.35979 272.466C6.12169 271.227 5.50264 269.508 5.50264 267.376V253.275C5.50264 251.212 6.12169 249.492 7.35979 248.254C8.5291 247.085 10.3175 246.466 12.381 246.466H26.5503C28.6138 246.466 30.3333 247.085 31.5714 248.323C32.7407 249.561 33.4286 251.28 33.4286 253.275V267.444Z" fill="white"/>
<path d="M149.964 248.228C149.954 248.209 149.937 248.194 149.917 248.186C147.594 247.127 145.142 246.372 142.624 245.939C142.601 245.935 142.577 245.938 142.556 245.948C142.535 245.958 142.518 245.974 142.507 245.994C142.173 246.596 141.87 247.215 141.599 247.847C138.884 247.438 136.122 247.438 133.407 247.847C133.134 247.213 132.826 246.595 132.485 245.994C132.473 245.975 132.456 245.959 132.435 245.949C132.414 245.939 132.39 245.936 132.368 245.939C129.849 246.371 127.397 247.126 125.074 248.186C125.054 248.194 125.037 248.209 125.026 248.227C120.381 255.12 119.108 261.843 119.733 268.482C119.734 268.499 119.739 268.514 119.747 268.529C119.755 268.543 119.766 268.556 119.779 268.566C122.484 270.556 125.509 272.074 128.726 273.058C128.749 273.064 128.773 273.064 128.796 273.057C128.818 273.049 128.838 273.035 128.852 273.017C129.543 272.083 130.155 271.093 130.682 270.059C130.69 270.045 130.694 270.03 130.695 270.014C130.695 269.998 130.693 269.982 130.687 269.967C130.681 269.952 130.672 269.939 130.661 269.928C130.649 269.917 130.635 269.908 130.62 269.903C129.655 269.536 128.72 269.093 127.825 268.58C127.809 268.57 127.795 268.557 127.785 268.541C127.776 268.525 127.77 268.507 127.769 268.488C127.768 268.469 127.771 268.451 127.779 268.434C127.787 268.416 127.799 268.402 127.814 268.39C128.002 268.251 128.19 268.105 128.369 267.958C128.385 267.945 128.404 267.937 128.425 267.934C128.445 267.931 128.466 267.934 128.485 267.943C134.349 270.602 140.697 270.602 146.492 267.943C146.511 267.934 146.532 267.93 146.553 267.933C146.573 267.935 146.593 267.944 146.609 267.957C146.788 268.104 146.976 268.251 147.166 268.39C147.181 268.402 147.193 268.416 147.201 268.433C147.209 268.45 147.212 268.469 147.211 268.488C147.21 268.506 147.205 268.524 147.195 268.541C147.185 268.557 147.172 268.57 147.156 268.58C146.263 269.098 145.327 269.54 144.359 269.901C144.344 269.907 144.331 269.916 144.319 269.927C144.308 269.938 144.299 269.952 144.293 269.967C144.287 269.982 144.285 269.998 144.286 270.014C144.287 270.03 144.291 270.045 144.298 270.059C144.834 271.088 145.446 272.076 146.127 273.015C146.141 273.034 146.161 273.049 146.183 273.056C146.206 273.064 146.23 273.064 146.253 273.057C149.476 272.078 152.506 270.559 155.215 268.566C155.228 268.556 155.239 268.544 155.247 268.53C155.255 268.516 155.26 268.5 155.261 268.484C156.009 260.807 154.01 254.14 149.964 248.228ZM131.558 264.439C129.793 264.439 128.338 262.83 128.338 260.853C128.338 258.876 129.764 257.266 131.558 257.266C133.366 257.266 134.806 258.89 134.778 260.853C134.778 262.83 133.352 264.439 131.558 264.439ZM143.464 264.439C141.699 264.439 140.244 262.83 140.244 260.853C140.244 258.876 141.67 257.266 143.464 257.266C145.272 257.266 146.712 258.89 146.684 260.853C146.684 262.83 145.272 264.439 143.464 264.439Z" fill="white"/>
<g clip-path="url(#clip0_85_835)">
<path fill-rule="evenodd" clip-rule="evenodd" d="M258.557 266.978C262.357 266.529 266.398 265.148 266.398 258.585C266.398 256.719 265.741 255.199 264.671 254.024C264.844 253.576 265.396 251.883 264.463 249.534C264.463 249.534 263.082 249.085 259.835 251.261C258.453 250.881 256.934 250.639 255.518 250.639C254.066 250.639 252.546 250.881 251.199 251.261C247.917 249.085 246.536 249.534 246.536 249.534C245.603 251.883 246.156 253.576 246.329 254.024C245.257 255.199 244.601 256.719 244.601 258.585C244.601 265.148 248.643 266.529 252.442 266.978C251.959 267.393 251.51 268.187 251.337 269.293C250.37 269.707 247.848 270.502 246.329 267.877C246.329 267.877 245.43 266.253 243.738 266.15C243.738 266.15 242.045 266.115 243.6 267.185C243.6 267.185 244.739 267.704 245.5 269.672C245.5 269.672 246.536 272.955 251.302 271.918V274.854C251.302 275.304 250.957 275.821 250.094 275.683C243.323 273.438 238.453 267.013 238.453 259.482C238.453 250.052 246.086 242.418 255.518 242.418C264.913 242.418 272.582 250.052 272.547 259.482C272.547 267.013 267.676 273.403 260.906 275.683C260.042 275.856 259.697 275.338 259.697 274.854V270.122C259.697 268.532 259.178 267.497 258.557 266.978ZM275 259.518C275 248.739 266.26 240 255.518 240C244.739 240 236 248.739 236 259.518C236 270.26 244.739 279 255.518 279C266.26 279 275 270.26 275 259.518Z" fill="white"/>
</g>
<path d="M371.619 256.807L381.858 245.292H379.432L370.538 255.288L363.439 245.292H355.25L365.987 260.41L355.25 272.485H357.676L367.063 261.925L374.561 272.485H382.75L371.619 256.807ZM368.296 260.543L367.206 259.036L358.551 247.061H362.277L369.265 256.729L370.35 258.235L379.431 270.801H375.704L368.296 260.543Z" fill="white"/>
<path d="M148.41 198.3C147.19 198.3 146.09 198.1 145.11 197.7C144.15 197.3 143.3 196.71 142.56 195.93L143.64 194.04L143.76 193.77L143.97 193.89C144.01 194.03 144.06 194.19 144.12 194.37C144.18 194.53 144.32 194.73 144.54 194.97C145.06 195.41 145.66 195.76 146.34 196.02C147.04 196.28 147.83 196.41 148.71 196.41C149.27 196.41 149.78 196.33 150.24 196.17C150.72 195.99 151.13 195.76 151.47 195.48C151.83 195.18 152.1 194.84 152.28 194.46C152.48 194.06 152.58 193.64 152.58 193.2C152.58 192.86 152.54 192.55 152.46 192.27C152.4 191.99 152.27 191.74 152.07 191.52C151.89 191.28 151.64 191.05 151.32 190.83C151 190.59 150.59 190.34 150.09 190.08C149.59 189.82 148.99 189.54 148.29 189.24C146.99 188.74 145.96 188.2 145.2 187.62C144.46 187.02 143.93 186.39 143.61 185.73C143.31 185.07 143.16 184.39 143.16 183.69C143.16 182.77 143.39 181.97 143.85 181.29C144.31 180.59 144.96 180.05 145.8 179.67C146.66 179.27 147.68 179.07 148.86 179.07C149.54 179.07 150.19 179.17 150.81 179.37C151.45 179.55 152.04 179.81 152.58 180.15C153.14 180.49 153.63 180.91 154.05 181.41L152.88 182.97L152.7 183.21L152.52 183.09C152.5 182.93 152.46 182.77 152.4 182.61C152.34 182.45 152.2 182.25 151.98 182.01C151.5 181.55 150.99 181.24 150.45 181.08C149.91 180.9 149.27 180.81 148.53 180.81C148.03 180.81 147.58 180.88 147.18 181.02C146.8 181.16 146.47 181.36 146.19 181.62C145.91 181.88 145.69 182.18 145.53 182.52C145.39 182.84 145.32 183.18 145.32 183.54C145.32 183.88 145.36 184.19 145.44 184.47C145.52 184.75 145.66 185.02 145.86 185.28C146.06 185.54 146.33 185.8 146.67 186.06C147.03 186.32 147.47 186.58 147.99 186.84C148.53 187.1 149.18 187.38 149.94 187.68C150.86 188.06 151.62 188.44 152.22 188.82C152.84 189.18 153.32 189.57 153.66 189.99C154.02 190.39 154.27 190.83 154.41 191.31C154.57 191.79 154.65 192.32 154.65 192.9C154.65 193.76 154.43 194.61 153.99 195.45C153.57 196.27 152.9 196.95 151.98 197.49C151.06 198.03 149.87 198.3 148.41 198.3ZM163.5 198.24C162.26 198.24 161.16 197.94 160.2 197.34C159.26 196.72 158.52 195.88 157.98 194.82C157.44 193.74 157.17 192.51 157.17 191.13C157.17 189.73 157.44 188.5 157.98 187.44C158.52 186.36 159.26 185.52 160.2 184.92C161.16 184.3 162.26 183.99 163.5 183.99C164.74 183.99 165.83 184.3 166.77 184.92C167.73 185.52 168.48 186.36 169.02 187.44C169.56 188.5 169.83 189.73 169.83 191.13C169.83 192.51 169.56 193.74 169.02 194.82C168.48 195.88 167.73 196.72 166.77 197.34C165.83 197.94 164.74 198.24 163.5 198.24ZM163.5 196.44C164.3 196.44 165 196.21 165.6 195.75C166.2 195.29 166.67 194.66 167.01 193.86C167.37 193.06 167.55 192.14 167.55 191.1C167.55 190.06 167.37 189.14 167.01 188.34C166.67 187.54 166.2 186.92 165.6 186.48C165 186.02 164.3 185.79 163.5 185.79C162.72 185.79 162.02 186.02 161.4 186.48C160.8 186.92 160.32 187.54 159.96 188.34C159.62 189.14 159.45 190.06 159.45 191.1C159.45 192.14 159.62 193.06 159.96 193.86C160.32 194.66 160.8 195.29 161.4 195.75C162.02 196.21 162.72 196.44 163.5 196.44ZM179.55 198.33C178.55 198.33 177.63 198.15 176.79 197.79C175.95 197.43 175.22 196.93 174.6 196.29C174 195.65 173.53 194.9 173.19 194.04C172.85 193.16 172.68 192.2 172.68 191.16C172.68 190.14 172.85 189.2 173.19 188.34C173.53 187.46 174 186.7 174.6 186.06C175.22 185.42 175.95 184.92 176.79 184.56C177.63 184.2 178.54 184.02 179.52 184.02C180.64 184.02 181.64 184.25 182.52 184.71C183.42 185.15 184.15 185.77 184.71 186.57L183.36 187.89L183.15 188.1L183 187.95C183 187.79 182.96 187.64 182.88 187.5C182.82 187.36 182.67 187.17 182.43 186.93C181.99 186.53 181.52 186.25 181.02 186.09C180.52 185.93 179.94 185.85 179.28 185.85C178.7 185.85 178.15 185.97 177.63 186.21C177.11 186.45 176.64 186.8 176.22 187.26C175.82 187.7 175.5 188.24 175.26 188.88C175.02 189.52 174.9 190.23 174.9 191.01C174.9 191.79 175.02 192.51 175.26 193.17C175.5 193.81 175.83 194.37 176.25 194.85C176.67 195.33 177.17 195.71 177.75 195.99C178.35 196.25 178.99 196.38 179.67 196.38C180.13 196.38 180.57 196.32 180.99 196.2C181.41 196.06 181.81 195.87 182.19 195.63C182.57 195.37 182.92 195.06 183.24 194.7L184.5 196.17C183.82 196.89 183.06 197.43 182.22 197.79C181.4 198.15 180.51 198.33 179.55 198.33ZM189 198V196.26H192.51V186.03H189.18V184.29H194.67V196.26H197.88V198H189ZM193.47 181.41C193.05 181.41 192.69 181.26 192.39 180.96C192.09 180.66 191.94 180.3 191.94 179.88C191.94 179.44 192.08 179.07 192.36 178.77C192.66 178.47 193.03 178.32 193.47 178.32C193.89 178.32 194.25 178.48 194.55 178.8C194.87 179.1 195.03 179.46 195.03 179.88C195.03 180.3 194.87 180.66 194.55 180.96C194.25 181.26 193.89 181.41 193.47 181.41ZM207.33 198.33C205.77 198.33 204.57 197.98 203.73 197.28C202.89 196.56 202.47 195.65 202.47 194.55C202.47 193.81 202.65 193.15 203.01 192.57C203.37 191.97 203.86 191.47 204.48 191.07C205.12 190.65 205.86 190.33 206.7 190.11C207.54 189.89 208.43 189.78 209.37 189.78C209.71 189.78 210.05 189.79 210.39 189.81C210.75 189.81 211.12 189.83 211.5 189.87C211.9 189.89 212.31 189.93 212.73 189.99L212.79 191.64C212.43 191.58 212.06 191.54 211.68 191.52C211.32 191.48 210.96 191.45 210.6 191.43C210.24 191.41 209.89 191.4 209.55 191.4C208.83 191.4 208.17 191.46 207.57 191.58C206.97 191.7 206.45 191.88 206.01 192.12C205.57 192.36 205.23 192.67 204.99 193.05C204.75 193.43 204.63 193.89 204.63 194.43C204.63 194.85 204.7 195.21 204.84 195.51C205 195.79 205.21 196.02 205.47 196.2C205.73 196.36 206.03 196.48 206.37 196.56C206.73 196.64 207.12 196.68 207.54 196.68C208.32 196.68 209.01 196.56 209.61 196.32C210.23 196.06 210.75 195.69 211.17 195.21C211.61 194.73 211.94 194.14 212.16 193.44C212.38 192.74 212.49 191.94 212.49 191.04C212.49 189.68 212.33 188.62 212.01 187.86C211.69 187.1 211.21 186.56 210.57 186.24C209.95 185.92 209.15 185.76 208.17 185.76C207.51 185.76 206.86 185.89 206.22 186.15C205.58 186.39 205 186.77 204.48 187.29L203.43 185.91C204.07 185.27 204.81 184.79 205.65 184.47C206.49 184.15 207.38 183.99 208.32 183.99C209.22 183.99 210.04 184.1 210.78 184.32C211.52 184.54 212.15 184.91 212.67 185.43C213.21 185.93 213.62 186.61 213.9 187.47C214.2 188.33 214.35 189.41 214.35 190.71V198H212.01V195.9C211.75 196.4 211.43 196.81 211.05 197.13C210.69 197.45 210.3 197.7 209.88 197.88C209.46 198.04 209.03 198.15 208.59 198.21C208.15 198.29 207.73 198.33 207.33 198.33ZM218.37 198V196.26H222.42V179.79H218.55V178.05H224.61V196.26H228.63V198H218.37ZM238.53 198.3C237.77 198.3 237.04 198.22 236.34 198.06C235.66 197.9 235.01 197.66 234.39 197.34C233.79 197.02 233.23 196.62 232.71 196.14L233.91 194.1L234.09 193.83L234.27 193.95C234.31 194.11 234.35 194.28 234.39 194.46C234.45 194.62 234.59 194.82 234.81 195.06C235.23 195.48 235.73 195.83 236.31 196.11C236.91 196.37 237.67 196.5 238.59 196.5C239.33 196.5 239.95 196.41 240.45 196.23C240.97 196.05 241.37 195.8 241.65 195.48C241.93 195.14 242.07 194.75 242.07 194.31C242.07 194.01 242.01 193.75 241.89 193.53C241.77 193.29 241.57 193.07 241.29 192.87C241.03 192.67 240.68 192.47 240.24 192.27C239.8 192.07 239.26 191.87 238.62 191.67C237.58 191.37 236.67 191.02 235.89 190.62C235.11 190.22 234.51 189.76 234.09 189.24C233.67 188.7 233.46 188.09 233.46 187.41C233.46 186.71 233.65 186.11 234.03 185.61C234.41 185.09 234.97 184.69 235.71 184.41C236.47 184.11 237.4 183.96 238.5 183.96C239.14 183.96 239.72 184.01 240.24 184.11C240.76 184.19 241.24 184.32 241.68 184.5C242.12 184.68 242.52 184.91 242.88 185.19C243.26 185.45 243.62 185.76 243.96 186.12L242.73 187.62L242.52 187.86L242.37 187.71C242.35 187.55 242.3 187.4 242.22 187.26C242.16 187.1 242.02 186.91 241.8 186.69C241.34 186.33 240.82 186.06 240.24 185.88C239.66 185.68 239.1 185.58 238.56 185.58C237.76 185.58 237.07 185.72 236.49 186C235.91 186.28 235.62 186.71 235.62 187.29C235.62 187.59 235.72 187.89 235.92 188.19C236.14 188.47 236.53 188.76 237.09 189.06C237.65 189.34 238.45 189.63 239.49 189.93C240.63 190.29 241.54 190.66 242.22 191.04C242.92 191.4 243.42 191.82 243.72 192.3C244.04 192.78 244.2 193.35 244.2 194.01C244.2 194.77 243.99 195.48 243.57 196.14C243.17 196.8 242.55 197.33 241.71 197.73C240.87 198.11 239.81 198.3 238.53 198.3Z" fill="white"/>
<path d="M156.31 26.3C154.83 26.3 153.54 25.91 152.44 25.13C151.36 24.35 150.53 23.25 149.95 21.83C149.37 20.41 149.08 18.76 149.08 16.88C149.06 15.26 149.2 13.89 149.5 12.77C149.82 11.63 150.24 10.69 150.76 9.95C151.28 9.21 151.86 8.63 152.5 8.21C153.14 7.79 153.78 7.5 154.42 7.34C155.08 7.18 155.68 7.1 156.22 7.1C156.96 7.1 157.68 7.24 158.38 7.52C159.1 7.78 159.75 8.14 160.33 8.6C160.93 9.06 161.4 9.61 161.74 10.25L160.27 11.42L160.03 11.63L159.91 11.45C159.93 11.29 159.9 11.15 159.82 11.03C159.76 10.89 159.62 10.69 159.4 10.43C159.1 10.09 158.79 9.81 158.47 9.59C158.15 9.37 157.8 9.21 157.42 9.11C157.06 9.01 156.65 8.96 156.19 8.96C155.65 8.96 155.13 9.04 154.63 9.2C154.13 9.34 153.67 9.59 153.25 9.95C152.83 10.29 152.46 10.75 152.14 11.33C151.82 11.91 151.57 12.62 151.39 13.46C151.23 14.3 151.15 15.29 151.15 16.43C151.15 17.73 151.27 18.88 151.51 19.88C151.75 20.86 152.09 21.69 152.53 22.37C152.99 23.05 153.53 23.57 154.15 23.93C154.79 24.27 155.51 24.44 156.31 24.44C156.59 24.44 156.88 24.42 157.18 24.38C157.5 24.34 157.81 24.28 158.11 24.2C158.43 24.1 158.74 23.98 159.04 23.84C159.34 23.68 159.61 23.5 159.85 23.3V18.86H156.46V17.03H161.8V24.35C160.92 24.99 160.02 25.48 159.1 25.82C158.18 26.14 157.25 26.3 156.31 26.3ZM166 26V24.26H169.51V14.03H166.18V12.29H171.67V24.26H174.88V26H166ZM170.47 9.41C170.05 9.41 169.69 9.26 169.39 8.96C169.09 8.66 168.94 8.3 168.94 7.88C168.94 7.44 169.08 7.07 169.36 6.77C169.66 6.47 170.03 6.32 170.47 6.32C170.89 6.32 171.25 6.48 171.55 6.8C171.87 7.1 172.03 7.46 172.03 7.88C172.03 8.3 171.87 8.66 171.55 8.96C171.25 9.26 170.89 9.41 170.47 9.41ZM186.97 26.21C186.09 26.21 185.37 26.06 184.81 25.76C184.25 25.46 183.82 25 183.52 24.38C183.22 23.74 183.02 22.94 182.92 21.98C182.84 21.02 182.82 19.88 182.86 18.56L183.22 8.78L185.47 8.51L185.77 8.48L185.8 8.69C185.7 8.83 185.61 8.97 185.53 9.11C185.47 9.25 185.42 9.49 185.38 9.83L185.11 13.22L185.2 13.76L184.99 18.71C184.93 20.23 184.97 21.41 185.11 22.25C185.25 23.07 185.5 23.64 185.86 23.96C186.22 24.26 186.7 24.41 187.3 24.41C187.96 24.41 188.54 24.28 189.04 24.02C189.56 23.76 190.1 23.43 190.66 23.03L191.32 24.74C190.64 25.24 189.94 25.61 189.22 25.85C188.5 26.09 187.75 26.21 186.97 26.21ZM180.1 12.29H189.97V14.06H180.1V12.29ZM195.19 6.05H197.26H197.56V6.26C197.44 6.38 197.36 6.51 197.32 6.65C197.3 6.79 197.29 7.03 197.29 7.37V14.72C197.65 14.16 198.07 13.68 198.55 13.28C199.05 12.86 199.57 12.54 200.11 12.32C200.67 12.08 201.23 11.96 201.79 11.96C202.61 11.96 203.33 12.15 203.95 12.53C204.59 12.91 205.08 13.52 205.42 14.36C205.78 15.2 205.96 16.31 205.96 17.69V26H203.86V17.75C203.86 16.79 203.75 16.03 203.53 15.47C203.31 14.89 203.01 14.48 202.63 14.24C202.25 13.98 201.82 13.85 201.34 13.85C200.98 13.85 200.61 13.91 200.23 14.03C199.85 14.15 199.48 14.33 199.12 14.57C198.78 14.81 198.47 15.11 198.19 15.47C197.91 15.81 197.69 16.2 197.53 16.64C197.37 17.08 197.29 17.57 197.29 18.11V26H195.19V6.05ZM214.63 26.33C214.09 26.33 213.58 26.25 213.1 26.09C212.62 25.93 212.18 25.69 211.78 25.37C211.4 25.03 211.07 24.61 210.79 24.11C210.51 23.61 210.29 23.01 210.13 22.31C209.99 21.61 209.92 20.82 209.92 19.94L209.95 12.29H212.05V19.94C212.05 20.8 212.13 21.53 212.29 22.13C212.45 22.73 212.67 23.21 212.95 23.57C213.25 23.93 213.59 24.19 213.97 24.35C214.35 24.51 214.75 24.59 215.17 24.59C215.65 24.59 216.11 24.5 216.55 24.32C216.99 24.12 217.38 23.83 217.72 23.45C218.08 23.07 218.36 22.58 218.56 21.98C218.76 21.38 218.86 20.67 218.86 19.85V12.29H220.96V23.87C220.96 24.23 220.97 24.59 220.99 24.95C221.03 25.29 221.12 25.64 221.26 26H219.19C219.09 25.76 219.02 25.53 218.98 25.31C218.94 25.07 218.91 24.83 218.89 24.59C218.89 24.35 218.89 24.12 218.89 23.9C218.67 24.28 218.41 24.62 218.11 24.92C217.81 25.22 217.47 25.48 217.09 25.7C216.73 25.9 216.34 26.05 215.92 26.15C215.52 26.27 215.09 26.33 214.63 26.33ZM230.98 26.33C230.42 26.33 229.89 26.24 229.39 26.06C228.89 25.9 228.43 25.66 228.01 25.34C227.61 25.02 227.25 24.64 226.93 24.2L226.18 26H224.8V6.05H226.96H227.26V6.26C227.14 6.38 227.06 6.51 227.02 6.65C227 6.79 226.99 7.03 226.99 7.37V14.39C227.21 14.03 227.47 13.7 227.77 13.4C228.07 13.1 228.4 12.84 228.76 12.62C229.12 12.4 229.5 12.24 229.9 12.14C230.3 12.02 230.69 11.96 231.07 11.96C231.91 11.96 232.67 12.11 233.35 12.41C234.05 12.69 234.65 13.13 235.15 13.73C235.65 14.31 236.03 15.04 236.29 15.92C236.57 16.8 236.71 17.83 236.71 19.01C236.71 20.23 236.55 21.3 236.23 22.22C235.91 23.14 235.47 23.91 234.91 24.53C234.37 25.13 233.76 25.58 233.08 25.88C232.4 26.18 231.7 26.33 230.98 26.33ZM230.71 24.41C231.19 24.41 231.65 24.32 232.09 24.14C232.55 23.96 232.96 23.67 233.32 23.27C233.68 22.85 233.96 22.3 234.16 21.62C234.38 20.94 234.49 20.11 234.49 19.13C234.49 18.23 234.4 17.45 234.22 16.79C234.04 16.11 233.78 15.55 233.44 15.11C233.12 14.67 232.73 14.35 232.27 14.15C231.81 13.93 231.31 13.82 230.77 13.82C230.03 13.82 229.37 14.05 228.79 14.51C228.23 14.95 227.79 15.58 227.47 16.4C227.15 17.2 226.99 18.13 226.99 19.19C226.99 19.97 227.06 20.68 227.2 21.32C227.34 21.96 227.55 22.51 227.83 22.97C228.13 23.43 228.51 23.79 228.97 24.05C229.45 24.29 230.03 24.41 230.71 24.41Z" fill="white"/>
<path d="M7.606 57.37H9.124H9.344V57.524C9.256 57.612 9.19733 57.7073 9.168 57.81C9.15333 57.9127 9.146 58.0887 9.146 58.338V63.728C9.41 63.3173 9.718 62.9653 10.07 62.672C10.4367 62.364 10.818 62.1293 11.214 61.968C11.6247 61.792 12.0353 61.704 12.446 61.704C13.0473 61.704 13.5753 61.8433 14.03 62.122C14.4993 62.4007 14.8587 62.848 15.108 63.464C15.372 64.08 15.504 64.894 15.504 65.906V72H13.964V65.95C13.964 65.246 13.8833 64.6887 13.722 64.278C13.5607 63.8527 13.3407 63.552 13.062 63.376C12.7833 63.1853 12.468 63.09 12.116 63.09C11.852 63.09 11.5807 63.134 11.302 63.222C11.0233 63.31 10.752 63.442 10.488 63.618C10.2387 63.794 10.0113 64.014 9.806 64.278C9.60067 64.5273 9.43933 64.8133 9.322 65.136C9.20467 65.4587 9.146 65.818 9.146 66.214V72H7.606V57.37ZM23.578 72.154C22.9327 72.154 22.4047 72.044 21.994 71.824C21.5833 71.604 21.268 71.2667 21.048 70.812C20.828 70.3427 20.6813 69.756 20.608 69.052C20.5493 68.348 20.5347 67.512 20.564 66.544L20.828 59.372L22.478 59.174L22.698 59.152L22.72 59.306C22.6467 59.4087 22.5807 59.5113 22.522 59.614C22.478 59.7167 22.4413 59.8927 22.412 60.142L22.214 62.628L22.28 63.024L22.126 66.654C22.082 67.7687 22.1113 68.634 22.214 69.25C22.3167 69.8513 22.5 70.2693 22.764 70.504C23.028 70.724 23.38 70.834 23.82 70.834C24.304 70.834 24.7293 70.7387 25.096 70.548C25.4773 70.3573 25.8733 70.1153 26.284 69.822L26.768 71.076C26.2693 71.4427 25.756 71.714 25.228 71.89C24.7 72.066 24.15 72.154 23.578 72.154ZM18.54 61.946H25.778V63.244H18.54V61.946ZM34.578 72.154C33.9327 72.154 33.4047 72.044 32.994 71.824C32.5833 71.604 32.268 71.2667 32.048 70.812C31.828 70.3427 31.6813 69.756 31.608 69.052C31.5493 68.348 31.5347 67.512 31.564 66.544L31.828 59.372L33.478 59.174L33.698 59.152L33.72 59.306C33.6467 59.4087 33.5807 59.5113 33.522 59.614C33.478 59.7167 33.4413 59.8927 33.412 60.142L33.214 62.628L33.28 63.024L33.126 66.654C33.082 67.7687 33.1113 68.634 33.214 69.25C33.3167 69.8513 33.5 70.2693 33.764 70.504C34.028 70.724 34.38 70.834 34.82 70.834C35.304 70.834 35.7293 70.7387 36.096 70.548C36.4773 70.3573 36.8733 70.1153 37.284 69.822L37.768 71.076C37.2693 71.4427 36.756 71.714 36.228 71.89C35.7 72.066 35.15 72.154 34.578 72.154ZM29.54 61.946H36.778V63.244H29.54V61.946ZM40.32 75.674V61.946H41.926V63.926C42.0873 63.4127 42.3147 62.9947 42.608 62.672C42.916 62.3493 43.268 62.1147 43.664 61.968C44.0747 61.8067 44.5147 61.726 44.984 61.726C45.5413 61.726 46.0693 61.836 46.568 62.056C47.0813 62.2613 47.5287 62.5767 47.91 63.002C48.306 63.4273 48.614 63.9627 48.834 64.608C49.0687 65.2533 49.186 66.016 49.186 66.896C49.186 67.776 49.0613 68.5533 48.812 69.228C48.5773 69.9027 48.2547 70.4673 47.844 70.922C47.448 71.362 46.9933 71.6993 46.48 71.934C45.9813 72.154 45.468 72.264 44.94 72.264C44.544 72.264 44.1553 72.198 43.774 72.066C43.4073 71.9487 43.07 71.7727 42.762 71.538C42.454 71.2887 42.1827 71.0027 41.948 70.68V75.674H40.32ZM44.676 70.856C45.028 70.856 45.3727 70.7973 45.71 70.68C46.0473 70.548 46.3553 70.3353 46.634 70.042C46.9127 69.7487 47.1327 69.3527 47.294 68.854C47.4553 68.3407 47.536 67.71 47.536 66.962C47.536 66.1553 47.4333 65.4733 47.228 64.916C47.0227 64.344 46.722 63.904 46.326 63.596C45.9447 63.288 45.4753 63.1193 44.918 63.09C44.5073 63.0607 44.1187 63.1193 43.752 63.266C43.4 63.4127 43.0847 63.6547 42.806 63.992C42.5273 64.3293 42.3073 64.7767 42.146 65.334C41.9993 65.8767 41.926 66.5367 41.926 67.314C41.9407 67.7833 41.992 68.2087 42.08 68.59C42.168 68.9713 42.2927 69.3087 42.454 69.602C42.6153 69.8807 42.806 70.1153 43.026 70.306C43.246 70.482 43.4953 70.6213 43.774 70.724C44.0527 70.812 44.3533 70.856 44.676 70.856ZM55.522 72.22C54.9647 72.22 54.4293 72.1613 53.916 72.044C53.4173 71.9267 52.9407 71.7507 52.486 71.516C52.046 71.2813 51.6353 70.988 51.254 70.636L52.134 69.14L52.266 68.942L52.398 69.03C52.4273 69.1473 52.4567 69.272 52.486 69.404C52.53 69.5213 52.6327 69.668 52.794 69.844C53.102 70.152 53.4687 70.4087 53.894 70.614C54.334 70.8047 54.8913 70.9 55.566 70.9C56.1087 70.9 56.5633 70.834 56.93 70.702C57.3113 70.57 57.6047 70.3867 57.81 70.152C58.0153 69.9027 58.118 69.6167 58.118 69.294C58.118 69.074 58.074 68.8833 57.986 68.722C57.898 68.546 57.7513 68.3847 57.546 68.238C57.3553 68.0913 57.0987 67.9447 56.776 67.798C56.4533 67.6513 56.0573 67.5047 55.588 67.358C54.8253 67.138 54.158 66.8813 53.586 66.588C53.014 66.2947 52.574 65.9573 52.266 65.576C51.958 65.18 51.804 64.7327 51.804 64.234C51.804 63.7207 51.9433 63.2807 52.222 62.914C52.5007 62.5327 52.9113 62.2393 53.454 62.034C54.0113 61.814 54.6933 61.704 55.5 61.704C55.9693 61.704 56.3947 61.7407 56.776 61.814C57.1573 61.8727 57.5093 61.968 57.832 62.1C58.1547 62.232 58.448 62.4007 58.712 62.606C58.9907 62.7967 59.2547 63.024 59.504 63.288L58.602 64.388L58.448 64.564L58.338 64.454C58.3233 64.3367 58.2867 64.2267 58.228 64.124C58.184 64.0067 58.0813 63.8673 57.92 63.706C57.5827 63.442 57.2013 63.244 56.776 63.112C56.3507 62.9653 55.94 62.892 55.544 62.892C54.9573 62.892 54.4513 62.9947 54.026 63.2C53.6007 63.4053 53.388 63.7207 53.388 64.146C53.388 64.366 53.4613 64.586 53.608 64.806C53.7693 65.0113 54.0553 65.224 54.466 65.444C54.8767 65.6493 55.4633 65.862 56.226 66.082C57.062 66.346 57.7293 66.6173 58.228 66.896C58.7413 67.16 59.108 67.468 59.328 67.82C59.5627 68.172 59.68 68.59 59.68 69.074C59.68 69.6313 59.526 70.152 59.218 70.636C58.9247 71.12 58.47 71.5087 57.854 71.802C57.238 72.0807 56.4607 72.22 55.522 72.22ZM66.236 65.224C65.8987 65.224 65.598 65.0993 65.334 64.85C65.07 64.6007 64.938 64.3073 64.938 63.97C64.938 63.618 65.07 63.3173 65.334 63.068C65.598 62.8187 65.8987 62.694 66.236 62.694C66.5733 62.694 66.874 62.8187 67.138 63.068C67.4167 63.3173 67.556 63.618 67.556 63.97C67.556 64.3073 67.424 64.6007 67.16 64.85C66.896 65.0993 66.588 65.224 66.236 65.224ZM66.236 72.242C65.8693 72.242 65.5613 72.1247 65.312 71.89C65.0627 71.6407 64.938 71.34 64.938 70.988C64.938 70.636 65.07 70.3353 65.334 70.086C65.598 69.8367 65.8987 69.712 66.236 69.712C66.5733 69.712 66.874 69.8367 67.138 70.086C67.4167 70.3353 67.556 70.636 67.556 70.988C67.556 71.3253 67.424 71.6187 67.16 71.868C66.9107 72.1173 66.6027 72.242 66.236 72.242ZM74.706 72.924L73.408 72.286L80.294 57.37L81.614 58.052L74.706 72.924ZM85.706 72.924L84.408 72.286L91.294 57.37L92.614 58.052L85.706 72.924ZM99.434 75.784C98.73 75.784 98.092 75.7253 97.52 75.608C96.9627 75.5053 96.4787 75.344 96.068 75.124C95.672 74.9187 95.364 74.6547 95.144 74.332C94.9387 74.0093 94.836 73.628 94.836 73.188C94.836 72.7773 94.924 72.4107 95.1 72.088C95.276 71.7653 95.5033 71.5013 95.782 71.296C96.0753 71.076 96.3907 70.9147 96.728 70.812L97.388 71.208C97.124 71.3693 96.9113 71.5307 96.75 71.692C96.5887 71.8533 96.4713 72.0367 96.398 72.242C96.3247 72.462 96.288 72.7187 96.288 73.012C96.288 73.2613 96.3613 73.4813 96.508 73.672C96.6547 73.8773 96.86 74.046 97.124 74.178C97.4027 74.31 97.7327 74.4127 98.114 74.486C98.51 74.5593 98.9573 74.596 99.456 74.596C100.131 74.596 100.673 74.5227 101.084 74.376C101.509 74.244 101.825 74.0533 102.03 73.804C102.235 73.5693 102.338 73.298 102.338 72.99C102.338 72.6673 102.279 72.4033 102.162 72.198C102.045 71.9927 101.803 71.8387 101.436 71.736C101.069 71.6333 100.512 71.582 99.764 71.582C99.2507 71.582 98.7813 71.56 98.356 71.516C97.9307 71.472 97.5493 71.3987 97.212 71.296C96.8747 71.1933 96.5887 71.0687 96.354 70.922C96.134 70.7607 95.9653 70.57 95.848 70.35C95.7307 70.13 95.672 69.8733 95.672 69.58C95.672 69.1987 95.7747 68.832 95.98 68.48C96.2 68.128 96.4933 67.7907 96.86 67.468L97.608 68.062C97.4613 68.2233 97.344 68.37 97.256 68.502C97.168 68.6193 97.102 68.7367 97.058 68.854C97.0287 68.9567 97.014 69.074 97.014 69.206C97.014 69.4407 97.102 69.6313 97.278 69.778C97.4687 69.9247 97.7913 70.0347 98.246 70.108C98.7007 70.1667 99.3167 70.196 100.094 70.196C100.871 70.196 101.502 70.262 101.986 70.394C102.47 70.5113 102.837 70.6873 103.086 70.922C103.35 71.1567 103.533 71.428 103.636 71.736C103.739 72.044 103.79 72.3813 103.79 72.748C103.79 73.144 103.709 73.518 103.548 73.87C103.401 74.2367 103.159 74.5593 102.822 74.838C102.485 75.1313 102.037 75.3587 101.48 75.52C100.923 75.696 100.241 75.784 99.434 75.784ZM98.972 68.59C98.2533 68.59 97.63 68.436 97.102 68.128C96.574 67.8053 96.1633 67.38 95.87 66.852C95.5913 66.3093 95.452 65.7153 95.452 65.07C95.452 64.4247 95.5913 63.838 95.87 63.31C96.1633 62.782 96.574 62.364 97.102 62.056C97.63 61.7333 98.2533 61.572 98.972 61.572C99.7053 61.572 100.329 61.7333 100.842 62.056C101.37 62.364 101.773 62.782 102.052 63.31C102.345 63.838 102.492 64.4247 102.492 65.07C102.492 65.7153 102.345 66.3093 102.052 66.852C101.773 67.38 101.37 67.8053 100.842 68.128C100.329 68.436 99.7053 68.59 98.972 68.59ZM98.972 67.27C99.3973 67.27 99.7713 67.1747 100.094 66.984C100.431 66.7787 100.695 66.5073 100.886 66.17C101.077 65.8327 101.172 65.466 101.172 65.07C101.172 64.6593 101.077 64.2927 100.886 63.97C100.695 63.6327 100.431 63.3687 100.094 63.178C99.7713 62.9727 99.3973 62.87 98.972 62.87C98.5467 62.87 98.1653 62.9727 97.828 63.178C97.5053 63.3687 97.2487 63.6327 97.058 63.97C96.8673 64.2927 96.772 64.6593 96.772 65.07C96.772 65.466 96.8673 65.8327 97.058 66.17C97.2487 66.5073 97.5053 66.7787 97.828 66.984C98.1653 67.1747 98.5467 67.27 98.972 67.27ZM101.898 63.574L101.282 62.848C101.707 62.4227 102.147 62.1147 102.602 61.924C103.071 61.7187 103.621 61.638 104.252 61.682L104.45 62.98C103.966 62.936 103.511 62.9507 103.086 63.024C102.661 63.0973 102.265 63.2807 101.898 63.574ZM107.2 72V70.724H109.774V63.222H107.332V61.946H111.358V70.724H113.712V72H107.2ZM110.478 59.834C110.17 59.834 109.906 59.724 109.686 59.504C109.466 59.284 109.356 59.02 109.356 58.712C109.356 58.3893 109.459 58.118 109.664 57.898C109.884 57.678 110.155 57.568 110.478 57.568C110.786 57.568 111.05 57.6853 111.27 57.92C111.505 58.14 111.622 58.404 111.622 58.712C111.622 59.02 111.505 59.284 111.27 59.504C111.05 59.724 110.786 59.834 110.478 59.834ZM122.578 72.154C121.933 72.154 121.405 72.044 120.994 71.824C120.583 71.604 120.268 71.2667 120.048 70.812C119.828 70.3427 119.681 69.756 119.608 69.052C119.549 68.348 119.535 67.512 119.564 66.544L119.828 59.372L121.478 59.174L121.698 59.152L121.72 59.306C121.647 59.4087 121.581 59.5113 121.522 59.614C121.478 59.7167 121.441 59.8927 121.412 60.142L121.214 62.628L121.28 63.024L121.126 66.654C121.082 67.7687 121.111 68.634 121.214 69.25C121.317 69.8513 121.5 70.2693 121.764 70.504C122.028 70.724 122.38 70.834 122.82 70.834C123.304 70.834 123.729 70.7387 124.096 70.548C124.477 70.3573 124.873 70.1153 125.284 69.822L125.768 71.076C125.269 71.4427 124.756 71.714 124.228 71.89C123.7 72.066 123.15 72.154 122.578 72.154ZM117.54 61.946H124.778V63.244H117.54V61.946ZM128.606 57.37H130.124H130.344V57.524C130.256 57.612 130.197 57.7073 130.168 57.81C130.153 57.9127 130.146 58.0887 130.146 58.338V63.728C130.41 63.3173 130.718 62.9653 131.07 62.672C131.437 62.364 131.818 62.1293 132.214 61.968C132.625 61.792 133.035 61.704 133.446 61.704C134.047 61.704 134.575 61.8433 135.03 62.122C135.499 62.4007 135.859 62.848 136.108 63.464C136.372 64.08 136.504 64.894 136.504 65.906V72H134.964V65.95C134.964 65.246 134.883 64.6887 134.722 64.278C134.561 63.8527 134.341 63.552 134.062 63.376C133.783 63.1853 133.468 63.09 133.116 63.09C132.852 63.09 132.581 63.134 132.302 63.222C132.023 63.31 131.752 63.442 131.488 63.618C131.239 63.794 131.011 64.014 130.806 64.278C130.601 64.5273 130.439 64.8133 130.322 65.136C130.205 65.4587 130.146 65.818 130.146 66.214V72H128.606V57.37ZM142.862 72.242C142.466 72.242 142.092 72.1833 141.74 72.066C141.388 71.9487 141.065 71.7727 140.772 71.538C140.493 71.2887 140.251 70.9807 140.046 70.614C139.841 70.2473 139.679 69.8073 139.562 69.294C139.459 68.7807 139.408 68.2013 139.408 67.556L139.43 61.946H140.97V67.556C140.97 68.1867 141.029 68.722 141.146 69.162C141.263 69.602 141.425 69.954 141.63 70.218C141.85 70.482 142.099 70.6727 142.378 70.79C142.657 70.9073 142.95 70.966 143.258 70.966C143.61 70.966 143.947 70.9 144.27 70.768C144.593 70.6213 144.879 70.4087 145.128 70.13C145.392 69.8513 145.597 69.492 145.744 69.052C145.891 68.612 145.964 68.0913 145.964 67.49V61.946H147.504V70.438C147.504 70.702 147.511 70.966 147.526 71.23C147.555 71.4793 147.621 71.736 147.724 72H146.206C146.133 71.824 146.081 71.6553 146.052 71.494C146.023 71.318 146.001 71.142 145.986 70.966C145.986 70.79 145.986 70.6213 145.986 70.46C145.825 70.7387 145.634 70.988 145.414 71.208C145.194 71.428 144.945 71.6187 144.666 71.78C144.402 71.9267 144.116 72.0367 143.808 72.11C143.515 72.198 143.199 72.242 142.862 72.242ZM154.852 72.242C154.441 72.242 154.053 72.176 153.686 72.044C153.319 71.9267 152.982 71.7507 152.674 71.516C152.381 71.2813 152.117 71.0027 151.882 70.68L151.332 72H150.32V57.37H151.904H152.124V57.524C152.036 57.612 151.977 57.7073 151.948 57.81C151.933 57.9127 151.926 58.0887 151.926 58.338V63.486C152.087 63.222 152.278 62.98 152.498 62.76C152.718 62.54 152.96 62.3493 153.224 62.188C153.488 62.0267 153.767 61.9093 154.06 61.836C154.353 61.748 154.639 61.704 154.918 61.704C155.534 61.704 156.091 61.814 156.59 62.034C157.103 62.2393 157.543 62.562 157.91 63.002C158.277 63.4273 158.555 63.9627 158.746 64.608C158.951 65.2533 159.054 66.0087 159.054 66.874C159.054 67.7687 158.937 68.5533 158.702 69.228C158.467 69.9027 158.145 70.4673 157.734 70.922C157.338 71.362 156.891 71.692 156.392 71.912C155.893 72.132 155.38 72.242 154.852 72.242ZM154.654 70.834C155.006 70.834 155.343 70.768 155.666 70.636C156.003 70.504 156.304 70.2913 156.568 69.998C156.832 69.69 157.037 69.2867 157.184 68.788C157.345 68.2893 157.426 67.6807 157.426 66.962C157.426 66.302 157.36 65.73 157.228 65.246C157.096 64.7473 156.905 64.3367 156.656 64.014C156.421 63.6913 156.135 63.4567 155.798 63.31C155.461 63.1487 155.094 63.068 154.698 63.068C154.155 63.068 153.671 63.2367 153.246 63.574C152.835 63.8967 152.513 64.3587 152.278 64.96C152.043 65.5467 151.926 66.2287 151.926 67.006C151.926 67.578 151.977 68.0987 152.08 68.568C152.183 69.0373 152.337 69.4407 152.542 69.778C152.762 70.1153 153.041 70.3793 153.378 70.57C153.73 70.746 154.155 70.834 154.654 70.834ZM165.236 72.242C164.884 72.242 164.583 72.1173 164.334 71.868C164.085 71.6187 163.96 71.3253 163.96 70.988C163.96 70.6507 164.085 70.3573 164.334 70.108C164.583 69.8587 164.884 69.734 165.236 69.734C165.573 69.734 165.867 69.8587 166.116 70.108C166.365 70.3573 166.49 70.6507 166.49 70.988C166.49 71.3253 166.365 71.6187 166.116 71.868C165.867 72.1173 165.573 72.242 165.236 72.242ZM177.27 72.242C176.537 72.242 175.862 72.11 175.246 71.846C174.63 71.582 174.095 71.2153 173.64 70.746C173.2 70.2767 172.855 69.7267 172.606 69.096C172.357 68.4507 172.232 67.7467 172.232 66.984C172.232 66.236 172.357 65.5467 172.606 64.916C172.855 64.2707 173.2 63.7133 173.64 63.244C174.095 62.7747 174.63 62.408 175.246 62.144C175.862 61.88 176.529 61.748 177.248 61.748C178.069 61.748 178.803 61.9167 179.448 62.254C180.108 62.5767 180.643 63.0313 181.054 63.618L180.064 64.586L179.91 64.74L179.8 64.63C179.8 64.5127 179.771 64.4027 179.712 64.3C179.668 64.1973 179.558 64.058 179.382 63.882C179.059 63.5887 178.715 63.3833 178.348 63.266C177.981 63.1487 177.556 63.09 177.072 63.09C176.647 63.09 176.243 63.178 175.862 63.354C175.481 63.53 175.136 63.7867 174.828 64.124C174.535 64.4467 174.3 64.8427 174.124 65.312C173.948 65.7813 173.86 66.302 173.86 66.874C173.86 67.446 173.948 67.974 174.124 68.458C174.3 68.9273 174.542 69.338 174.85 69.69C175.158 70.042 175.525 70.3207 175.95 70.526C176.39 70.7167 176.859 70.812 177.358 70.812C177.695 70.812 178.018 70.768 178.326 70.68C178.634 70.5773 178.927 70.438 179.206 70.262C179.485 70.0713 179.741 69.844 179.976 69.58L180.9 70.658C180.401 71.186 179.844 71.582 179.228 71.846C178.627 72.11 177.974 72.242 177.27 72.242ZM187.5 72.176C186.591 72.176 185.784 71.956 185.08 71.516C184.391 71.0613 183.848 70.4453 183.452 69.668C183.056 68.876 182.858 67.974 182.858 66.962C182.858 65.9353 183.056 65.0333 183.452 64.256C183.848 63.464 184.391 62.848 185.08 62.408C185.784 61.9533 186.591 61.726 187.5 61.726C188.409 61.726 189.209 61.9533 189.898 62.408C190.602 62.848 191.152 63.464 191.548 64.256C191.944 65.0333 192.142 65.9353 192.142 66.962C192.142 67.974 191.944 68.876 191.548 69.668C191.152 70.4453 190.602 71.0613 189.898 71.516C189.209 71.956 188.409 72.176 187.5 72.176ZM187.5 70.856C188.087 70.856 188.6 70.6873 189.04 70.35C189.48 70.0127 189.825 69.5507 190.074 68.964C190.338 68.3773 190.47 67.7027 190.47 66.94C190.47 66.1773 190.338 65.5027 190.074 64.916C189.825 64.3293 189.48 63.8747 189.04 63.552C188.6 63.2147 188.087 63.046 187.5 63.046C186.928 63.046 186.415 63.2147 185.96 63.552C185.52 63.8747 185.168 64.3293 184.904 64.916C184.655 65.5027 184.53 66.1773 184.53 66.94C184.53 67.7027 184.655 68.3773 184.904 68.964C185.168 69.5507 185.52 70.0127 185.96 70.35C186.415 70.6873 186.928 70.856 187.5 70.856ZM193.836 72V61.946H195.288V62.936C195.449 62.6867 195.633 62.474 195.838 62.298C196.058 62.1073 196.293 61.9607 196.542 61.858C196.806 61.7553 197.07 61.704 197.334 61.704C197.627 61.704 197.899 61.77 198.148 61.902C198.397 62.0193 198.603 62.188 198.764 62.408C198.94 62.628 199.057 62.8847 199.116 63.178C199.248 62.8847 199.424 62.628 199.644 62.408C199.879 62.188 200.143 62.0193 200.436 61.902C200.744 61.77 201.059 61.704 201.382 61.704C201.719 61.704 202.013 61.77 202.262 61.902C202.511 62.034 202.717 62.2173 202.878 62.452C203.039 62.672 203.157 62.9433 203.23 63.266C203.303 63.574 203.333 63.9113 203.318 64.278V72H201.866V64.872C201.866 64.256 201.822 63.8087 201.734 63.53C201.661 63.2513 201.551 63.0753 201.404 63.002C201.257 62.914 201.096 62.87 200.92 62.87C200.641 62.87 200.377 63.002 200.128 63.266C199.893 63.5153 199.695 63.8307 199.534 64.212C199.387 64.5933 199.314 64.9747 199.314 65.356V72H197.84V65.004C197.84 64.168 197.759 63.6107 197.598 63.332C197.451 63.0533 197.165 62.914 196.74 62.914C196.579 62.914 196.41 62.9727 196.234 63.09C196.073 63.1927 195.919 63.3467 195.772 63.552C195.625 63.7427 195.508 63.9847 195.42 64.278C195.332 64.5713 195.288 64.9087 195.288 65.29V72H193.836ZM206.706 72.924L205.408 72.286L212.294 57.37L213.614 58.052L206.706 72.924ZM222.854 67.996H217.882L218.19 66.808H222.502L222.854 67.996ZM220.478 61.572L216.87 72H215.352L220.412 58.052H220.588L225.648 72H224.064L220.478 61.572ZM228.794 75.828C228.325 75.828 227.892 75.7547 227.496 75.608C227.115 75.4613 226.777 75.2487 226.484 74.97L227.166 73.892L227.298 73.694L227.43 73.782C227.459 73.8993 227.511 73.9947 227.584 74.068C227.657 74.156 227.797 74.266 228.002 74.398C228.134 74.442 228.273 74.4713 228.42 74.486C228.567 74.5153 228.721 74.53 228.882 74.53C229.278 74.53 229.608 74.4347 229.872 74.244C230.151 74.0533 230.393 73.76 230.598 73.364C230.803 72.968 231.001 72.4693 231.192 71.868L233.106 65.95C233.326 65.2753 233.539 64.608 233.744 63.948C233.949 63.288 234.089 62.6207 234.162 61.946H235.746C235.643 62.6207 235.482 63.3027 235.262 63.992C235.042 64.6813 234.807 65.3707 234.558 66.06L232.05 73.144C231.698 74.1267 231.243 74.816 230.686 75.212C230.143 75.6227 229.513 75.828 228.794 75.828ZM227.012 61.946H228.662L231.918 70.328L231.214 72.286L227.012 61.946ZM241.862 72.242C241.466 72.242 241.092 72.1833 240.74 72.066C240.388 71.9487 240.065 71.7727 239.772 71.538C239.493 71.2887 239.251 70.9807 239.046 70.614C238.841 70.2473 238.679 69.8073 238.562 69.294C238.459 68.7807 238.408 68.2013 238.408 67.556L238.43 61.946H239.97V67.556C239.97 68.1867 240.029 68.722 240.146 69.162C240.263 69.602 240.425 69.954 240.63 70.218C240.85 70.482 241.099 70.6727 241.378 70.79C241.657 70.9073 241.95 70.966 242.258 70.966C242.61 70.966 242.947 70.9 243.27 70.768C243.593 70.6213 243.879 70.4087 244.128 70.13C244.392 69.8513 244.597 69.492 244.744 69.052C244.891 68.612 244.964 68.0913 244.964 67.49V61.946H246.504V70.438C246.504 70.702 246.511 70.966 246.526 71.23C246.555 71.4793 246.621 71.736 246.724 72H245.206C245.133 71.824 245.081 71.6553 245.052 71.494C245.023 71.318 245.001 71.142 244.986 70.966C244.986 70.79 244.986 70.6213 244.986 70.46C244.825 70.7387 244.634 70.988 244.414 71.208C244.194 71.428 243.945 71.6187 243.666 71.78C243.402 71.9267 243.116 72.0367 242.808 72.11C242.515 72.198 242.199 72.242 241.862 72.242ZM253.522 72.22C252.965 72.22 252.429 72.1613 251.916 72.044C251.417 71.9267 250.941 71.7507 250.486 71.516C250.046 71.2813 249.635 70.988 249.254 70.636L250.134 69.14L250.266 68.942L250.398 69.03C250.427 69.1473 250.457 69.272 250.486 69.404C250.53 69.5213 250.633 69.668 250.794 69.844C251.102 70.152 251.469 70.4087 251.894 70.614C252.334 70.8047 252.891 70.9 253.566 70.9C254.109 70.9 254.563 70.834 254.93 70.702C255.311 70.57 255.605 70.3867 255.81 70.152C256.015 69.9027 256.118 69.6167 256.118 69.294C256.118 69.074 256.074 68.8833 255.986 68.722C255.898 68.546 255.751 68.3847 255.546 68.238C255.355 68.0913 255.099 67.9447 254.776 67.798C254.453 67.6513 254.057 67.5047 253.588 67.358C252.825 67.138 252.158 66.8813 251.586 66.588C251.014 66.2947 250.574 65.9573 250.266 65.576C249.958 65.18 249.804 64.7327 249.804 64.234C249.804 63.7207 249.943 63.2807 250.222 62.914C250.501 62.5327 250.911 62.2393 251.454 62.034C252.011 61.814 252.693 61.704 253.5 61.704C253.969 61.704 254.395 61.7407 254.776 61.814C255.157 61.8727 255.509 61.968 255.832 62.1C256.155 62.232 256.448 62.4007 256.712 62.606C256.991 62.7967 257.255 63.024 257.504 63.288L256.602 64.388L256.448 64.564L256.338 64.454C256.323 64.3367 256.287 64.2267 256.228 64.124C256.184 64.0067 256.081 63.8673 255.92 63.706C255.583 63.442 255.201 63.244 254.776 63.112C254.351 62.9653 253.94 62.892 253.544 62.892C252.957 62.892 252.451 62.9947 252.026 63.2C251.601 63.4053 251.388 63.7207 251.388 64.146C251.388 64.366 251.461 64.586 251.608 64.806C251.769 65.0113 252.055 65.224 252.466 65.444C252.877 65.6493 253.463 65.862 254.226 66.082C255.062 66.346 255.729 66.6173 256.228 66.896C256.741 67.16 257.108 67.468 257.328 67.82C257.563 68.172 257.68 68.59 257.68 69.074C257.68 69.6313 257.526 70.152 257.218 70.636C256.925 71.12 256.47 71.5087 255.854 71.802C255.238 72.0807 254.461 72.22 253.522 72.22ZM260.606 57.37H262.124H262.344V57.524C262.256 57.612 262.197 57.7073 262.168 57.81C262.153 57.9127 262.146 58.0887 262.146 58.338V63.728C262.41 63.3173 262.718 62.9653 263.07 62.672C263.437 62.364 263.818 62.1293 264.214 61.968C264.625 61.792 265.035 61.704 265.446 61.704C266.047 61.704 266.575 61.8433 267.03 62.122C267.499 62.4007 267.859 62.848 268.108 63.464C268.372 64.08 268.504 64.894 268.504 65.906V72H266.964V65.95C266.964 65.246 266.883 64.6887 266.722 64.278C266.561 63.8527 266.341 63.552 266.062 63.376C265.783 63.1853 265.468 63.09 265.116 63.09C264.852 63.09 264.581 63.134 264.302 63.222C264.023 63.31 263.752 63.442 263.488 63.618C263.239 63.794 263.011 64.014 262.806 64.278C262.601 64.5273 262.439 64.8133 262.322 65.136C262.205 65.4587 262.146 65.818 262.146 66.214V72H260.606V57.37ZM275.434 72.22C274.539 72.22 273.733 72.0733 273.014 71.78C272.31 71.4867 271.687 71.054 271.144 70.482L271.936 69.096L272.024 68.898L272.178 68.986C272.207 69.0887 272.244 69.206 272.288 69.338C272.332 69.4553 272.435 69.602 272.596 69.778C272.977 70.1007 273.417 70.3573 273.916 70.548C274.429 70.7387 275.009 70.834 275.654 70.834C276.065 70.834 276.439 70.7753 276.776 70.658C277.128 70.526 277.429 70.3573 277.678 70.152C277.942 69.932 278.14 69.6827 278.272 69.404C278.419 69.1107 278.492 68.8027 278.492 68.48C278.492 68.2307 278.463 68.0033 278.404 67.798C278.36 67.5927 278.265 67.4093 278.118 67.248C277.986 67.072 277.803 66.9033 277.568 66.742C277.333 66.566 277.033 66.3827 276.666 66.192C276.299 66.0013 275.859 65.796 275.346 65.576C274.393 65.2093 273.637 64.8133 273.08 64.388C272.537 63.948 272.149 63.486 271.914 63.002C271.694 62.518 271.584 62.0193 271.584 61.506C271.584 60.8313 271.753 60.2447 272.09 59.746C272.427 59.2327 272.904 58.8367 273.52 58.558C274.151 58.2647 274.899 58.118 275.764 58.118C276.263 58.118 276.739 58.1913 277.194 58.338C277.663 58.47 278.096 58.6607 278.492 58.91C278.903 59.1593 279.262 59.4673 279.57 59.834L278.712 60.978L278.58 61.154L278.448 61.066C278.433 60.9487 278.404 60.8313 278.36 60.714C278.316 60.5967 278.213 60.45 278.052 60.274C277.7 59.9367 277.326 59.7093 276.93 59.592C276.534 59.46 276.065 59.394 275.522 59.394C275.155 59.394 274.825 59.4453 274.532 59.548C274.253 59.6507 274.011 59.7973 273.806 59.988C273.601 60.1787 273.439 60.3987 273.322 60.648C273.219 60.8827 273.168 61.132 273.168 61.396C273.168 61.6453 273.197 61.8727 273.256 62.078C273.315 62.2833 273.417 62.4813 273.564 62.672C273.711 62.8627 273.909 63.0533 274.158 63.244C274.422 63.4347 274.745 63.6253 275.126 63.816C275.522 64.0067 275.999 64.212 276.556 64.432C277.231 64.7107 277.788 64.9893 278.228 65.268C278.683 65.532 279.035 65.818 279.284 66.126C279.548 66.4193 279.731 66.742 279.834 67.094C279.951 67.446 280.01 67.8347 280.01 68.26C280.01 68.8907 279.849 69.514 279.526 70.13C279.218 70.7313 278.727 71.23 278.052 71.626C277.377 72.022 276.505 72.22 275.434 72.22ZM283.2 72V70.724H285.774V63.222H283.332V61.946H287.358V70.724H289.712V72H283.2ZM286.478 59.834C286.17 59.834 285.906 59.724 285.686 59.504C285.466 59.284 285.356 59.02 285.356 58.712C285.356 58.3893 285.459 58.118 285.664 57.898C285.884 57.678 286.155 57.568 286.478 57.568C286.786 57.568 287.05 57.6853 287.27 57.92C287.505 58.14 287.622 58.404 287.622 58.712C287.622 59.02 287.505 59.284 287.27 59.504C287.05 59.724 286.786 59.834 286.478 59.834ZM293.584 72V61.946H295.124V63.728C295.388 63.3173 295.696 62.9653 296.048 62.672C296.4 62.364 296.789 62.1293 297.214 61.968C297.639 61.792 298.079 61.704 298.534 61.704C299.091 61.704 299.59 61.8433 300.03 62.122C300.47 62.4007 300.822 62.848 301.086 63.464C301.35 64.08 301.482 64.894 301.482 65.906V72H299.942V65.95C299.942 65.246 299.861 64.6887 299.7 64.278C299.539 63.8527 299.319 63.552 299.04 63.376C298.761 63.1853 298.446 63.09 298.094 63.09C297.757 63.09 297.412 63.1633 297.06 63.31C296.723 63.4567 296.407 63.6693 296.114 63.948C295.821 64.212 295.579 64.5347 295.388 64.916C295.212 65.2973 295.124 65.73 295.124 66.214V72H293.584ZM308.434 75.784C307.73 75.784 307.092 75.7253 306.52 75.608C305.963 75.5053 305.479 75.344 305.068 75.124C304.672 74.9187 304.364 74.6547 304.144 74.332C303.939 74.0093 303.836 73.628 303.836 73.188C303.836 72.7773 303.924 72.4107 304.1 72.088C304.276 71.7653 304.503 71.5013 304.782 71.296C305.075 71.076 305.391 70.9147 305.728 70.812L306.388 71.208C306.124 71.3693 305.911 71.5307 305.75 71.692C305.589 71.8533 305.471 72.0367 305.398 72.242C305.325 72.462 305.288 72.7187 305.288 73.012C305.288 73.2613 305.361 73.4813 305.508 73.672C305.655 73.8773 305.86 74.046 306.124 74.178C306.403 74.31 306.733 74.4127 307.114 74.486C307.51 74.5593 307.957 74.596 308.456 74.596C309.131 74.596 309.673 74.5227 310.084 74.376C310.509 74.244 310.825 74.0533 311.03 73.804C311.235 73.5693 311.338 73.298 311.338 72.99C311.338 72.6673 311.279 72.4033 311.162 72.198C311.045 71.9927 310.803 71.8387 310.436 71.736C310.069 71.6333 309.512 71.582 308.764 71.582C308.251 71.582 307.781 71.56 307.356 71.516C306.931 71.472 306.549 71.3987 306.212 71.296C305.875 71.1933 305.589 71.0687 305.354 70.922C305.134 70.7607 304.965 70.57 304.848 70.35C304.731 70.13 304.672 69.8733 304.672 69.58C304.672 69.1987 304.775 68.832 304.98 68.48C305.2 68.128 305.493 67.7907 305.86 67.468L306.608 68.062C306.461 68.2233 306.344 68.37 306.256 68.502C306.168 68.6193 306.102 68.7367 306.058 68.854C306.029 68.9567 306.014 69.074 306.014 69.206C306.014 69.4407 306.102 69.6313 306.278 69.778C306.469 69.9247 306.791 70.0347 307.246 70.108C307.701 70.1667 308.317 70.196 309.094 70.196C309.871 70.196 310.502 70.262 310.986 70.394C311.47 70.5113 311.837 70.6873 312.086 70.922C312.35 71.1567 312.533 71.428 312.636 71.736C312.739 72.044 312.79 72.3813 312.79 72.748C312.79 73.144 312.709 73.518 312.548 73.87C312.401 74.2367 312.159 74.5593 311.822 74.838C311.485 75.1313 311.037 75.3587 310.48 75.52C309.923 75.696 309.241 75.784 308.434 75.784ZM307.972 68.59C307.253 68.59 306.63 68.436 306.102 68.128C305.574 67.8053 305.163 67.38 304.87 66.852C304.591 66.3093 304.452 65.7153 304.452 65.07C304.452 64.4247 304.591 63.838 304.87 63.31C305.163 62.782 305.574 62.364 306.102 62.056C306.63 61.7333 307.253 61.572 307.972 61.572C308.705 61.572 309.329 61.7333 309.842 62.056C310.37 62.364 310.773 62.782 311.052 63.31C311.345 63.838 311.492 64.4247 311.492 65.07C311.492 65.7153 311.345 66.3093 311.052 66.852C310.773 67.38 310.37 67.8053 309.842 68.128C309.329 68.436 308.705 68.59 307.972 68.59ZM307.972 67.27C308.397 67.27 308.771 67.1747 309.094 66.984C309.431 66.7787 309.695 66.5073 309.886 66.17C310.077 65.8327 310.172 65.466 310.172 65.07C310.172 64.6593 310.077 64.2927 309.886 63.97C309.695 63.6327 309.431 63.3687 309.094 63.178C308.771 62.9727 308.397 62.87 307.972 62.87C307.547 62.87 307.165 62.9727 306.828 63.178C306.505 63.3687 306.249 63.6327 306.058 63.97C305.867 64.2927 305.772 64.6593 305.772 65.07C305.772 65.466 305.867 65.8327 306.058 66.17C306.249 66.5073 306.505 66.7787 306.828 66.984C307.165 67.1747 307.547 67.27 307.972 67.27ZM310.898 63.574L310.282 62.848C310.707 62.4227 311.147 62.1147 311.602 61.924C312.071 61.7187 312.621 61.638 313.252 61.682L313.45 62.98C312.966 62.936 312.511 62.9507 312.086 63.024C311.661 63.0973 311.265 63.2807 310.898 63.574ZM315.606 57.37H317.124H317.344V57.524C317.256 57.612 317.197 57.7073 317.168 57.81C317.153 57.9127 317.146 58.0887 317.146 58.338V63.728C317.41 63.3173 317.718 62.9653 318.07 62.672C318.437 62.364 318.818 62.1293 319.214 61.968C319.625 61.792 320.035 61.704 320.446 61.704C321.047 61.704 321.575 61.8433 322.03 62.122C322.499 62.4007 322.859 62.848 323.108 63.464C323.372 64.08 323.504 64.894 323.504 65.906V72H321.964V65.95C321.964 65.246 321.883 64.6887 321.722 64.278C321.561 63.8527 321.341 63.552 321.062 63.376C320.783 63.1853 320.468 63.09 320.116 63.09C319.852 63.09 319.581 63.134 319.302 63.222C319.023 63.31 318.752 63.442 318.488 63.618C318.239 63.794 318.011 64.014 317.806 64.278C317.601 64.5273 317.439 64.8133 317.322 65.136C317.205 65.4587 317.146 65.818 317.146 66.214V72H315.606V57.37ZM327.354 68.612L333.228 61.066L333.734 62.1L327.86 69.558L327.354 68.612ZM330.5 72.242C329.591 72.242 328.821 71.9707 328.19 71.428C327.559 70.8853 327.075 70.0933 326.738 69.052C326.415 67.996 326.254 66.72 326.254 65.224C326.254 63.772 326.415 62.5253 326.738 61.484C327.075 60.428 327.559 59.6213 328.19 59.064C328.821 58.492 329.591 58.206 330.5 58.206C331.409 58.206 332.179 58.492 332.81 59.064C333.441 59.6213 333.917 60.428 334.24 61.484C334.577 62.5253 334.746 63.772 334.746 65.224C334.746 66.72 334.577 67.996 334.24 69.052C333.917 70.0933 333.441 70.8853 332.81 71.428C332.179 71.9707 331.409 72.242 330.5 72.242ZM330.5 70.9C331.057 70.9 331.534 70.68 331.93 70.24C332.326 69.8 332.627 69.162 332.832 68.326C333.052 67.4753 333.162 66.4413 333.162 65.224C333.162 64.0653 333.052 63.068 332.832 62.232C332.627 61.3813 332.326 60.7213 331.93 60.252C331.534 59.7827 331.057 59.548 330.5 59.548C329.943 59.548 329.466 59.7827 329.07 60.252C328.674 60.7213 328.366 61.3813 328.146 62.232C327.941 63.068 327.838 64.0653 327.838 65.224C327.838 66.4413 327.941 67.4753 328.146 68.326C328.366 69.162 328.674 69.8 329.07 70.24C329.466 70.68 329.943 70.9 330.5 70.9ZM342.996 72V68.634H337.056V67.512L343.326 58.272H344.624V67.358H346.384V68.656H344.624V72H342.996ZM338.838 67.336H342.996V61.044L338.838 67.336ZM349.354 68.612L355.228 61.066L355.734 62.1L349.86 69.558L349.354 68.612ZM352.5 72.242C351.591 72.242 350.821 71.9707 350.19 71.428C349.559 70.8853 349.075 70.0933 348.738 69.052C348.415 67.996 348.254 66.72 348.254 65.224C348.254 63.772 348.415 62.5253 348.738 61.484C349.075 60.428 349.559 59.6213 350.19 59.064C350.821 58.492 351.591 58.206 352.5 58.206C353.409 58.206 354.179 58.492 354.81 59.064C355.441 59.6213 355.917 60.428 356.24 61.484C356.577 62.5253 356.746 63.772 356.746 65.224C356.746 66.72 356.577 67.996 356.24 69.052C355.917 70.0933 355.441 70.8853 354.81 71.428C354.179 71.9707 353.409 72.242 352.5 72.242ZM352.5 70.9C353.057 70.9 353.534 70.68 353.93 70.24C354.326 69.8 354.627 69.162 354.832 68.326C355.052 67.4753 355.162 66.4413 355.162 65.224C355.162 64.0653 355.052 63.068 354.832 62.232C354.627 61.3813 354.326 60.7213 353.93 60.252C353.534 59.7827 353.057 59.548 352.5 59.548C351.943 59.548 351.466 59.7827 351.07 60.252C350.674 60.7213 350.366 61.3813 350.146 62.232C349.941 63.068 349.838 64.0653 349.838 65.224C349.838 66.4413 349.941 67.4753 350.146 68.326C350.366 69.162 350.674 69.8 351.07 70.24C351.466 70.68 351.943 70.9 352.5 70.9ZM361.41 72C361.835 70.592 362.268 69.2133 362.708 67.864C363.163 66.5 363.625 65.1433 364.094 63.794C364.578 62.4447 365.077 61.0953 365.59 59.746H359.738V58.294H367.504V59.152C367.093 60.208 366.69 61.264 366.294 62.32C365.898 63.376 365.517 64.4393 365.15 65.51C364.783 66.5807 364.431 67.6587 364.094 68.744C363.771 69.8147 363.456 70.9 363.148 72H361.41ZM371.706 72.924L370.408 72.286L377.294 57.37L378.614 58.052L371.706 72.924Z" fill="white"/>
<defs>
<clipPath id="clip0_85_835">
<rect width="39" height="39" fill="white" transform="translate(236 240)"/>
</clipPath>
</defs>
</svg>
