<svg width="137" height="22" viewBox="0 0 137 22" fill="none" xmlns="http://www.w3.org/2000/svg">
<path d="M0.24 20.7C1.47 20.7 2.31 19.53 2.31 17.61V3.39C2.31 1.47 1.47 0.299998 0.24 0.299998H0.21V-1.43051e-06H7.2C16.08 -1.43051e-06 17.7 2.61 17.7 5.07C17.7 7.2 15.12 9.18 11.46 9.18C15.54 9.18 19.2 12.24 19.2 15.06C19.2 18.15 16.32 21 7.44 21H0.21V20.7H0.24ZM5.16 20.73H7.23C13.74 20.73 15.99 17.34 15.99 14.34C15.99 12.06 14.04 9.36 11.1 9.36H7.05V9.09H10.38C12.84 9.09 14.61 6.78 14.61 4.59C14.61 2.25 13.35 0.299998 7.17 0.269999H5.16V20.73ZM25.3877 14.46L24.2777 16.95C24.0677 17.37 23.9777 17.76 23.9777 18.06C23.9777 19.08 24.3677 20.7 25.8677 20.7H26.0177V21H19.9277V20.7C21.3377 20.7 23.0477 18.93 23.5877 17.76L25.1177 14.46H22.9877V14.19H25.2377L30.7577 2.07L29.8577 -1.43051e-06H32.9477L41.1377 18.81C41.4677 19.56 42.5177 20.7 43.3877 20.7V21H36.8777V20.7H36.9677C37.7177 20.7 37.9877 20.31 37.9877 19.77C37.9877 19.35 37.8677 18.87 37.6577 18.42L30.8477 2.34L25.5077 14.19H33.7277V14.46H25.3877ZM45.1638 20.7C46.4238 20.7 47.2338 19.53 47.2338 17.61V3.39C47.2338 1.47 46.4238 0.299998 45.1638 0.299998V-1.43051e-06H52.1538V0.299998C50.8938 0.299998 50.0838 1.47 50.0838 3.39V20.73H56.1438C58.8738 20.73 61.0938 16.38 61.6338 13.62H61.8138L60.7638 21H45.1638V20.7ZM65.3025 19.74C65.3025 18.75 65.9625 18.06 66.8625 18.06C67.8225 18.06 68.4525 18.75 68.4525 19.74C68.4525 20.73 67.8225 21.39 66.8625 21.39C65.9625 21.39 65.3025 20.73 65.3025 19.74ZM79.4836 -1.43051e-06C87.5536 -1.43051e-06 91.6036 5.25 91.6036 10.5C91.6036 15.75 87.5536 21 79.4836 21H71.9236V20.7C73.1836 20.7 73.9936 19.53 73.9936 17.61V3.39C73.9936 1.47 73.1836 0.299998 71.9236 0.299998V-1.43051e-06H79.4836ZM76.8436 20.73H79.4236C85.5136 20.73 88.5736 15.6 88.5736 10.56C88.5736 5.46 85.4836 0.269999 79.3936 0.269999H76.8436V20.73ZM110.958 13.62H111.138L110.088 21H94.488V20.7C95.748 20.7 96.558 19.53 96.558 17.61V3.39C96.558 1.47 95.748 0.299998 94.488 0.299998V-1.43051e-06H109.308L110.328 4.65H110.148C109.308 1.98 107.808 0.269999 105.048 0.269999H99.408V20.73H105.468C108.198 20.73 110.418 16.38 110.958 13.62ZM104.838 12.24V13.77H104.658V12.24C104.658 11.04 103.938 10.26 102.858 10.26H102.678V10.08H102.858C103.938 10.08 104.658 9.27 104.658 8.1V6.57H104.838V8.1C104.838 9.27 105.558 10.08 106.638 10.08H106.968V10.26H106.638C105.558 10.26 104.838 11.04 104.838 12.24ZM118.647 2.58L125.427 18.66L132.027 4.05C132.207 3.63 132.297 3.24 132.297 2.91C132.297 1.89 131.907 0.269999 130.407 0.269999H130.287V-1.43051e-06H136.347V0.269999C134.967 0.269999 133.227 2.07 132.717 3.21L125.547 18.9L126.417 21H123.357L115.167 2.16C114.807 1.41 113.787 0.239999 112.887 0.239999V-1.43051e-06H119.427V0.269999H119.337C118.557 0.269999 118.287 0.689999 118.287 1.23C118.287 1.62 118.437 2.1 118.647 2.58Z" fill="white"/>
<path d="M0.21 0.299998H-0.79V1.3H0.21V0.299998ZM0.21 -1.43051e-06V-1H-0.79V-1.43051e-06H0.21ZM0.21 21H-0.79V22H0.21V21ZM0.21 20.7V19.7H-0.79V20.7H0.21ZM5.16 20.73H4.16V21.73H5.16V20.73ZM7.05 9.36H6.05V10.36H7.05V9.36ZM7.05 9.09V8.09H6.05V9.09H7.05ZM7.17 0.269999L7.17485 -0.730001H7.17V0.269999ZM5.16 0.269999V-0.730001H4.16V0.269999H5.16ZM0.24 21.7C1.2162 21.7 2.03 21.2178 2.56199 20.4391C3.07352 19.6902 3.31 18.7005 3.31 17.61H1.31C1.31 18.4395 1.12648 18.9948 0.910515 19.3109C0.715005 19.5972 0.493799 19.7 0.24 19.7V21.7ZM3.31 17.61V3.39H1.31V17.61H3.31ZM3.31 3.39C3.31 2.29949 3.07352 1.30979 2.56199 0.560941C2.03 -0.217849 1.2162 -0.700002 0.24 -0.700002V1.3C0.493798 1.3 0.715005 1.40285 0.910515 1.68906C1.12648 2.00521 1.31 2.56051 1.31 3.39H3.31ZM0.24 -0.700002H0.21V1.3H0.24V-0.700002ZM1.21 0.299998V-1.43051e-06H-0.79V0.299998H1.21ZM0.21 0.999999H7.2V-1H0.21V0.999999ZM7.2 0.999999C11.5819 0.999999 13.9731 1.6514 15.2447 2.45719C15.8608 2.84757 16.2085 3.27033 16.4109 3.68151C16.6168 4.09991 16.7 4.56382 16.7 5.07H18.7C18.7 4.34618 18.5808 3.56134 18.2054 2.79849C17.8265 2.02842 17.2142 1.33743 16.3153 0.767806C14.5569 -0.346403 11.6981 -1 7.2 -1V0.999999ZM16.7 5.07C16.7 5.70922 16.3077 6.46328 15.3843 7.10085C14.4716 7.73104 13.1166 8.18 11.46 8.18V10.18C13.4634 10.18 15.2284 9.63896 16.5207 8.74665C17.8023 7.86172 18.7 6.56078 18.7 5.07H16.7ZM11.46 10.18C13.2571 10.18 14.9783 10.8576 16.2429 11.8494C17.5327 12.8608 18.2 14.071 18.2 15.06H20.2C20.2 13.229 19.0373 11.4992 17.4771 10.2756C15.8917 9.03235 13.7429 8.18 11.46 8.18V10.18ZM18.2 15.06C18.2 16.235 17.6807 17.4035 16.1352 18.3314C14.5292 19.2957 11.8 20 7.44 20V22C11.96 22 15.1108 21.2793 17.1648 20.0461C19.2793 18.7765 20.2 16.975 20.2 15.06H18.2ZM7.44 20H0.21V22H7.44V20ZM1.21 21V20.7H-0.79V21H1.21ZM0.21 21.7H0.24V19.7H0.21V21.7ZM5.16 21.73H7.23V19.73H5.16V21.73ZM7.23 21.73C10.6538 21.73 13.1063 20.837 14.7154 19.4076C16.3291 17.9742 16.99 16.0923 16.99 14.34H14.99C14.99 15.5877 14.5259 16.9008 13.3871 17.9124C12.2437 18.928 10.3162 19.73 7.23 19.73V21.73ZM16.99 14.34C16.99 11.6198 14.698 8.36 11.1 8.36V10.36C13.382 10.36 14.99 12.5002 14.99 14.34H16.99ZM11.1 8.36H7.05V10.36H11.1V8.36ZM8.05 9.36V9.09H6.05V9.36H8.05ZM7.05 10.09H10.38V8.09H7.05V10.09ZM10.38 10.09C13.5075 10.09 15.61 7.20953 15.61 4.59H13.61C13.61 6.35047 12.1725 8.09 10.38 8.09V10.09ZM15.61 4.59C15.61 3.22133 15.2262 1.786 13.7922 0.75248C12.4465 -0.217348 10.3261 -0.714693 7.17485 -0.72999L7.16515 1.26999C10.1939 1.28469 11.7935 1.77735 12.6228 2.37502C13.3638 2.909 13.61 3.61867 13.61 4.59H15.61ZM7.17 -0.730001H5.16V1.27H7.17V-0.730001ZM4.16 0.269999V20.73H6.16V0.269999H4.16ZM25.3877 14.46V13.46H24.7387L24.4744 14.0528L25.3877 14.46ZM24.2777 16.95L25.1722 17.3972L25.1821 17.3774L25.1911 17.3572L24.2777 16.95ZM26.0177 20.7H27.0177V19.7H26.0177V20.7ZM26.0177 21V22H27.0177V21H26.0177ZM19.9277 21H18.9277V22H19.9277V21ZM19.9277 20.7V19.7H18.9277V20.7H19.9277ZM23.5877 17.76L22.6805 17.3394L22.6798 17.3409L23.5877 17.76ZM25.1177 14.46L26.025 14.8806L26.6836 13.46H25.1177V14.46ZM22.9877 14.46H21.9877V15.46H22.9877V14.46ZM22.9877 14.19V13.19H21.9877V14.19H22.9877ZM25.2377 14.19V15.19H25.8811L26.1478 14.6045L25.2377 14.19ZM30.7577 2.07L31.6678 2.48448L31.8523 2.07944L31.6748 1.67127L30.7577 2.07ZM29.8577 -1.43051e-06V-1H28.3325L28.9407 0.398725L29.8577 -1.43051e-06ZM32.9477 -1.43051e-06L33.8646 -0.399209L33.603 -1H32.9477V-1.43051e-06ZM41.1377 18.81L40.2209 19.2092L40.2224 19.2127L41.1377 18.81ZM43.3877 20.7H44.3877V19.7H43.3877V20.7ZM43.3877 21V22H44.3877V21H43.3877ZM36.8777 21H35.8777V22H36.8777V21ZM36.8777 20.7V19.7H35.8777V20.7H36.8777ZM37.6577 18.42L36.7369 18.81L36.7439 18.8266L36.7516 18.8429L37.6577 18.42ZM30.8477 2.34L31.7686 1.95002L30.8762 -0.157115L29.936 1.92915L30.8477 2.34ZM25.5077 14.19L24.596 13.7792L23.9603 15.19H25.5077V14.19ZM33.7277 14.19H34.7277V13.19H33.7277V14.19ZM33.7277 14.46V15.46H34.7277V14.46H33.7277ZM24.4744 14.0528L23.3644 16.5428L25.1911 17.3572L26.3011 14.8672L24.4744 14.0528ZM23.3833 16.5028C23.1184 17.0327 22.9777 17.5753 22.9777 18.06H24.9777C24.9777 17.9447 25.0171 17.7073 25.1722 17.3972L23.3833 16.5028ZM22.9777 18.06C22.9777 18.6668 23.0892 19.5068 23.4786 20.2344C23.8945 21.0115 24.6658 21.7 25.8677 21.7V19.7C25.5696 19.7 25.396 19.5785 25.2419 19.2906C25.0613 18.9532 24.9777 18.4732 24.9777 18.06H22.9777ZM25.8677 21.7H26.0177V19.7H25.8677V21.7ZM25.0177 20.7V21H27.0177V20.7H25.0177ZM26.0177 20H19.9277V22H26.0177V20ZM20.9277 21V20.7H18.9277V21H20.9277ZM19.9277 21.7C21.004 21.7 22.0179 21.0569 22.7434 20.4205C23.4964 19.7601 24.1552 18.9167 24.4957 18.1791L22.6798 17.3409C22.4802 17.7733 22.0141 18.3999 21.4246 18.917C20.8076 19.4581 20.2615 19.7 19.9277 19.7V21.7ZM24.495 18.1806L26.025 14.8806L24.2105 14.0394L22.6805 17.3394L24.495 18.1806ZM25.1177 13.46H22.9877V15.46H25.1177V13.46ZM23.9877 14.46V14.19H21.9877V14.46H23.9877ZM22.9877 15.19H25.2377V13.19H22.9877V15.19ZM26.1478 14.6045L31.6678 2.48448L29.8477 1.65552L24.3277 13.7755L26.1478 14.6045ZM31.6748 1.67127L30.7748 -0.398728L28.9407 0.398725L29.8407 2.46872L31.6748 1.67127ZM29.8577 0.999999H32.9477V-1H29.8577V0.999999ZM32.0309 0.399206L40.2209 19.2092L42.0546 18.4108L33.8646 -0.399209L32.0309 0.399206ZM40.2224 19.2127C40.4535 19.7378 40.8903 20.3196 41.3839 20.7728C41.8462 21.1973 42.5654 21.7 43.3877 21.7V19.7C43.3878 19.7 43.3706 19.6999 43.3332 19.6891C43.2956 19.6782 43.2444 19.6584 43.1803 19.6247C43.0494 19.556 42.8964 19.4464 42.7366 19.2997C42.4052 18.9954 42.152 18.6322 42.053 18.4073L40.2224 19.2127ZM42.3877 20.7V21H44.3877V20.7H42.3877ZM43.3877 20H36.8777V22H43.3877V20ZM37.8777 21V20.7H35.8777V21H37.8777ZM36.8777 21.7H36.9677V19.7H36.8777V21.7ZM36.9677 21.7C37.5073 21.7 38.0624 21.5578 38.4742 21.1364C38.8815 20.7197 38.9877 20.1936 38.9877 19.77H36.9877C36.9877 19.8245 36.9806 19.8407 36.984 19.8305C36.986 19.8244 36.991 19.8113 37.0012 19.7939C37.0117 19.7761 37.0258 19.7569 37.0438 19.7386C37.0618 19.7202 37.0798 19.7064 37.0951 19.697C37.1101 19.6877 37.119 19.6847 37.1182 19.685C37.1147 19.6862 37.0712 19.7 36.9677 19.7V21.7ZM38.9877 19.77C38.9877 19.1743 38.8219 18.5499 38.5639 17.9971L36.7516 18.8429C36.9136 19.1901 36.9877 19.5257 36.9877 19.77H38.9877ZM38.5786 18.03L31.7686 1.95002L29.9269 2.72998L36.7369 18.81L38.5786 18.03ZM29.936 1.92915L24.596 13.7792L26.4194 14.6008L31.7594 2.75084L29.936 1.92915ZM25.5077 15.19H33.7277V13.19H25.5077V15.19ZM32.7277 14.19V14.46H34.7277V14.19H32.7277ZM33.7277 13.46H25.3877V15.46H33.7277V13.46ZM45.1638 20.7V19.7H44.1638V20.7H45.1638ZM45.1638 0.299998H44.1638V1.3H45.1638V0.299998ZM45.1638 -1.43051e-06V-1H44.1638V-1.43051e-06H45.1638ZM52.1538 -1.43051e-06H53.1538V-1H52.1538V-1.43051e-06ZM52.1538 0.299998V1.3H53.1538V0.299998H52.1538ZM50.0838 20.73H49.0838V21.73H50.0838V20.73ZM61.6338 13.62V12.62H60.8105L60.6524 13.428L61.6338 13.62ZM61.8138 13.62L62.8039 13.7609L62.9662 12.62H61.8138V13.62ZM60.7638 21V22H61.6316L61.7539 21.1409L60.7638 21ZM45.1638 21H44.1638V22H45.1638V21ZM45.1638 21.7C46.1498 21.7 46.9676 21.2222 47.4998 20.4351C48.0078 19.6837 48.2338 18.6934 48.2338 17.61H46.2338C46.2338 18.4466 46.0549 19.0013 45.8429 19.3149C45.655 19.5928 45.4378 19.7 45.1638 19.7V21.7ZM48.2338 17.61V3.39H46.2338V17.61H48.2338ZM48.2338 3.39C48.2338 2.30659 48.0078 1.31633 47.4998 0.564925C46.9676 -0.222224 46.1498 -0.700002 45.1638 -0.700002V1.3C45.4378 1.3 45.655 1.40722 45.8429 1.68507C46.0549 1.99867 46.2338 2.55341 46.2338 3.39H48.2338ZM46.1638 0.299998V-1.43051e-06H44.1638V0.299998H46.1638ZM45.1638 0.999999H52.1538V-1H45.1638V0.999999ZM51.1538 -1.43051e-06V0.299998H53.1538V-1.43051e-06H51.1538ZM52.1538 -0.700002C51.1678 -0.700002 50.35 -0.222224 49.8179 0.564925C49.3099 1.31633 49.0838 2.30659 49.0838 3.39H51.0838C51.0838 2.55341 51.2628 1.99867 51.4748 1.68507C51.6626 1.40722 51.8798 1.3 52.1538 1.3V-0.700002ZM49.0838 3.39V20.73H51.0838V3.39H49.0838ZM50.0838 21.73H56.1438V19.73H50.0838V21.73ZM56.1438 21.73C58.0407 21.73 59.5392 20.2554 60.5398 18.7682C61.5804 17.2214 62.3204 15.3187 62.6152 13.812L60.6524 13.428C60.4072 14.6813 59.7672 16.3336 58.8804 17.6518C57.9534 19.0296 56.9769 19.73 56.1438 19.73V21.73ZM61.6338 14.62H61.8138V12.62H61.6338V14.62ZM60.8238 13.4791L59.7738 20.8591L61.7539 21.1409L62.8039 13.7609L60.8238 13.4791ZM60.7638 20H45.1638V22H60.7638V20ZM46.1638 21V20.7H44.1638V21H46.1638ZM66.3025 19.74C66.3025 19.2397 66.5754 19.06 66.8625 19.06V17.06C65.3496 17.06 64.3025 18.2603 64.3025 19.74H66.3025ZM66.8625 19.06C67.0916 19.06 67.2161 19.136 67.2877 19.2124C67.3652 19.2951 67.4525 19.4574 67.4525 19.74H69.4525C69.4525 19.0326 69.2248 18.3549 68.7473 17.8451C68.2639 17.329 67.5934 17.06 66.8625 17.06V19.06ZM67.4525 19.74C67.4525 20.0212 67.3663 20.1707 67.2965 20.2433C67.2304 20.3121 67.1052 20.39 66.8625 20.39V22.39C67.5798 22.39 68.2496 22.1379 68.7385 21.6292C69.2237 21.1243 69.4525 20.4488 69.4525 19.74H67.4525ZM66.8625 20.39C66.6653 20.39 66.542 20.3224 66.466 20.2433C66.3885 20.1627 66.3025 20.0087 66.3025 19.74H64.3025C64.3025 20.4613 64.5465 21.1323 65.024 21.6292C65.503 22.1276 66.1597 22.39 66.8625 22.39V20.39ZM71.9236 21H70.9236V22H71.9236V21ZM71.9236 20.7V19.7H70.9236V20.7H71.9236ZM71.9236 0.299998H70.9236V1.3H71.9236V0.299998ZM71.9236 -1.43051e-06V-1H70.9236V-1.43051e-06H71.9236ZM76.8436 20.73H75.8436V21.73H76.8436V20.73ZM76.8436 0.269999V-0.730001H75.8436V0.269999H76.8436ZM79.4836 0.999999C83.2931 0.999999 86.0613 2.23385 87.8721 3.9976C89.6906 5.76884 90.6036 8.13119 90.6036 10.5H92.6036C92.6036 7.6188 91.4916 4.73116 89.2676 2.5649C87.0359 0.391147 83.7441 -1 79.4836 -1V0.999999ZM90.6036 10.5C90.6036 12.8688 89.6906 15.2312 87.8721 17.0024C86.0613 18.7661 83.2931 20 79.4836 20V22C83.7441 22 87.0359 20.6089 89.2676 18.4351C91.4916 16.2688 92.6036 13.3812 92.6036 10.5H90.6036ZM79.4836 20H71.9236V22H79.4836V20ZM72.9236 21V20.7H70.9236V21H72.9236ZM71.9236 21.7C72.9096 21.7 73.7274 21.2222 74.2595 20.4351C74.7675 19.6837 74.9936 18.6934 74.9936 17.61H72.9936C72.9936 18.4466 72.8147 19.0013 72.6027 19.3149C72.4148 19.5928 72.1976 19.7 71.9236 19.7V21.7ZM74.9936 17.61V3.39H72.9936V17.61H74.9936ZM74.9936 3.39C74.9936 2.30659 74.7675 1.31633 74.2595 0.564925C73.7274 -0.222224 72.9096 -0.700002 71.9236 -0.700002V1.3C72.1976 1.3 72.4148 1.40722 72.6027 1.68507C72.8147 1.99867 72.9936 2.55341 72.9936 3.39H74.9936ZM72.9236 0.299998V-1.43051e-06H70.9236V0.299998H72.9236ZM71.9236 0.999999H79.4836V-1H71.9236V0.999999ZM76.8436 21.73H79.4236V19.73H76.8436V21.73ZM79.4236 21.73C82.7825 21.73 85.3541 20.3013 87.064 18.1588C88.7537 16.0414 89.5736 13.2685 89.5736 10.56H87.5736C87.5736 12.8915 86.8635 15.2036 85.5007 16.9112C84.1581 18.5937 82.1547 19.73 79.4236 19.73V21.73ZM89.5736 10.56C89.5736 7.82207 88.7466 5.02043 87.051 2.88133C85.3356 0.717105 82.7566 -0.730001 79.3936 -0.730001V1.27C82.1206 1.27 84.1316 2.41789 85.4837 4.12367C86.8556 5.85456 87.5736 8.19793 87.5736 10.56H89.5736ZM79.3936 -0.730001H76.8436V1.27H79.3936V-0.730001ZM75.8436 0.269999V20.73H77.8436V0.269999H75.8436ZM110.958 13.62V12.62H110.135L109.977 13.428L110.958 13.62ZM111.138 13.62L112.128 13.7609L112.29 12.62H111.138V13.62ZM110.088 21V22H110.956L111.078 21.1409L110.088 21ZM94.488 21H93.488V22H94.488V21ZM94.488 20.7V19.7H93.488V20.7H94.488ZM94.488 0.299998H93.488V1.3H94.488V0.299998ZM94.488 -1.43051e-06V-1H93.488V-1.43051e-06H94.488ZM109.308 -1.43051e-06L110.285 -0.214262L110.112 -1H109.308V-1.43051e-06ZM110.328 4.65V5.65H111.571L111.305 4.43574L110.328 4.65ZM110.148 4.65L109.194 4.9501L109.414 5.65H110.148V4.65ZM99.408 0.269999V-0.730001H98.408V0.269999H99.408ZM99.408 20.73H98.408V21.73H99.408V20.73ZM104.838 13.77V14.77H105.838V13.77H104.838ZM104.658 13.77H103.658V14.77H104.658V13.77ZM102.678 10.26H101.678V11.26H102.678V10.26ZM102.678 10.08V9.08H101.678V10.08H102.678ZM104.658 6.57V5.57H103.658V6.57H104.658ZM104.838 6.57H105.838V5.57H104.838V6.57ZM106.968 10.08H107.968V9.08H106.968V10.08ZM106.968 10.26V11.26H107.968V10.26H106.968ZM110.958 14.62H111.138V12.62H110.958V14.62ZM110.148 13.4791L109.098 20.8591L111.078 21.1409L112.128 13.7609L110.148 13.4791ZM110.088 20H94.488V22H110.088V20ZM95.488 21V20.7H93.488V21H95.488ZM94.488 21.7C95.474 21.7 96.2918 21.2222 96.824 20.4351C97.332 19.6837 97.558 18.6934 97.558 17.61H95.558C95.558 18.4466 95.3791 19.0013 95.1671 19.3149C94.9793 19.5928 94.762 19.7 94.488 19.7V21.7ZM97.558 17.61V3.39H95.558V17.61H97.558ZM97.558 3.39C97.558 2.30659 97.332 1.31633 96.824 0.564925C96.2918 -0.222224 95.474 -0.700002 94.488 -0.700002V1.3C94.762 1.3 94.9793 1.40722 95.1671 1.68507C95.3791 1.99867 95.558 2.55341 95.558 3.39H97.558ZM95.488 0.299998V-1.43051e-06H93.488V0.299998H95.488ZM94.488 0.999999H109.308V-1H94.488V0.999999ZM108.331 0.214259L109.351 4.86426L111.305 4.43574L110.285 -0.214262L108.331 0.214259ZM110.328 3.65H110.148V5.65H110.328V3.65ZM111.102 4.34989C110.653 2.9236 109.997 1.64741 108.996 0.723818C107.97 -0.22284 106.656 -0.730001 105.048 -0.730001V1.27C106.2 1.27 107.016 1.61784 107.64 2.19368C108.289 2.79259 108.803 3.7064 109.194 4.9501L111.102 4.34989ZM105.048 -0.730001H99.408V1.27H105.048V-0.730001ZM98.408 0.269999V20.73H100.408V0.269999H98.408ZM99.408 21.73H105.468V19.73H99.408V21.73ZM105.468 21.73C107.365 21.73 108.863 20.2554 109.864 18.7682C110.905 17.2214 111.645 15.3187 111.939 13.812L109.977 13.428C109.731 14.6813 109.091 16.3336 108.205 17.6518C107.278 19.0296 106.301 19.73 105.468 19.73V21.73ZM103.838 12.24V13.77H105.838V12.24H103.838ZM104.838 12.77H104.658V14.77H104.838V12.77ZM105.658 13.77V12.24H103.658V13.77H105.658ZM105.658 12.24C105.658 11.4418 105.416 10.6897 104.902 10.1257C104.379 9.55342 103.651 9.26 102.858 9.26V11.26C103.145 11.26 103.317 11.3566 103.425 11.4743C103.54 11.6003 103.658 11.8382 103.658 12.24H105.658ZM102.858 9.26H102.678V11.26H102.858V9.26ZM103.678 10.26V10.08H101.678V10.26H103.678ZM102.678 11.08H102.858V9.08H102.678V11.08ZM102.858 11.08C103.663 11.08 104.389 10.771 104.905 10.199C105.414 9.63609 105.658 8.88838 105.658 8.1H103.658C103.658 8.48162 103.542 8.7239 103.421 8.85846C103.308 8.98402 103.134 9.08 102.858 9.08V11.08ZM105.658 8.1V6.57H103.658V8.1H105.658ZM104.658 7.57H104.838V5.57H104.658V7.57ZM103.838 6.57V8.1H105.838V6.57H103.838ZM103.838 8.1C103.838 8.88838 104.082 9.63609 104.591 10.199C105.108 10.771 105.834 11.08 106.638 11.08V9.08C106.363 9.08 106.189 8.98402 106.075 8.85846C105.954 8.7239 105.838 8.48162 105.838 8.1H103.838ZM106.638 11.08H106.968V9.08H106.638V11.08ZM105.968 10.08V10.26H107.968V10.08H105.968ZM106.968 9.26H106.638V11.26H106.968V9.26ZM106.638 9.26C105.845 9.26 105.117 9.55342 104.595 10.1257C104.08 10.6897 103.838 11.4418 103.838 12.24H105.838C105.838 11.8382 105.956 11.6003 106.072 11.4743C106.179 11.3566 106.351 11.26 106.638 11.26V9.26ZM118.647 2.58L119.568 2.19145L119.563 2.17918L118.647 2.58ZM125.427 18.66L124.505 19.0485L125.395 21.159L126.338 19.0717L125.427 18.66ZM132.027 4.05L132.938 4.46169L132.942 4.45284L132.946 4.44392L132.027 4.05ZM130.287 0.269999H129.287V1.27H130.287V0.269999ZM130.287 -1.43051e-06V-1H129.287V-1.43051e-06H130.287ZM136.347 -1.43051e-06H137.347V-1H136.347V-1.43051e-06ZM136.347 0.269999V1.27H137.347V0.269999H136.347ZM132.717 3.21L133.626 3.62565L133.63 3.61836L132.717 3.21ZM125.547 18.9L124.637 18.4844L124.456 18.8804L124.623 19.2827L125.547 18.9ZM126.417 21V22H127.913L127.341 20.6173L126.417 21ZM123.357 21L122.44 21.3987L122.701 22H123.357V21ZM115.167 2.16L116.084 1.76133L116.076 1.74415L116.068 1.72727L115.167 2.16ZM112.887 0.239999H111.887V1.24H112.887V0.239999ZM112.887 -1.43051e-06V-1H111.887V-1.43051e-06H112.887ZM119.427 -1.43051e-06H120.427V-1H119.427V-1.43051e-06ZM119.427 0.269999V1.27H120.427V0.269999H119.427ZM117.725 2.96852L124.505 19.0485L126.348 18.2715L119.568 2.19148L117.725 2.96852ZM126.338 19.0717L132.938 4.46169L131.115 3.63831L124.515 18.2483L126.338 19.0717ZM132.946 4.44392C133.163 3.93777 133.297 3.41169 133.297 2.91H131.297C131.297 3.06831 131.251 3.32222 131.108 3.65608L132.946 4.44392ZM133.297 2.91C133.297 2.30318 133.185 1.46316 132.796 0.735622C132.38 -0.0415318 131.609 -0.730001 130.407 -0.730001V1.27C130.705 1.27 130.878 1.39153 131.033 1.67938C131.213 2.01683 131.297 2.49682 131.297 2.91H133.297ZM130.407 -0.730001H130.287V1.27H130.407V-0.730001ZM131.287 0.269999V-1.43051e-06H129.287V0.269999H131.287ZM130.287 0.999999H136.347V-1H130.287V0.999999ZM135.347 -1.43051e-06V0.269999H137.347V-1.43051e-06H135.347ZM136.347 -0.730001C135.279 -0.730001 134.262 -0.0714475 133.544 0.562783C132.796 1.22314 132.132 2.06884 131.804 2.80163L133.63 3.61836C133.812 3.21115 134.273 2.58686 134.867 2.06221C135.491 1.51144 136.035 1.27 136.347 1.27V-0.730001ZM131.807 2.79436L124.637 18.4844L126.456 19.3156L133.626 3.62563L131.807 2.79436ZM124.623 19.2827L125.493 21.3827L127.341 20.6173L126.471 18.5173L124.623 19.2827ZM126.417 20H123.357V22H126.417V20ZM124.274 20.6013L116.084 1.76133L114.25 2.55867L122.44 21.3987L124.274 20.6013ZM116.068 1.72727C115.83 1.23159 115.408 0.65269 114.913 0.188798C114.45 -0.244194 113.729 -0.760001 112.887 -0.760001V1.24C112.944 1.24 113.183 1.30919 113.546 1.6487C113.875 1.95731 114.143 2.33841 114.265 2.59273L116.068 1.72727ZM113.887 0.239999V-1.43051e-06H111.887V0.239999H113.887ZM112.887 0.999999H119.427V-1H112.887V0.999999ZM118.427 -1.43051e-06V0.269999H120.427V-1.43051e-06H118.427ZM119.427 -0.730001H119.337V1.27H119.427V-0.730001ZM119.337 -0.730001C118.773 -0.730001 118.209 -0.574933 117.797 -0.143724C117.392 0.278727 117.287 0.806982 117.287 1.23H119.287C119.287 1.17565 119.294 1.15608 119.292 1.16145C119.291 1.16501 119.287 1.17547 119.279 1.19022C119.27 1.20529 119.258 1.2222 119.242 1.23872C119.226 1.25532 119.21 1.26784 119.196 1.27646C119.183 1.28492 119.175 1.2874 119.177 1.28669C119.183 1.28475 119.229 1.27 119.337 1.27V-0.730001ZM117.287 1.23C117.287 1.83324 117.507 2.46904 117.731 2.98082L119.563 2.17918C119.367 1.73095 119.287 1.40676 119.287 1.23H117.287Z" fill="white"/>
</svg>
