<svg width="900" height="108" viewBox="0 0 900 108" fill="none" xmlns="http://www.w3.org/2000/svg">
<path d="M385.161 49V12.6364H392.849V42.6612H408.438V49H385.161ZM425.71 49.5327C422.952 49.5327 420.567 48.9467 418.555 47.7749C416.554 46.5911 415.009 44.9458 413.92 42.8388C412.831 40.7199 412.287 38.2637 412.287 35.4702C412.287 32.6529 412.831 30.1908 413.92 28.0838C415.009 25.965 416.554 24.3196 418.555 23.1477C420.567 21.964 422.952 21.3722 425.71 21.3722C428.468 21.3722 430.847 21.964 432.848 23.1477C434.86 24.3196 436.411 25.965 437.5 28.0838C438.589 30.1908 439.133 32.6529 439.133 35.4702C439.133 38.2637 438.589 40.7199 437.5 42.8388C436.411 44.9458 434.86 46.5911 432.848 47.7749C430.847 48.9467 428.468 49.5327 425.71 49.5327ZM425.746 43.6733C427 43.6733 428.048 43.3182 428.888 42.608C429.729 41.8859 430.362 40.9034 430.788 39.6605C431.226 38.4176 431.445 37.0031 431.445 35.4169C431.445 33.8307 431.226 32.4162 430.788 31.1733C430.362 29.9304 429.729 28.9479 428.888 28.2259C428.048 27.5038 427 27.1428 425.746 27.1428C424.479 27.1428 423.414 27.5038 422.55 28.2259C421.697 28.9479 421.052 29.9304 420.614 31.1733C420.188 32.4162 419.975 33.8307 419.975 35.4169C419.975 37.0031 420.188 38.4176 420.614 39.6605C421.052 40.9034 421.697 41.8859 422.55 42.608C423.414 43.3182 424.479 43.6733 425.746 43.6733ZM456.339 59.7955C453.888 59.7955 451.787 59.4581 450.035 58.7834C448.295 58.1205 446.91 57.215 445.881 56.0668C444.851 54.9186 444.182 53.6283 443.874 52.196L450.87 51.255C451.083 51.7995 451.42 52.3085 451.882 52.782C452.344 53.2554 452.953 53.6342 453.711 53.9183C454.48 54.2143 455.415 54.3622 456.516 54.3622C458.162 54.3622 459.517 53.9598 460.582 53.1548C461.659 52.3617 462.198 51.0301 462.198 49.1598V44.1705H461.878C461.547 44.928 461.05 45.6442 460.387 46.3189C459.724 46.9936 458.872 47.544 457.83 47.9702C456.788 48.3963 455.546 48.6094 454.101 48.6094C452.054 48.6094 450.189 48.1359 448.508 47.1889C446.839 46.2301 445.508 44.7682 444.513 42.8033C443.531 40.8265 443.04 38.3288 443.04 35.3104C443.04 32.2209 443.543 29.6404 444.549 27.5689C445.555 25.4974 446.893 23.9467 448.562 22.9169C450.242 21.8871 452.083 21.3722 454.084 21.3722C455.611 21.3722 456.889 21.6326 457.919 22.1534C458.949 22.6624 459.777 23.3016 460.405 24.071C461.044 24.8286 461.535 25.5743 461.878 26.3082H462.162V21.7273H469.673V49.2663C469.673 51.5864 469.105 53.5277 467.969 55.0902C466.832 56.6527 465.258 57.8246 463.246 58.6058C461.245 59.3989 458.943 59.7955 456.339 59.7955ZM456.498 42.9276C457.718 42.9276 458.747 42.6257 459.588 42.022C460.44 41.4065 461.091 40.5305 461.541 39.3942C462.003 38.246 462.233 36.8729 462.233 35.2749C462.233 33.6768 462.009 32.2919 461.559 31.12C461.109 29.9363 460.458 29.0189 459.606 28.3679C458.753 27.7169 457.718 27.3913 456.498 27.3913C455.256 27.3913 454.208 27.7287 453.356 28.4034C452.503 29.0663 451.858 29.9896 451.42 31.1733C450.982 32.357 450.763 33.7242 450.763 35.2749C450.763 36.8492 450.982 38.2105 451.42 39.3587C451.87 40.495 452.515 41.3769 453.356 42.0043C454.208 42.6198 455.256 42.9276 456.498 42.9276ZM475.692 49V21.7273H483.256V49H475.692ZM479.492 18.2116C478.367 18.2116 477.403 17.8388 476.598 17.093C475.805 16.3355 475.408 15.4299 475.408 14.3764C475.408 13.3348 475.805 12.4411 476.598 11.6953C477.403 10.9377 478.367 10.5589 479.492 10.5589C480.617 10.5589 481.575 10.9377 482.368 11.6953C483.173 12.4411 483.576 13.3348 483.576 14.3764C483.576 15.4299 483.173 16.3355 482.368 17.093C481.575 17.8388 480.617 18.2116 479.492 18.2116ZM496.879 33.233V49H489.315V21.7273H496.524V26.5391H496.844C497.447 24.9529 498.46 23.6982 499.88 22.7749C501.3 21.8397 503.023 21.3722 505.047 21.3722C506.941 21.3722 508.592 21.7865 510.001 22.6151C511.409 23.4437 512.504 24.6274 513.286 26.1662C514.067 27.6932 514.457 29.5161 514.457 31.6349V49H506.893V32.9844C506.905 31.3153 506.479 30.0133 505.615 29.0781C504.751 28.1312 503.561 27.6577 502.046 27.6577C501.028 27.6577 500.129 27.8767 499.347 28.3146C498.578 28.7526 497.974 29.3918 497.536 30.2322C497.11 31.0608 496.891 32.0611 496.879 33.233Z" fill="white"/>
<path d="M8.55 102.33C7.55 102.33 6.63 102.15 5.79 101.79C4.95 101.43 4.22 100.93 3.6 100.29C3 99.65 2.53 98.9 2.19 98.04C1.85 97.16 1.68 96.2 1.68 95.16C1.68 94.14 1.85 93.2 2.19 92.34C2.53 91.46 3 90.7 3.6 90.06C4.22 89.42 4.95 88.92 5.79 88.56C6.63 88.2 7.54 88.02 8.52 88.02C9.64 88.02 10.64 88.25 11.52 88.71C12.42 89.15 13.15 89.77 13.71 90.57L12.36 91.89L12.15 92.1L12 91.95C12 91.79 11.96 91.64 11.88 91.5C11.82 91.36 11.67 91.17 11.43 90.93C10.99 90.53 10.52 90.25 10.02 90.09C9.52 89.93 8.94 89.85 8.28 89.85C7.7 89.85 7.15 89.97 6.63 90.21C6.11 90.45 5.64 90.8 5.22 91.26C4.82 91.7 4.5 92.24 4.26 92.88C4.02 93.52 3.9 94.23 3.9 95.01C3.9 95.79 4.02 96.51 4.26 97.17C4.5 97.81 4.83 98.37 5.25 98.85C5.67 99.33 6.17 99.71 6.75 99.99C7.35 100.25 7.99 100.38 8.67 100.38C9.13 100.38 9.57 100.32 9.99 100.2C10.41 100.06 10.81 99.87 11.19 99.63C11.57 99.37 11.92 99.06 12.24 98.7L13.5 100.17C12.82 100.89 12.06 101.43 11.22 101.79C10.4 102.15 9.51 102.33 8.55 102.33ZM18.57 88.29H20.82L20.73 92.28L20.46 91.83C20.58 91.21 20.79 90.66 21.09 90.18C21.39 89.7 21.75 89.3 22.17 88.98C22.59 88.64 23.05 88.39 23.55 88.23C24.05 88.05 24.57 87.96 25.11 87.96C25.83 87.96 26.49 88.09 27.09 88.35C27.71 88.59 28.26 88.96 28.74 89.46L27.78 91.14L27.66 91.41L27.45 91.29C27.41 91.13 27.35 90.98 27.27 90.84C27.19 90.7 27.02 90.53 26.76 90.33C26.44 90.13 26.14 90 25.86 89.94C25.6 89.86 25.3 89.82 24.96 89.82C24.46 89.82 23.96 89.92 23.46 90.12C22.96 90.3 22.5 90.59 22.08 90.99C21.68 91.39 21.36 91.9 21.12 92.52C20.88 93.14 20.76 93.88 20.76 94.74V102.03H18.57V88.29ZM38.16 102.3C37.16 102.3 36.25 102.15 35.43 101.85C34.61 101.53 33.9 101.07 33.3 100.47C32.72 99.87 32.27 99.13 31.95 98.25C31.63 97.35 31.47 96.33 31.47 95.19C31.47 94.03 31.63 93 31.95 92.1C32.29 91.2 32.74 90.45 33.3 89.85C33.88 89.23 34.55 88.76 35.31 88.44C36.09 88.12 36.91 87.96 37.77 87.96C38.55 87.96 39.28 88.09 39.96 88.35C40.64 88.61 41.23 89.01 41.73 89.55C42.23 90.07 42.62 90.74 42.9 91.56C43.2 92.38 43.35 93.35 43.35 94.47C43.35 94.63 43.34 94.8 43.32 94.98C43.32 95.14 43.31 95.3 43.29 95.46H33.54C33.58 96.34 33.73 97.11 33.99 97.77C34.25 98.41 34.59 98.94 35.01 99.36C35.43 99.76 35.91 100.06 36.45 100.26C37.01 100.46 37.6 100.56 38.22 100.56C38.7 100.56 39.15 100.51 39.57 100.41C39.99 100.29 40.38 100.12 40.74 99.9C41.12 99.66 41.46 99.37 41.76 99.03L42.96 100.2C42.58 100.66 42.14 101.05 41.64 101.37C41.16 101.69 40.63 101.92 40.05 102.06C39.47 102.22 38.84 102.3 38.16 102.3ZM33.63 93.78H41.16C41.16 93.14 41.07 92.57 40.89 92.07C40.73 91.55 40.49 91.11 40.17 90.75C39.87 90.37 39.5 90.09 39.06 89.91C38.64 89.71 38.16 89.61 37.62 89.61C37.14 89.61 36.68 89.69 36.24 89.85C35.82 90.01 35.43 90.27 35.07 90.63C34.71 90.97 34.4 91.4 34.14 91.92C33.9 92.44 33.73 93.06 33.63 93.78ZM51.33 102.33C49.77 102.33 48.57 101.98 47.73 101.28C46.89 100.56 46.47 99.65 46.47 98.55C46.47 97.81 46.65 97.15 47.01 96.57C47.37 95.97 47.86 95.47 48.48 95.07C49.12 94.65 49.86 94.33 50.7 94.11C51.54 93.89 52.43 93.78 53.37 93.78C53.71 93.78 54.05 93.79 54.39 93.81C54.75 93.81 55.12 93.83 55.5 93.87C55.9 93.89 56.31 93.93 56.73 93.99L56.79 95.64C56.43 95.58 56.06 95.54 55.68 95.52C55.32 95.48 54.96 95.45 54.6 95.43C54.24 95.41 53.89 95.4 53.55 95.4C52.83 95.4 52.17 95.46 51.57 95.58C50.97 95.7 50.45 95.88 50.01 96.12C49.57 96.36 49.23 96.67 48.99 97.05C48.75 97.43 48.63 97.89 48.63 98.43C48.63 98.85 48.7 99.21 48.84 99.51C49 99.79 49.21 100.02 49.47 100.2C49.73 100.36 50.03 100.48 50.37 100.56C50.73 100.64 51.12 100.68 51.54 100.68C52.32 100.68 53.01 100.56 53.61 100.32C54.23 100.06 54.75 99.69 55.17 99.21C55.61 98.73 55.94 98.14 56.16 97.44C56.38 96.74 56.49 95.94 56.49 95.04C56.49 93.68 56.33 92.62 56.01 91.86C55.69 91.1 55.21 90.56 54.57 90.24C53.95 89.92 53.15 89.76 52.17 89.76C51.51 89.76 50.86 89.89 50.22 90.15C49.58 90.39 49 90.77 48.48 91.29L47.43 89.91C48.07 89.27 48.81 88.79 49.65 88.47C50.49 88.15 51.38 87.99 52.32 87.99C53.22 87.99 54.04 88.1 54.78 88.32C55.52 88.54 56.15 88.91 56.67 89.43C57.21 89.93 57.62 90.61 57.9 91.47C58.2 92.33 58.35 93.41 58.35 94.71V102H56.01V99.9C55.75 100.4 55.43 100.81 55.05 101.13C54.69 101.45 54.3 101.7 53.88 101.88C53.46 102.04 53.03 102.15 52.59 102.21C52.15 102.29 51.73 102.33 51.33 102.33ZM68.97 102.21C68.09 102.21 67.37 102.06 66.81 101.76C66.25 101.46 65.82 101 65.52 100.38C65.22 99.74 65.02 98.94 64.92 97.98C64.84 97.02 64.82 95.88 64.86 94.56L65.22 84.78L67.47 84.51L67.77 84.48L67.8 84.69C67.7 84.83 67.61 84.97 67.53 85.11C67.47 85.25 67.42 85.49 67.38 85.83L67.11 89.22L67.2 89.76L66.99 94.71C66.93 96.23 66.97 97.41 67.11 98.25C67.25 99.07 67.5 99.64 67.86 99.96C68.22 100.26 68.7 100.41 69.3 100.41C69.96 100.41 70.54 100.28 71.04 100.02C71.56 99.76 72.1 99.43 72.66 99.03L73.32 100.74C72.64 101.24 71.94 101.61 71.22 101.85C70.5 102.09 69.75 102.21 68.97 102.21ZM62.1 88.29H71.97V90.06H62.1V88.29ZM83.16 102.3C82.16 102.3 81.25 102.15 80.43 101.85C79.61 101.53 78.9 101.07 78.3 100.47C77.72 99.87 77.27 99.13 76.95 98.25C76.63 97.35 76.47 96.33 76.47 95.19C76.47 94.03 76.63 93 76.95 92.1C77.29 91.2 77.74 90.45 78.3 89.85C78.88 89.23 79.55 88.76 80.31 88.44C81.09 88.12 81.91 87.96 82.77 87.96C83.55 87.96 84.28 88.09 84.96 88.35C85.64 88.61 86.23 89.01 86.73 89.55C87.23 90.07 87.62 90.74 87.9 91.56C88.2 92.38 88.35 93.35 88.35 94.47C88.35 94.63 88.34 94.8 88.32 94.98C88.32 95.14 88.31 95.3 88.29 95.46H78.54C78.58 96.34 78.73 97.11 78.99 97.77C79.25 98.41 79.59 98.94 80.01 99.36C80.43 99.76 80.91 100.06 81.45 100.26C82.01 100.46 82.6 100.56 83.22 100.56C83.7 100.56 84.15 100.51 84.57 100.41C84.99 100.29 85.38 100.12 85.74 99.9C86.12 99.66 86.46 99.37 86.76 99.03L87.96 100.2C87.58 100.66 87.14 101.05 86.64 101.37C86.16 101.69 85.63 101.92 85.05 102.06C84.47 102.22 83.84 102.3 83.16 102.3ZM78.63 93.78H86.16C86.16 93.14 86.07 92.57 85.89 92.07C85.73 91.55 85.49 91.11 85.17 90.75C84.87 90.37 84.5 90.09 84.06 89.91C83.64 89.71 83.16 89.61 82.62 89.61C82.14 89.61 81.68 89.69 81.24 89.85C80.82 90.01 80.43 90.27 80.07 90.63C79.71 90.97 79.4 91.4 79.14 91.92C78.9 92.44 78.73 93.06 78.63 93.78ZM112.98 102.33C112.42 102.33 111.89 102.24 111.39 102.06C110.89 101.9 110.43 101.66 110.01 101.34C109.61 101.02 109.25 100.64 108.93 100.2L108.18 102H106.8V82.05H108.96H109.26V82.26C109.14 82.38 109.06 82.51 109.02 82.65C109 82.79 108.99 83.03 108.99 83.37V90.39C109.21 90.03 109.47 89.7 109.77 89.4C110.07 89.1 110.4 88.84 110.76 88.62C111.12 88.4 111.5 88.24 111.9 88.14C112.3 88.02 112.69 87.96 113.07 87.96C113.91 87.96 114.67 88.11 115.35 88.41C116.05 88.69 116.65 89.13 117.15 89.73C117.65 90.31 118.03 91.04 118.29 91.92C118.57 92.8 118.71 93.83 118.71 95.01C118.71 96.23 118.55 97.3 118.23 98.22C117.91 99.14 117.47 99.91 116.91 100.53C116.37 101.13 115.76 101.58 115.08 101.88C114.4 102.18 113.7 102.33 112.98 102.33ZM112.71 100.41C113.19 100.41 113.65 100.32 114.09 100.14C114.55 99.96 114.96 99.67 115.32 99.27C115.68 98.85 115.96 98.3 116.16 97.62C116.38 96.94 116.49 96.11 116.49 95.13C116.49 94.23 116.4 93.45 116.22 92.79C116.04 92.11 115.78 91.55 115.44 91.11C115.12 90.67 114.73 90.35 114.27 90.15C113.81 89.93 113.31 89.82 112.77 89.82C112.03 89.82 111.37 90.05 110.79 90.51C110.23 90.95 109.79 91.58 109.47 92.4C109.15 93.2 108.99 94.13 108.99 95.19C108.99 95.97 109.06 96.68 109.2 97.32C109.34 97.96 109.55 98.51 109.83 98.97C110.13 99.43 110.51 99.79 110.97 100.05C111.45 100.29 112.03 100.41 112.71 100.41ZM122.37 102V100.26H126.42V83.79H122.55V82.05H128.61V100.26H132.63V102H122.37ZM142.5 102.24C141.26 102.24 140.16 101.94 139.2 101.34C138.26 100.72 137.52 99.88 136.98 98.82C136.44 97.74 136.17 96.51 136.17 95.13C136.17 93.73 136.44 92.5 136.98 91.44C137.52 90.36 138.26 89.52 139.2 88.92C140.16 88.3 141.26 87.99 142.5 87.99C143.74 87.99 144.83 88.3 145.77 88.92C146.73 89.52 147.48 90.36 148.02 91.44C148.56 92.5 148.83 93.73 148.83 95.13C148.83 96.51 148.56 97.74 148.02 98.82C147.48 99.88 146.73 100.72 145.77 101.34C144.83 101.94 143.74 102.24 142.5 102.24ZM142.5 100.44C143.3 100.44 144 100.21 144.6 99.75C145.2 99.29 145.67 98.66 146.01 97.86C146.37 97.06 146.55 96.14 146.55 95.1C146.55 94.06 146.37 93.14 146.01 92.34C145.67 91.54 145.2 90.92 144.6 90.48C144 90.02 143.3 89.79 142.5 89.79C141.72 89.79 141.02 90.02 140.4 90.48C139.8 90.92 139.32 91.54 138.96 92.34C138.62 93.14 138.45 94.06 138.45 95.1C138.45 96.14 138.62 97.06 138.96 97.86C139.32 98.66 139.8 99.29 140.4 99.75C141.02 100.21 141.72 100.44 142.5 100.44ZM158.55 102.33C157.55 102.33 156.63 102.15 155.79 101.79C154.95 101.43 154.22 100.93 153.6 100.29C153 99.65 152.53 98.9 152.19 98.04C151.85 97.16 151.68 96.2 151.68 95.16C151.68 94.14 151.85 93.2 152.19 92.34C152.53 91.46 153 90.7 153.6 90.06C154.22 89.42 154.95 88.92 155.79 88.56C156.63 88.2 157.54 88.02 158.52 88.02C159.64 88.02 160.64 88.25 161.52 88.71C162.42 89.15 163.15 89.77 163.71 90.57L162.36 91.89L162.15 92.1L162 91.95C162 91.79 161.96 91.64 161.88 91.5C161.82 91.36 161.67 91.17 161.43 90.93C160.99 90.53 160.52 90.25 160.02 90.09C159.52 89.93 158.94 89.85 158.28 89.85C157.7 89.85 157.15 89.97 156.63 90.21C156.11 90.45 155.64 90.8 155.22 91.26C154.82 91.7 154.5 92.24 154.26 92.88C154.02 93.52 153.9 94.23 153.9 95.01C153.9 95.79 154.02 96.51 154.26 97.17C154.5 97.81 154.83 98.37 155.25 98.85C155.67 99.33 156.17 99.71 156.75 99.99C157.35 100.25 157.99 100.38 158.67 100.38C159.13 100.38 159.57 100.32 159.99 100.2C160.41 100.06 160.81 99.87 161.19 99.63C161.57 99.37 161.92 99.06 162.24 98.7L163.5 100.17C162.82 100.89 162.06 101.43 161.22 101.79C160.4 102.15 159.51 102.33 158.55 102.33ZM170.97 95.13L169.17 96.81V102H166.98V82.05H169.14H169.44V82.26C169.32 82.38 169.24 82.51 169.2 82.65C169.18 82.79 169.17 83.03 169.17 83.37V94.59L176.04 88.23C176.16 88.25 176.28 88.27 176.4 88.29C176.52 88.31 176.64 88.33 176.76 88.35C176.9 88.35 177.04 88.36 177.18 88.38C177.34 88.38 177.49 88.38 177.63 88.38H178.41L172.65 93.81L179.37 102L176.58 102.12L170.97 95.13ZM188.55 102.33C187.55 102.33 186.63 102.15 185.79 101.79C184.95 101.43 184.22 100.93 183.6 100.29C183 99.65 182.53 98.9 182.19 98.04C181.85 97.16 181.68 96.2 181.68 95.16C181.68 94.14 181.85 93.2 182.19 92.34C182.53 91.46 183 90.7 183.6 90.06C184.22 89.42 184.95 88.92 185.79 88.56C186.63 88.2 187.54 88.02 188.52 88.02C189.64 88.02 190.64 88.25 191.52 88.71C192.42 89.15 193.15 89.77 193.71 90.57L192.36 91.89L192.15 92.1L192 91.95C192 91.79 191.96 91.64 191.88 91.5C191.82 91.36 191.67 91.17 191.43 90.93C190.99 90.53 190.52 90.25 190.02 90.09C189.52 89.93 188.94 89.85 188.28 89.85C187.7 89.85 187.15 89.97 186.63 90.21C186.11 90.45 185.64 90.8 185.22 91.26C184.82 91.7 184.5 92.24 184.26 92.88C184.02 93.52 183.9 94.23 183.9 95.01C183.9 95.79 184.02 96.51 184.26 97.17C184.5 97.81 184.83 98.37 185.25 98.85C185.67 99.33 186.17 99.71 186.75 99.99C187.35 100.25 187.99 100.38 188.67 100.38C189.13 100.38 189.57 100.32 189.99 100.2C190.41 100.06 190.81 99.87 191.19 99.63C191.57 99.37 191.92 99.06 192.24 98.7L193.5 100.17C192.82 100.89 192.06 101.43 191.22 101.79C190.4 102.15 189.51 102.33 188.55 102.33ZM197.19 82.05H199.26H199.56V82.26C199.44 82.38 199.36 82.51 199.32 82.65C199.3 82.79 199.29 83.03 199.29 83.37V90.72C199.65 90.16 200.07 89.68 200.55 89.28C201.05 88.86 201.57 88.54 202.11 88.32C202.67 88.08 203.23 87.96 203.79 87.96C204.61 87.96 205.33 88.15 205.95 88.53C206.59 88.91 207.08 89.52 207.42 90.36C207.78 91.2 207.96 92.31 207.96 93.69V102H205.86V93.75C205.86 92.79 205.75 92.03 205.53 91.47C205.31 90.89 205.01 90.48 204.63 90.24C204.25 89.98 203.82 89.85 203.34 89.85C202.98 89.85 202.61 89.91 202.23 90.03C201.85 90.15 201.48 90.33 201.12 90.57C200.78 90.81 200.47 91.11 200.19 91.47C199.91 91.81 199.69 92.2 199.53 92.64C199.37 93.08 199.29 93.57 199.29 94.11V102H197.19V82.05ZM216.33 102.33C214.77 102.33 213.57 101.98 212.73 101.28C211.89 100.56 211.47 99.65 211.47 98.55C211.47 97.81 211.65 97.15 212.01 96.57C212.37 95.97 212.86 95.47 213.48 95.07C214.12 94.65 214.86 94.33 215.7 94.11C216.54 93.89 217.43 93.78 218.37 93.78C218.71 93.78 219.05 93.79 219.39 93.81C219.75 93.81 220.12 93.83 220.5 93.87C220.9 93.89 221.31 93.93 221.73 93.99L221.79 95.64C221.43 95.58 221.06 95.54 220.68 95.52C220.32 95.48 219.96 95.45 219.6 95.43C219.24 95.41 218.89 95.4 218.55 95.4C217.83 95.4 217.17 95.46 216.57 95.58C215.97 95.7 215.45 95.88 215.01 96.12C214.57 96.36 214.23 96.67 213.99 97.05C213.75 97.43 213.63 97.89 213.63 98.43C213.63 98.85 213.7 99.21 213.84 99.51C214 99.79 214.21 100.02 214.47 100.2C214.73 100.36 215.03 100.48 215.37 100.56C215.73 100.64 216.12 100.68 216.54 100.68C217.32 100.68 218.01 100.56 218.61 100.32C219.23 100.06 219.75 99.69 220.17 99.21C220.61 98.73 220.94 98.14 221.16 97.44C221.38 96.74 221.49 95.94 221.49 95.04C221.49 93.68 221.33 92.62 221.01 91.86C220.69 91.1 220.21 90.56 219.57 90.24C218.95 89.92 218.15 89.76 217.17 89.76C216.51 89.76 215.86 89.89 215.22 90.15C214.58 90.39 214 90.77 213.48 91.29L212.43 89.91C213.07 89.27 213.81 88.79 214.65 88.47C215.49 88.15 216.38 87.99 217.32 87.99C218.22 87.99 219.04 88.1 219.78 88.32C220.52 88.54 221.15 88.91 221.67 89.43C222.21 89.93 222.62 90.61 222.9 91.47C223.2 92.33 223.35 93.41 223.35 94.71V102H221.01V99.9C220.75 100.4 220.43 100.81 220.05 101.13C219.69 101.45 219.3 101.7 218.88 101.88C218.46 102.04 218.03 102.15 217.59 102.21C217.15 102.29 216.73 102.33 216.33 102.33ZM228 102V100.26H231.51V90.03H228.18V88.29H233.67V100.26H236.88V102H228ZM232.47 85.41C232.05 85.41 231.69 85.26 231.39 84.96C231.09 84.66 230.94 84.3 230.94 83.88C230.94 83.44 231.08 83.07 231.36 82.77C231.66 82.47 232.03 82.32 232.47 82.32C232.89 82.32 233.25 82.48 233.55 82.8C233.87 83.1 234.03 83.46 234.03 83.88C234.03 84.3 233.87 84.66 233.55 84.96C233.25 85.26 232.89 85.41 232.47 85.41ZM242.16 102V88.29H244.26V90.72C244.62 90.16 245.04 89.68 245.52 89.28C246 88.86 246.53 88.54 247.11 88.32C247.69 88.08 248.29 87.96 248.91 87.96C249.67 87.96 250.35 88.15 250.95 88.53C251.55 88.91 252.03 89.52 252.39 90.36C252.75 91.2 252.93 92.31 252.93 93.69V102H250.83V93.75C250.83 92.79 250.72 92.03 250.5 91.47C250.28 90.89 249.98 90.48 249.6 90.24C249.22 89.98 248.79 89.85 248.31 89.85C247.85 89.85 247.38 89.95 246.9 90.15C246.44 90.35 246.01 90.64 245.61 91.02C245.21 91.38 244.88 91.82 244.62 92.34C244.38 92.86 244.26 93.45 244.26 94.11V102H242.16ZM277.53 102.3C276.77 102.3 276.04 102.22 275.34 102.06C274.66 101.9 274.01 101.66 273.39 101.34C272.79 101.02 272.23 100.62 271.71 100.14L272.91 98.1L273.09 97.83L273.27 97.95C273.31 98.11 273.35 98.28 273.39 98.46C273.45 98.62 273.59 98.82 273.81 99.06C274.23 99.48 274.73 99.83 275.31 100.11C275.91 100.37 276.67 100.5 277.59 100.5C278.33 100.5 278.95 100.41 279.45 100.23C279.97 100.05 280.37 99.8 280.65 99.48C280.93 99.14 281.07 98.75 281.07 98.31C281.07 98.01 281.01 97.75 280.89 97.53C280.77 97.29 280.57 97.07 280.29 96.87C280.03 96.67 279.68 96.47 279.24 96.27C278.8 96.07 278.26 95.87 277.62 95.67C276.58 95.37 275.67 95.02 274.89 94.62C274.11 94.22 273.51 93.76 273.09 93.24C272.67 92.7 272.46 92.09 272.46 91.41C272.46 90.71 272.65 90.11 273.03 89.61C273.41 89.09 273.97 88.69 274.71 88.41C275.47 88.11 276.4 87.96 277.5 87.96C278.14 87.96 278.72 88.01 279.24 88.11C279.76 88.19 280.24 88.32 280.68 88.5C281.12 88.68 281.52 88.91 281.88 89.19C282.26 89.45 282.62 89.76 282.96 90.12L281.73 91.62L281.52 91.86L281.37 91.71C281.35 91.55 281.3 91.4 281.22 91.26C281.16 91.1 281.02 90.91 280.8 90.69C280.34 90.33 279.82 90.06 279.24 89.88C278.66 89.68 278.1 89.58 277.56 89.58C276.76 89.58 276.07 89.72 275.49 90C274.91 90.28 274.62 90.71 274.62 91.29C274.62 91.59 274.72 91.89 274.92 92.19C275.14 92.47 275.53 92.76 276.09 93.06C276.65 93.34 277.45 93.63 278.49 93.93C279.63 94.29 280.54 94.66 281.22 95.04C281.92 95.4 282.42 95.82 282.72 96.3C283.04 96.78 283.2 97.35 283.2 98.01C283.2 98.77 282.99 99.48 282.57 100.14C282.17 100.8 281.55 101.33 280.71 101.73C279.87 102.11 278.81 102.3 277.53 102.3ZM293.16 102.3C292.16 102.3 291.25 102.15 290.43 101.85C289.61 101.53 288.9 101.07 288.3 100.47C287.72 99.87 287.27 99.13 286.95 98.25C286.63 97.35 286.47 96.33 286.47 95.19C286.47 94.03 286.63 93 286.95 92.1C287.29 91.2 287.74 90.45 288.3 89.85C288.88 89.23 289.55 88.76 290.31 88.44C291.09 88.12 291.91 87.96 292.77 87.96C293.55 87.96 294.28 88.09 294.96 88.35C295.64 88.61 296.23 89.01 296.73 89.55C297.23 90.07 297.62 90.74 297.9 91.56C298.2 92.38 298.35 93.35 298.35 94.47C298.35 94.63 298.34 94.8 298.32 94.98C298.32 95.14 298.31 95.3 298.29 95.46H288.54C288.58 96.34 288.73 97.11 288.99 97.77C289.25 98.41 289.59 98.94 290.01 99.36C290.43 99.76 290.91 100.06 291.45 100.26C292.01 100.46 292.6 100.56 293.22 100.56C293.7 100.56 294.15 100.51 294.57 100.41C294.99 100.29 295.38 100.12 295.74 99.9C296.12 99.66 296.46 99.37 296.76 99.03L297.96 100.2C297.58 100.66 297.14 101.05 296.64 101.37C296.16 101.69 295.63 101.92 295.05 102.06C294.47 102.22 293.84 102.3 293.16 102.3ZM288.63 93.78H296.16C296.16 93.14 296.07 92.57 295.89 92.07C295.73 91.55 295.49 91.11 295.17 90.75C294.87 90.37 294.5 90.09 294.06 89.91C293.64 89.71 293.16 89.61 292.62 89.61C292.14 89.61 291.68 89.69 291.24 89.85C290.82 90.01 290.43 90.27 290.07 90.63C289.71 90.97 289.4 91.4 289.14 91.92C288.9 92.44 288.73 93.06 288.63 93.78ZM308.55 102.33C307.55 102.33 306.63 102.15 305.79 101.79C304.95 101.43 304.22 100.93 303.6 100.29C303 99.65 302.53 98.9 302.19 98.04C301.85 97.16 301.68 96.2 301.68 95.16C301.68 94.14 301.85 93.2 302.19 92.34C302.53 91.46 303 90.7 303.6 90.06C304.22 89.42 304.95 88.92 305.79 88.56C306.63 88.2 307.54 88.02 308.52 88.02C309.64 88.02 310.64 88.25 311.52 88.71C312.42 89.15 313.15 89.77 313.71 90.57L312.36 91.89L312.15 92.1L312 91.95C312 91.79 311.96 91.64 311.88 91.5C311.82 91.36 311.67 91.17 311.43 90.93C310.99 90.53 310.52 90.25 310.02 90.09C309.52 89.93 308.94 89.85 308.28 89.85C307.7 89.85 307.15 89.97 306.63 90.21C306.11 90.45 305.64 90.8 305.22 91.26C304.82 91.7 304.5 92.24 304.26 92.88C304.02 93.52 303.9 94.23 303.9 95.01C303.9 95.79 304.02 96.51 304.26 97.17C304.5 97.81 304.83 98.37 305.25 98.85C305.67 99.33 306.17 99.71 306.75 99.99C307.35 100.25 307.99 100.38 308.67 100.38C309.13 100.38 309.57 100.32 309.99 100.2C310.41 100.06 310.81 99.87 311.19 99.63C311.57 99.37 311.92 99.06 312.24 98.7L313.5 100.17C312.82 100.89 312.06 101.43 311.22 101.79C310.4 102.15 309.51 102.33 308.55 102.33ZM321.63 102.33C321.09 102.33 320.58 102.25 320.1 102.09C319.62 101.93 319.18 101.69 318.78 101.37C318.4 101.03 318.07 100.61 317.79 100.11C317.51 99.61 317.29 99.01 317.13 98.31C316.99 97.61 316.92 96.82 316.92 95.94L316.95 88.29H319.05V95.94C319.05 96.8 319.13 97.53 319.29 98.13C319.45 98.73 319.67 99.21 319.95 99.57C320.25 99.93 320.59 100.19 320.97 100.35C321.35 100.51 321.75 100.59 322.17 100.59C322.65 100.59 323.11 100.5 323.55 100.32C323.99 100.12 324.38 99.83 324.72 99.45C325.08 99.07 325.36 98.58 325.56 97.98C325.76 97.38 325.86 96.67 325.86 95.85V88.29H327.96V99.87C327.96 100.23 327.97 100.59 327.99 100.95C328.03 101.29 328.12 101.64 328.26 102H326.19C326.09 101.76 326.02 101.53 325.98 101.31C325.94 101.07 325.91 100.83 325.89 100.59C325.89 100.35 325.89 100.12 325.89 99.9C325.67 100.28 325.41 100.62 325.11 100.92C324.81 101.22 324.47 101.48 324.09 101.7C323.73 101.9 323.34 102.05 322.92 102.15C322.52 102.27 322.09 102.33 321.63 102.33ZM333.57 88.29H335.82L335.73 92.28L335.46 91.83C335.58 91.21 335.79 90.66 336.09 90.18C336.39 89.7 336.75 89.3 337.17 88.98C337.59 88.64 338.05 88.39 338.55 88.23C339.05 88.05 339.57 87.96 340.11 87.96C340.83 87.96 341.49 88.09 342.09 88.35C342.71 88.59 343.26 88.96 343.74 89.46L342.78 91.14L342.66 91.41L342.45 91.29C342.41 91.13 342.35 90.98 342.27 90.84C342.19 90.7 342.02 90.53 341.76 90.33C341.44 90.13 341.14 90 340.86 89.94C340.6 89.86 340.3 89.82 339.96 89.82C339.46 89.82 338.96 89.92 338.46 90.12C337.96 90.3 337.5 90.59 337.08 90.99C336.68 91.39 336.36 91.9 336.12 92.52C335.88 93.14 335.76 93.88 335.76 94.74V102.03H333.57V88.29ZM353.16 102.3C352.16 102.3 351.25 102.15 350.43 101.85C349.61 101.53 348.9 101.07 348.3 100.47C347.72 99.87 347.27 99.13 346.95 98.25C346.63 97.35 346.47 96.33 346.47 95.19C346.47 94.03 346.63 93 346.95 92.1C347.29 91.2 347.74 90.45 348.3 89.85C348.88 89.23 349.55 88.76 350.31 88.44C351.09 88.12 351.91 87.96 352.77 87.96C353.55 87.96 354.28 88.09 354.96 88.35C355.64 88.61 356.23 89.01 356.73 89.55C357.23 90.07 357.62 90.74 357.9 91.56C358.2 92.38 358.35 93.35 358.35 94.47C358.35 94.63 358.34 94.8 358.32 94.98C358.32 95.14 358.31 95.3 358.29 95.46H348.54C348.58 96.34 348.73 97.11 348.99 97.77C349.25 98.41 349.59 98.94 350.01 99.36C350.43 99.76 350.91 100.06 351.45 100.26C352.01 100.46 352.6 100.56 353.22 100.56C353.7 100.56 354.15 100.51 354.57 100.41C354.99 100.29 355.38 100.12 355.74 99.9C356.12 99.66 356.46 99.37 356.76 99.03L357.96 100.2C357.58 100.66 357.14 101.05 356.64 101.37C356.16 101.69 355.63 101.92 355.05 102.06C354.47 102.22 353.84 102.3 353.16 102.3ZM348.63 93.78H356.16C356.16 93.14 356.07 92.57 355.89 92.07C355.73 91.55 355.49 91.11 355.17 90.75C354.87 90.37 354.5 90.09 354.06 89.91C353.64 89.71 353.16 89.61 352.62 89.61C352.14 89.61 351.68 89.69 351.24 89.85C350.82 90.01 350.43 90.27 350.07 90.63C349.71 90.97 349.4 91.4 349.14 91.92C348.9 92.44 348.73 93.06 348.63 93.78ZM367.02 102.3C366.32 102.3 365.63 102.15 364.95 101.85C364.29 101.55 363.68 101.1 363.12 100.5C362.58 99.9 362.15 99.14 361.83 98.22C361.51 97.3 361.35 96.23 361.35 95.01C361.35 93.75 361.52 92.68 361.86 91.8C362.2 90.9 362.65 90.17 363.21 89.61C363.77 89.03 364.39 88.61 365.07 88.35C365.75 88.07 366.44 87.93 367.14 87.93C367.78 87.93 368.35 88.03 368.85 88.23C369.37 88.43 369.82 88.71 370.2 89.07C370.6 89.41 370.91 89.82 371.13 90.3V82.05H373.11H373.41V82.26C373.29 82.38 373.21 82.51 373.17 82.65C373.15 82.79 373.14 83.03 373.14 83.37L373.17 99.87C373.17 100.23 373.18 100.59 373.2 100.95C373.24 101.29 373.33 101.64 373.47 102H371.34C371.24 101.76 371.17 101.52 371.13 101.28C371.09 101.04 371.06 100.81 371.04 100.59C371.04 100.35 371.04 100.11 371.04 99.87C370.76 100.35 370.42 100.78 370.02 101.16C369.62 101.52 369.17 101.8 368.67 102C368.17 102.2 367.62 102.3 367.02 102.3ZM367.35 100.41C368.01 100.41 368.57 100.28 369.03 100.02C369.49 99.74 369.86 99.36 370.14 98.88C370.42 98.38 370.62 97.81 370.74 97.17C370.88 96.51 370.95 95.81 370.95 95.07C370.95 94.05 370.82 93.14 370.56 92.34C370.3 91.52 369.89 90.88 369.33 90.42C368.77 89.94 368.05 89.7 367.17 89.7C366.57 89.7 366.03 89.82 365.55 90.06C365.09 90.28 364.7 90.61 364.38 91.05C364.08 91.49 363.85 92.02 363.69 92.64C363.53 93.24 363.45 93.92 363.45 94.68C363.45 95.82 363.6 96.82 363.9 97.68C364.2 98.54 364.64 99.21 365.22 99.69C365.8 100.17 366.51 100.41 367.35 100.41ZM398.55 102.33C397.55 102.33 396.63 102.15 395.79 101.79C394.95 101.43 394.22 100.93 393.6 100.29C393 99.65 392.53 98.9 392.19 98.04C391.85 97.16 391.68 96.2 391.68 95.16C391.68 94.14 391.85 93.2 392.19 92.34C392.53 91.46 393 90.7 393.6 90.06C394.22 89.42 394.95 88.92 395.79 88.56C396.63 88.2 397.54 88.02 398.52 88.02C399.64 88.02 400.64 88.25 401.52 88.71C402.42 89.15 403.15 89.77 403.71 90.57L402.36 91.89L402.15 92.1L402 91.95C402 91.79 401.96 91.64 401.88 91.5C401.82 91.36 401.67 91.17 401.43 90.93C400.99 90.53 400.52 90.25 400.02 90.09C399.52 89.93 398.94 89.85 398.28 89.85C397.7 89.85 397.15 89.97 396.63 90.21C396.11 90.45 395.64 90.8 395.22 91.26C394.82 91.7 394.5 92.24 394.26 92.88C394.02 93.52 393.9 94.23 393.9 95.01C393.9 95.79 394.02 96.51 394.26 97.17C394.5 97.81 394.83 98.37 395.25 98.85C395.67 99.33 396.17 99.71 396.75 99.99C397.35 100.25 397.99 100.38 398.67 100.38C399.13 100.38 399.57 100.32 399.99 100.2C400.41 100.06 400.81 99.87 401.19 99.63C401.57 99.37 401.92 99.06 402.24 98.7L403.5 100.17C402.82 100.89 402.06 101.43 401.22 101.79C400.4 102.15 399.51 102.33 398.55 102.33ZM413.16 102.3C412.16 102.3 411.25 102.15 410.43 101.85C409.61 101.53 408.9 101.07 408.3 100.47C407.72 99.87 407.27 99.13 406.95 98.25C406.63 97.35 406.47 96.33 406.47 95.19C406.47 94.03 406.63 93 406.95 92.1C407.29 91.2 407.74 90.45 408.3 89.85C408.88 89.23 409.55 88.76 410.31 88.44C411.09 88.12 411.91 87.96 412.77 87.96C413.55 87.96 414.28 88.09 414.96 88.35C415.64 88.61 416.23 89.01 416.73 89.55C417.23 90.07 417.62 90.74 417.9 91.56C418.2 92.38 418.35 93.35 418.35 94.47C418.35 94.63 418.34 94.8 418.32 94.98C418.32 95.14 418.31 95.3 418.29 95.46H408.54C408.58 96.34 408.73 97.11 408.99 97.77C409.25 98.41 409.59 98.94 410.01 99.36C410.43 99.76 410.91 100.06 411.45 100.26C412.01 100.46 412.6 100.56 413.22 100.56C413.7 100.56 414.15 100.51 414.57 100.41C414.99 100.29 415.38 100.12 415.74 99.9C416.12 99.66 416.46 99.37 416.76 99.03L417.96 100.2C417.58 100.66 417.14 101.05 416.64 101.37C416.16 101.69 415.63 101.92 415.05 102.06C414.47 102.22 413.84 102.3 413.16 102.3ZM408.63 93.78H416.16C416.16 93.14 416.07 92.57 415.89 92.07C415.73 91.55 415.49 91.11 415.17 90.75C414.87 90.37 414.5 90.09 414.06 89.91C413.64 89.71 413.16 89.61 412.62 89.61C412.14 89.61 411.68 89.69 411.24 89.85C410.82 90.01 410.43 90.27 410.07 90.63C409.71 90.97 409.4 91.4 409.14 91.92C408.9 92.44 408.73 93.06 408.63 93.78ZM423.57 88.29H425.82L425.73 92.28L425.46 91.83C425.58 91.21 425.79 90.66 426.09 90.18C426.39 89.7 426.75 89.3 427.17 88.98C427.59 88.64 428.05 88.39 428.55 88.23C429.05 88.05 429.57 87.96 430.11 87.96C430.83 87.96 431.49 88.09 432.09 88.35C432.71 88.59 433.26 88.96 433.74 89.46L432.78 91.14L432.66 91.41L432.45 91.29C432.41 91.13 432.35 90.98 432.27 90.84C432.19 90.7 432.02 90.53 431.76 90.33C431.44 90.13 431.14 90 430.86 89.94C430.6 89.86 430.3 89.82 429.96 89.82C429.46 89.82 428.96 89.92 428.46 90.12C427.96 90.3 427.5 90.59 427.08 90.99C426.68 91.39 426.36 91.9 426.12 92.52C425.88 93.14 425.76 93.88 425.76 94.74V102.03H423.57V88.29ZM443.97 102.21C443.09 102.21 442.37 102.06 441.81 101.76C441.25 101.46 440.82 101 440.52 100.38C440.22 99.74 440.02 98.94 439.92 97.98C439.84 97.02 439.82 95.88 439.86 94.56L440.22 84.78L442.47 84.51L442.77 84.48L442.8 84.69C442.7 84.83 442.61 84.97 442.53 85.11C442.47 85.25 442.42 85.49 442.38 85.83L442.11 89.22L442.2 89.76L441.99 94.71C441.93 96.23 441.97 97.41 442.11 98.25C442.25 99.07 442.5 99.64 442.86 99.96C443.22 100.26 443.7 100.41 444.3 100.41C444.96 100.41 445.54 100.28 446.04 100.02C446.56 99.76 447.1 99.43 447.66 99.03L448.32 100.74C447.64 101.24 446.94 101.61 446.22 101.85C445.5 102.09 444.75 102.21 443.97 102.21ZM437.1 88.29H446.97V90.06H437.1V88.29ZM453 102V100.26H456.51V90.03H453.18V88.29H458.67V100.26H461.88V102H453ZM457.47 85.41C457.05 85.41 456.69 85.26 456.39 84.96C456.09 84.66 455.94 84.3 455.94 83.88C455.94 83.44 456.08 83.07 456.36 82.77C456.66 82.47 457.03 82.32 457.47 82.32C457.89 82.32 458.25 82.48 458.55 82.8C458.87 83.1 459.03 83.46 459.03 83.88C459.03 84.3 458.87 84.66 458.55 84.96C458.25 85.26 457.89 85.41 457.47 85.41ZM469.86 90H466.89V88.29H469.86V87.15C469.86 85.93 470.07 84.93 470.49 84.15C470.93 83.37 471.53 82.8 472.29 82.44C473.05 82.06 473.92 81.87 474.9 81.87C475.76 81.87 476.56 82.03 477.3 82.35C478.06 82.65 478.69 83.12 479.19 83.76L478.05 85.35L477.87 85.59L477.69 85.47C477.67 85.31 477.63 85.15 477.57 84.99C477.51 84.83 477.37 84.63 477.15 84.39C476.83 84.11 476.51 83.91 476.19 83.79C475.87 83.67 475.46 83.61 474.96 83.61C474.38 83.61 473.86 83.73 473.4 83.97C472.94 84.19 472.58 84.56 472.32 85.08C472.06 85.58 471.93 86.27 471.93 87.15V88.29H476.43V90H471.93V102H469.86V90ZM483 102V100.26H486.51V90.03H483.18V88.29H488.67V100.26H491.88V102H483ZM487.47 85.41C487.05 85.41 486.69 85.26 486.39 84.96C486.09 84.66 485.94 84.3 485.94 83.88C485.94 83.44 486.08 83.07 486.36 82.77C486.66 82.47 487.03 82.32 487.47 82.32C487.89 82.32 488.25 82.48 488.55 82.8C488.87 83.1 489.03 83.46 489.03 83.88C489.03 84.3 488.87 84.66 488.55 84.96C488.25 85.26 487.89 85.41 487.47 85.41ZM503.55 102.33C502.55 102.33 501.63 102.15 500.79 101.79C499.95 101.43 499.22 100.93 498.6 100.29C498 99.65 497.53 98.9 497.19 98.04C496.85 97.16 496.68 96.2 496.68 95.16C496.68 94.14 496.85 93.2 497.19 92.34C497.53 91.46 498 90.7 498.6 90.06C499.22 89.42 499.95 88.92 500.79 88.56C501.63 88.2 502.54 88.02 503.52 88.02C504.64 88.02 505.64 88.25 506.52 88.71C507.42 89.15 508.15 89.77 508.71 90.57L507.36 91.89L507.15 92.1L507 91.95C507 91.79 506.96 91.64 506.88 91.5C506.82 91.36 506.67 91.17 506.43 90.93C505.99 90.53 505.52 90.25 505.02 90.09C504.52 89.93 503.94 89.85 503.28 89.85C502.7 89.85 502.15 89.97 501.63 90.21C501.11 90.45 500.64 90.8 500.22 91.26C499.82 91.7 499.5 92.24 499.26 92.88C499.02 93.52 498.9 94.23 498.9 95.01C498.9 95.79 499.02 96.51 499.26 97.17C499.5 97.81 499.83 98.37 500.25 98.85C500.67 99.33 501.17 99.71 501.75 99.99C502.35 100.25 502.99 100.38 503.67 100.38C504.13 100.38 504.57 100.32 504.99 100.2C505.41 100.06 505.81 99.87 506.19 99.63C506.57 99.37 506.92 99.06 507.24 98.7L508.5 100.17C507.82 100.89 507.06 101.43 506.22 101.79C505.4 102.15 504.51 102.33 503.55 102.33ZM516.33 102.33C514.77 102.33 513.57 101.98 512.73 101.28C511.89 100.56 511.47 99.65 511.47 98.55C511.47 97.81 511.65 97.15 512.01 96.57C512.37 95.97 512.86 95.47 513.48 95.07C514.12 94.65 514.86 94.33 515.7 94.11C516.54 93.89 517.43 93.78 518.37 93.78C518.71 93.78 519.05 93.79 519.39 93.81C519.75 93.81 520.12 93.83 520.5 93.87C520.9 93.89 521.31 93.93 521.73 93.99L521.79 95.64C521.43 95.58 521.06 95.54 520.68 95.52C520.32 95.48 519.96 95.45 519.6 95.43C519.24 95.41 518.89 95.4 518.55 95.4C517.83 95.4 517.17 95.46 516.57 95.58C515.97 95.7 515.45 95.88 515.01 96.12C514.57 96.36 514.23 96.67 513.99 97.05C513.75 97.43 513.63 97.89 513.63 98.43C513.63 98.85 513.7 99.21 513.84 99.51C514 99.79 514.21 100.02 514.47 100.2C514.73 100.36 515.03 100.48 515.37 100.56C515.73 100.64 516.12 100.68 516.54 100.68C517.32 100.68 518.01 100.56 518.61 100.32C519.23 100.06 519.75 99.69 520.17 99.21C520.61 98.73 520.94 98.14 521.16 97.44C521.38 96.74 521.49 95.94 521.49 95.04C521.49 93.68 521.33 92.62 521.01 91.86C520.69 91.1 520.21 90.56 519.57 90.24C518.95 89.92 518.15 89.76 517.17 89.76C516.51 89.76 515.86 89.89 515.22 90.15C514.58 90.39 514 90.77 513.48 91.29L512.43 89.91C513.07 89.27 513.81 88.79 514.65 88.47C515.49 88.15 516.38 87.99 517.32 87.99C518.22 87.99 519.04 88.1 519.78 88.32C520.52 88.54 521.15 88.91 521.67 89.43C522.21 89.93 522.62 90.61 522.9 91.47C523.2 92.33 523.35 93.41 523.35 94.71V102H521.01V99.9C520.75 100.4 520.43 100.81 520.05 101.13C519.69 101.45 519.3 101.7 518.88 101.88C518.46 102.04 518.03 102.15 517.59 102.21C517.15 102.29 516.73 102.33 516.33 102.33ZM533.97 102.21C533.09 102.21 532.37 102.06 531.81 101.76C531.25 101.46 530.82 101 530.52 100.38C530.22 99.74 530.02 98.94 529.92 97.98C529.84 97.02 529.82 95.88 529.86 94.56L530.22 84.78L532.47 84.51L532.77 84.48L532.8 84.69C532.7 84.83 532.61 84.97 532.53 85.11C532.47 85.25 532.42 85.49 532.38 85.83L532.11 89.22L532.2 89.76L531.99 94.71C531.93 96.23 531.97 97.41 532.11 98.25C532.25 99.07 532.5 99.64 532.86 99.96C533.22 100.26 533.7 100.41 534.3 100.41C534.96 100.41 535.54 100.28 536.04 100.02C536.56 99.76 537.1 99.43 537.66 99.03L538.32 100.74C537.64 101.24 536.94 101.61 536.22 101.85C535.5 102.09 534.75 102.21 533.97 102.21ZM527.1 88.29H536.97V90.06H527.1V88.29ZM548.16 102.3C547.16 102.3 546.25 102.15 545.43 101.85C544.61 101.53 543.9 101.07 543.3 100.47C542.72 99.87 542.27 99.13 541.95 98.25C541.63 97.35 541.47 96.33 541.47 95.19C541.47 94.03 541.63 93 541.95 92.1C542.29 91.2 542.74 90.45 543.3 89.85C543.88 89.23 544.55 88.76 545.31 88.44C546.09 88.12 546.91 87.96 547.77 87.96C548.55 87.96 549.28 88.09 549.96 88.35C550.64 88.61 551.23 89.01 551.73 89.55C552.23 90.07 552.62 90.74 552.9 91.56C553.2 92.38 553.35 93.35 553.35 94.47C553.35 94.63 553.34 94.8 553.32 94.98C553.32 95.14 553.31 95.3 553.29 95.46H543.54C543.58 96.34 543.73 97.11 543.99 97.77C544.25 98.41 544.59 98.94 545.01 99.36C545.43 99.76 545.91 100.06 546.45 100.26C547.01 100.46 547.6 100.56 548.22 100.56C548.7 100.56 549.15 100.51 549.57 100.41C549.99 100.29 550.38 100.12 550.74 99.9C551.12 99.66 551.46 99.37 551.76 99.03L552.96 100.2C552.58 100.66 552.14 101.05 551.64 101.37C551.16 101.69 550.63 101.92 550.05 102.06C549.47 102.22 548.84 102.3 548.16 102.3ZM543.63 93.78H551.16C551.16 93.14 551.07 92.57 550.89 92.07C550.73 91.55 550.49 91.11 550.17 90.75C549.87 90.37 549.5 90.09 549.06 89.91C548.64 89.71 548.16 89.61 547.62 89.61C547.14 89.61 546.68 89.69 546.24 89.85C545.82 90.01 545.43 90.27 545.07 90.63C544.71 90.97 544.4 91.4 544.14 91.92C543.9 92.44 543.73 93.06 543.63 93.78ZM562.53 102.3C561.77 102.3 561.04 102.22 560.34 102.06C559.66 101.9 559.01 101.66 558.39 101.34C557.79 101.02 557.23 100.62 556.71 100.14L557.91 98.1L558.09 97.83L558.27 97.95C558.31 98.11 558.35 98.28 558.39 98.46C558.45 98.62 558.59 98.82 558.81 99.06C559.23 99.48 559.73 99.83 560.31 100.11C560.91 100.37 561.67 100.5 562.59 100.5C563.33 100.5 563.95 100.41 564.45 100.23C564.97 100.05 565.37 99.8 565.65 99.48C565.93 99.14 566.07 98.75 566.07 98.31C566.07 98.01 566.01 97.75 565.89 97.53C565.77 97.29 565.57 97.07 565.29 96.87C565.03 96.67 564.68 96.47 564.24 96.27C563.8 96.07 563.26 95.87 562.62 95.67C561.58 95.37 560.67 95.02 559.89 94.62C559.11 94.22 558.51 93.76 558.09 93.24C557.67 92.7 557.46 92.09 557.46 91.41C557.46 90.71 557.65 90.11 558.03 89.61C558.41 89.09 558.97 88.69 559.71 88.41C560.47 88.11 561.4 87.96 562.5 87.96C563.14 87.96 563.72 88.01 564.24 88.11C564.76 88.19 565.24 88.32 565.68 88.5C566.12 88.68 566.52 88.91 566.88 89.19C567.26 89.45 567.62 89.76 567.96 90.12L566.73 91.62L566.52 91.86L566.37 91.71C566.35 91.55 566.3 91.4 566.22 91.26C566.16 91.1 566.02 90.91 565.8 90.69C565.34 90.33 564.82 90.06 564.24 89.88C563.66 89.68 563.1 89.58 562.56 89.58C561.76 89.58 561.07 89.72 560.49 90C559.91 90.28 559.62 90.71 559.62 91.29C559.62 91.59 559.72 91.89 559.92 92.19C560.14 92.47 560.53 92.76 561.09 93.06C561.65 93.34 562.45 93.63 563.49 93.93C564.63 94.29 565.54 94.66 566.22 95.04C566.92 95.4 567.42 95.82 567.72 96.3C568.04 96.78 568.2 97.35 568.2 98.01C568.2 98.77 567.99 99.48 567.57 100.14C567.17 100.8 566.55 101.33 565.71 101.73C564.87 102.11 563.81 102.3 562.53 102.3ZM589.86 90H586.89V88.29H589.86V87.15C589.86 85.93 590.07 84.93 590.49 84.15C590.93 83.37 591.53 82.8 592.29 82.44C593.05 82.06 593.92 81.87 594.9 81.87C595.76 81.87 596.56 82.03 597.3 82.35C598.06 82.65 598.69 83.12 599.19 83.76L598.05 85.35L597.87 85.59L597.69 85.47C597.67 85.31 597.63 85.15 597.57 84.99C597.51 84.83 597.37 84.63 597.15 84.39C596.83 84.11 596.51 83.91 596.19 83.79C595.87 83.67 595.46 83.61 594.96 83.61C594.38 83.61 593.86 83.73 593.4 83.97C592.94 84.19 592.58 84.56 592.32 85.08C592.06 85.58 591.93 86.27 591.93 87.15V88.29H596.43V90H591.93V102H589.86V90ZM607.5 102.24C606.26 102.24 605.16 101.94 604.2 101.34C603.26 100.72 602.52 99.88 601.98 98.82C601.44 97.74 601.17 96.51 601.17 95.13C601.17 93.73 601.44 92.5 601.98 91.44C602.52 90.36 603.26 89.52 604.2 88.92C605.16 88.3 606.26 87.99 607.5 87.99C608.74 87.99 609.83 88.3 610.77 88.92C611.73 89.52 612.48 90.36 613.02 91.44C613.56 92.5 613.83 93.73 613.83 95.13C613.83 96.51 613.56 97.74 613.02 98.82C612.48 99.88 611.73 100.72 610.77 101.34C609.83 101.94 608.74 102.24 607.5 102.24ZM607.5 100.44C608.3 100.44 609 100.21 609.6 99.75C610.2 99.29 610.67 98.66 611.01 97.86C611.37 97.06 611.55 96.14 611.55 95.1C611.55 94.06 611.37 93.14 611.01 92.34C610.67 91.54 610.2 90.92 609.6 90.48C609 90.02 608.3 89.79 607.5 89.79C606.72 89.79 606.02 90.02 605.4 90.48C604.8 90.92 604.32 91.54 603.96 92.34C603.62 93.14 603.45 94.06 603.45 95.1C603.45 96.14 603.62 97.06 603.96 97.86C604.32 98.66 604.8 99.29 605.4 99.75C606.02 100.21 606.72 100.44 607.5 100.44ZM618.57 88.29H620.82L620.73 92.28L620.46 91.83C620.58 91.21 620.79 90.66 621.09 90.18C621.39 89.7 621.75 89.3 622.17 88.98C622.59 88.64 623.05 88.39 623.55 88.23C624.05 88.05 624.57 87.96 625.11 87.96C625.83 87.96 626.49 88.09 627.09 88.35C627.71 88.59 628.26 88.96 628.74 89.46L627.78 91.14L627.66 91.41L627.45 91.29C627.41 91.13 627.35 90.98 627.27 90.84C627.19 90.7 627.02 90.53 626.76 90.33C626.44 90.13 626.14 90 625.86 89.94C625.6 89.86 625.3 89.82 624.96 89.82C624.46 89.82 623.96 89.92 623.46 90.12C622.96 90.3 622.5 90.59 622.08 90.99C621.68 91.39 621.36 91.9 621.12 92.52C620.88 93.14 620.76 93.88 620.76 94.74V102.03H618.57V88.29ZM648.81 107.22C648.17 107.22 647.58 107.12 647.04 106.92C646.52 106.72 646.06 106.43 645.66 106.05L646.59 104.58L646.77 104.31L646.95 104.43C646.99 104.59 647.06 104.72 647.16 104.82C647.26 104.94 647.45 105.09 647.73 105.27C647.91 105.33 648.1 105.37 648.3 105.39C648.5 105.43 648.71 105.45 648.93 105.45C649.47 105.45 649.92 105.32 650.28 105.06C650.66 104.8 650.99 104.4 651.27 103.86C651.55 103.32 651.82 102.64 652.08 101.82L654.69 93.75C654.99 92.83 655.28 91.92 655.56 91.02C655.84 90.12 656.03 89.21 656.13 88.29H658.29C658.15 89.21 657.93 90.14 657.63 91.08C657.33 92.02 657.01 92.96 656.67 93.9L653.25 103.56C652.77 104.9 652.15 105.84 651.39 106.38C650.65 106.94 649.79 107.22 648.81 107.22ZM646.38 88.29H648.63L653.07 99.72L652.11 102.39L646.38 88.29ZM667.5 102.24C666.26 102.24 665.16 101.94 664.2 101.34C663.26 100.72 662.52 99.88 661.98 98.82C661.44 97.74 661.17 96.51 661.17 95.13C661.17 93.73 661.44 92.5 661.98 91.44C662.52 90.36 663.26 89.52 664.2 88.92C665.16 88.3 666.26 87.99 667.5 87.99C668.74 87.99 669.83 88.3 670.77 88.92C671.73 89.52 672.48 90.36 673.02 91.44C673.56 92.5 673.83 93.73 673.83 95.13C673.83 96.51 673.56 97.74 673.02 98.82C672.48 99.88 671.73 100.72 670.77 101.34C669.83 101.94 668.74 102.24 667.5 102.24ZM667.5 100.44C668.3 100.44 669 100.21 669.6 99.75C670.2 99.29 670.67 98.66 671.01 97.86C671.37 97.06 671.55 96.14 671.55 95.1C671.55 94.06 671.37 93.14 671.01 92.34C670.67 91.54 670.2 90.92 669.6 90.48C669 90.02 668.3 89.79 667.5 89.79C666.72 89.79 666.02 90.02 665.4 90.48C664.8 90.92 664.32 91.54 663.96 92.34C663.62 93.14 663.45 94.06 663.45 95.1C663.45 96.14 663.62 97.06 663.96 97.86C664.32 98.66 664.8 99.29 665.4 99.75C666.02 100.21 666.72 100.44 667.5 100.44ZM681.63 102.33C681.09 102.33 680.58 102.25 680.1 102.09C679.62 101.93 679.18 101.69 678.78 101.37C678.4 101.03 678.07 100.61 677.79 100.11C677.51 99.61 677.29 99.01 677.13 98.31C676.99 97.61 676.92 96.82 676.92 95.94L676.95 88.29H679.05V95.94C679.05 96.8 679.13 97.53 679.29 98.13C679.45 98.73 679.67 99.21 679.95 99.57C680.25 99.93 680.59 100.19 680.97 100.35C681.35 100.51 681.75 100.59 682.17 100.59C682.65 100.59 683.11 100.5 683.55 100.32C683.99 100.12 684.38 99.83 684.72 99.45C685.08 99.07 685.36 98.58 685.56 97.98C685.76 97.38 685.86 96.67 685.86 95.85V88.29H687.96V99.87C687.96 100.23 687.97 100.59 687.99 100.95C688.03 101.29 688.12 101.64 688.26 102H686.19C686.09 101.76 686.02 101.53 685.98 101.31C685.94 101.07 685.91 100.83 685.89 100.59C685.89 100.35 685.89 100.12 685.89 99.9C685.67 100.28 685.41 100.62 685.11 100.92C684.81 101.22 684.47 101.48 684.09 101.7C683.73 101.9 683.34 102.05 682.92 102.15C682.52 102.27 682.09 102.33 681.63 102.33ZM693.57 88.29H695.82L695.73 92.28L695.46 91.83C695.58 91.21 695.79 90.66 696.09 90.18C696.39 89.7 696.75 89.3 697.17 88.98C697.59 88.64 698.05 88.39 698.55 88.23C699.05 88.05 699.57 87.96 700.11 87.96C700.83 87.96 701.49 88.09 702.09 88.35C702.71 88.59 703.26 88.96 703.74 89.46L702.78 91.14L702.66 91.41L702.45 91.29C702.41 91.13 702.35 90.98 702.27 90.84C702.19 90.7 702.02 90.53 701.76 90.33C701.44 90.13 701.14 90 700.86 89.94C700.6 89.86 700.3 89.82 699.96 89.82C699.46 89.82 698.96 89.92 698.46 90.12C697.96 90.3 697.5 90.59 697.08 90.99C696.68 91.39 696.36 91.9 696.12 92.52C695.88 93.14 695.76 93.88 695.76 94.74V102.03H693.57V88.29ZM727.5 102.24C726.26 102.24 725.16 101.94 724.2 101.34C723.26 100.72 722.52 99.88 721.98 98.82C721.44 97.74 721.17 96.51 721.17 95.13C721.17 93.73 721.44 92.5 721.98 91.44C722.52 90.36 723.26 89.52 724.2 88.92C725.16 88.3 726.26 87.99 727.5 87.99C728.74 87.99 729.83 88.3 730.77 88.92C731.73 89.52 732.48 90.36 733.02 91.44C733.56 92.5 733.83 93.73 733.83 95.13C733.83 96.51 733.56 97.74 733.02 98.82C732.48 99.88 731.73 100.72 730.77 101.34C729.83 101.94 728.74 102.24 727.5 102.24ZM727.5 100.44C728.3 100.44 729 100.21 729.6 99.75C730.2 99.29 730.67 98.66 731.01 97.86C731.37 97.06 731.55 96.14 731.55 95.1C731.55 94.06 731.37 93.14 731.01 92.34C730.67 91.54 730.2 90.92 729.6 90.48C729 90.02 728.3 89.79 727.5 89.79C726.72 89.79 726.02 90.02 725.4 90.48C724.8 90.92 724.32 91.54 723.96 92.34C723.62 93.14 723.45 94.06 723.45 95.1C723.45 96.14 723.62 97.06 723.96 97.86C724.32 98.66 724.8 99.29 725.4 99.75C726.02 100.21 726.72 100.44 727.5 100.44ZM738.57 88.29H740.82L740.73 92.28L740.46 91.83C740.58 91.21 740.79 90.66 741.09 90.18C741.39 89.7 741.75 89.3 742.17 88.98C742.59 88.64 743.05 88.39 743.55 88.23C744.05 88.05 744.57 87.96 745.11 87.96C745.83 87.96 746.49 88.09 747.09 88.35C747.71 88.59 748.26 88.96 748.74 89.46L747.78 91.14L747.66 91.41L747.45 91.29C747.41 91.13 747.35 90.98 747.27 90.84C747.19 90.7 747.02 90.53 746.76 90.33C746.44 90.13 746.14 90 745.86 89.94C745.6 89.86 745.3 89.82 744.96 89.82C744.46 89.82 743.96 89.92 743.46 90.12C742.96 90.3 742.5 90.59 742.08 90.99C741.68 91.39 741.36 91.9 741.12 92.52C740.88 93.14 740.76 93.88 740.76 94.74V102.03H738.57V88.29ZM757.41 107.16C756.45 107.16 755.58 107.08 754.8 106.92C754.04 106.78 753.38 106.56 752.82 106.26C752.28 105.98 751.86 105.62 751.56 105.18C751.28 104.74 751.14 104.22 751.14 103.62C751.14 103.06 751.26 102.56 751.5 102.12C751.74 101.68 752.05 101.32 752.43 101.04C752.83 100.74 753.26 100.52 753.72 100.38L754.62 100.92C754.26 101.14 753.97 101.36 753.75 101.58C753.53 101.8 753.37 102.05 753.27 102.33C753.17 102.63 753.12 102.98 753.12 103.38C753.12 103.72 753.22 104.02 753.42 104.28C753.62 104.56 753.9 104.79 754.26 104.97C754.64 105.15 755.09 105.29 755.61 105.39C756.15 105.49 756.76 105.54 757.44 105.54C758.36 105.54 759.1 105.44 759.66 105.24C760.24 105.06 760.67 104.8 760.95 104.46C761.23 104.14 761.37 103.77 761.37 103.35C761.37 102.91 761.29 102.55 761.13 102.27C760.97 101.99 760.64 101.78 760.14 101.64C759.64 101.5 758.88 101.43 757.86 101.43C757.16 101.43 756.52 101.4 755.94 101.34C755.36 101.28 754.84 101.18 754.38 101.04C753.92 100.9 753.53 100.73 753.21 100.53C752.91 100.31 752.68 100.05 752.52 99.75C752.36 99.45 752.28 99.1 752.28 98.7C752.28 98.18 752.42 97.68 752.7 97.2C753 96.72 753.4 96.26 753.9 95.82L754.92 96.63C754.72 96.85 754.56 97.05 754.44 97.23C754.32 97.39 754.23 97.55 754.17 97.71C754.13 97.85 754.11 98.01 754.11 98.19C754.11 98.51 754.23 98.77 754.47 98.97C754.73 99.17 755.17 99.32 755.79 99.42C756.41 99.5 757.25 99.54 758.31 99.54C759.37 99.54 760.23 99.63 760.89 99.81C761.55 99.97 762.05 100.21 762.39 100.53C762.75 100.85 763 101.22 763.14 101.64C763.28 102.06 763.35 102.52 763.35 103.02C763.35 103.56 763.24 104.07 763.02 104.55C762.82 105.05 762.49 105.49 762.03 105.87C761.57 106.27 760.96 106.58 760.2 106.8C759.44 107.04 758.51 107.16 757.41 107.16ZM756.78 97.35C755.8 97.35 754.95 97.14 754.23 96.72C753.51 96.28 752.95 95.7 752.55 94.98C752.17 94.24 751.98 93.43 751.98 92.55C751.98 91.67 752.17 90.87 752.55 90.15C752.95 89.43 753.51 88.86 754.23 88.44C754.95 88 755.8 87.78 756.78 87.78C757.78 87.78 758.63 88 759.33 88.44C760.05 88.86 760.6 89.43 760.98 90.15C761.38 90.87 761.58 91.67 761.58 92.55C761.58 93.43 761.38 94.24 760.98 94.98C760.6 95.7 760.05 96.28 759.33 96.72C758.63 97.14 757.78 97.35 756.78 97.35ZM756.78 95.55C757.36 95.55 757.87 95.42 758.31 95.16C758.77 94.88 759.13 94.51 759.39 94.05C759.65 93.59 759.78 93.09 759.78 92.55C759.78 91.99 759.65 91.49 759.39 91.05C759.13 90.59 758.77 90.23 758.31 89.97C757.87 89.69 757.36 89.55 756.78 89.55C756.2 89.55 755.68 89.69 755.22 89.97C754.78 90.23 754.43 90.59 754.17 91.05C753.91 91.49 753.78 91.99 753.78 92.55C753.78 93.09 753.91 93.59 754.17 94.05C754.43 94.51 754.78 94.88 755.22 95.16C755.68 95.42 756.2 95.55 756.78 95.55ZM760.77 90.51L759.93 89.52C760.51 88.94 761.11 88.52 761.73 88.26C762.37 87.98 763.12 87.87 763.98 87.93L764.25 89.7C763.59 89.64 762.97 89.66 762.39 89.76C761.81 89.86 761.27 90.11 760.77 90.51ZM771.33 102.33C769.77 102.33 768.57 101.98 767.73 101.28C766.89 100.56 766.47 99.65 766.47 98.55C766.47 97.81 766.65 97.15 767.01 96.57C767.37 95.97 767.86 95.47 768.48 95.07C769.12 94.65 769.86 94.33 770.7 94.11C771.54 93.89 772.43 93.78 773.37 93.78C773.71 93.78 774.05 93.79 774.39 93.81C774.75 93.81 775.12 93.83 775.5 93.87C775.9 93.89 776.31 93.93 776.73 93.99L776.79 95.64C776.43 95.58 776.06 95.54 775.68 95.52C775.32 95.48 774.96 95.45 774.6 95.43C774.24 95.41 773.89 95.4 773.55 95.4C772.83 95.4 772.17 95.46 771.57 95.58C770.97 95.7 770.45 95.88 770.01 96.12C769.57 96.36 769.23 96.67 768.99 97.05C768.75 97.43 768.63 97.89 768.63 98.43C768.63 98.85 768.7 99.21 768.84 99.51C769 99.79 769.21 100.02 769.47 100.2C769.73 100.36 770.03 100.48 770.37 100.56C770.73 100.64 771.12 100.68 771.54 100.68C772.32 100.68 773.01 100.56 773.61 100.32C774.23 100.06 774.75 99.69 775.17 99.21C775.61 98.73 775.94 98.14 776.16 97.44C776.38 96.74 776.49 95.94 776.49 95.04C776.49 93.68 776.33 92.62 776.01 91.86C775.69 91.1 775.21 90.56 774.57 90.24C773.95 89.92 773.15 89.76 772.17 89.76C771.51 89.76 770.86 89.89 770.22 90.15C769.58 90.39 769 90.77 768.48 91.29L767.43 89.91C768.07 89.27 768.81 88.79 769.65 88.47C770.49 88.15 771.38 87.99 772.32 87.99C773.22 87.99 774.04 88.1 774.78 88.32C775.52 88.54 776.15 88.91 776.67 89.43C777.21 89.93 777.62 90.61 777.9 91.47C778.2 92.33 778.35 93.41 778.35 94.71V102H776.01V99.9C775.75 100.4 775.43 100.81 775.05 101.13C774.69 101.45 774.3 101.7 773.88 101.88C773.46 102.04 773.03 102.15 772.59 102.21C772.15 102.29 771.73 102.33 771.33 102.33ZM782.16 102V88.29H784.26V90.72C784.62 90.16 785.04 89.68 785.52 89.28C786 88.86 786.53 88.54 787.11 88.32C787.69 88.08 788.29 87.96 788.91 87.96C789.67 87.96 790.35 88.15 790.95 88.53C791.55 88.91 792.03 89.52 792.39 90.36C792.75 91.2 792.93 92.31 792.93 93.69V102H790.83V93.75C790.83 92.79 790.72 92.03 790.5 91.47C790.28 90.89 789.98 90.48 789.6 90.24C789.22 89.98 788.79 89.85 788.31 89.85C787.85 89.85 787.38 89.95 786.9 90.15C786.44 90.35 786.01 90.64 785.61 91.02C785.21 91.38 784.88 91.82 784.62 92.34C784.38 92.86 784.26 93.45 784.26 94.11V102H782.16ZM798 102V100.26H801.51V90.03H798.18V88.29H803.67V100.26H806.88V102H798ZM802.47 85.41C802.05 85.41 801.69 85.26 801.39 84.96C801.09 84.66 800.94 84.3 800.94 83.88C800.94 83.44 801.08 83.07 801.36 82.77C801.66 82.47 802.03 82.32 802.47 82.32C802.89 82.32 803.25 82.48 803.55 82.8C803.87 83.1 804.03 83.46 804.03 83.88C804.03 84.3 803.87 84.66 803.55 84.96C803.25 85.26 802.89 85.41 802.47 85.41ZM817.53 102.3C816.77 102.3 816.04 102.22 815.34 102.06C814.66 101.9 814.01 101.66 813.39 101.34C812.79 101.02 812.23 100.62 811.71 100.14L812.91 98.1L813.09 97.83L813.27 97.95C813.31 98.11 813.35 98.28 813.39 98.46C813.45 98.62 813.59 98.82 813.81 99.06C814.23 99.48 814.73 99.83 815.31 100.11C815.91 100.37 816.67 100.5 817.59 100.5C818.33 100.5 818.95 100.41 819.45 100.23C819.97 100.05 820.37 99.8 820.65 99.48C820.93 99.14 821.07 98.75 821.07 98.31C821.07 98.01 821.01 97.75 820.89 97.53C820.77 97.29 820.57 97.07 820.29 96.87C820.03 96.67 819.68 96.47 819.24 96.27C818.8 96.07 818.26 95.87 817.62 95.67C816.58 95.37 815.67 95.02 814.89 94.62C814.11 94.22 813.51 93.76 813.09 93.24C812.67 92.7 812.46 92.09 812.46 91.41C812.46 90.71 812.65 90.11 813.03 89.61C813.41 89.09 813.97 88.69 814.71 88.41C815.47 88.11 816.4 87.96 817.5 87.96C818.14 87.96 818.72 88.01 819.24 88.11C819.76 88.19 820.24 88.32 820.68 88.5C821.12 88.68 821.52 88.91 821.88 89.19C822.26 89.45 822.62 89.76 822.96 90.12L821.73 91.62L821.52 91.86L821.37 91.71C821.35 91.55 821.3 91.4 821.22 91.26C821.16 91.1 821.02 90.91 820.8 90.69C820.34 90.33 819.82 90.06 819.24 89.88C818.66 89.68 818.1 89.58 817.56 89.58C816.76 89.58 816.07 89.72 815.49 90C814.91 90.28 814.62 90.71 814.62 91.29C814.62 91.59 814.72 91.89 814.92 92.19C815.14 92.47 815.53 92.76 816.09 93.06C816.65 93.34 817.45 93.63 818.49 93.93C819.63 94.29 820.54 94.66 821.22 95.04C821.92 95.4 822.42 95.82 822.72 96.3C823.04 96.78 823.2 97.35 823.2 98.01C823.2 98.77 822.99 99.48 822.57 100.14C822.17 100.8 821.55 101.33 820.71 101.73C819.87 102.11 818.81 102.3 817.53 102.3ZM831.33 102.33C829.77 102.33 828.57 101.98 827.73 101.28C826.89 100.56 826.47 99.65 826.47 98.55C826.47 97.81 826.65 97.15 827.01 96.57C827.37 95.97 827.86 95.47 828.48 95.07C829.12 94.65 829.86 94.33 830.7 94.11C831.54 93.89 832.43 93.78 833.37 93.78C833.71 93.78 834.05 93.79 834.39 93.81C834.75 93.81 835.12 93.83 835.5 93.87C835.9 93.89 836.31 93.93 836.73 93.99L836.79 95.64C836.43 95.58 836.06 95.54 835.68 95.52C835.32 95.48 834.96 95.45 834.6 95.43C834.24 95.41 833.89 95.4 833.55 95.4C832.83 95.4 832.17 95.46 831.57 95.58C830.97 95.7 830.45 95.88 830.01 96.12C829.57 96.36 829.23 96.67 828.99 97.05C828.75 97.43 828.63 97.89 828.63 98.43C828.63 98.85 828.7 99.21 828.84 99.51C829 99.79 829.21 100.02 829.47 100.2C829.73 100.36 830.03 100.48 830.37 100.56C830.73 100.64 831.12 100.68 831.54 100.68C832.32 100.68 833.01 100.56 833.61 100.32C834.23 100.06 834.75 99.69 835.17 99.21C835.61 98.73 835.94 98.14 836.16 97.44C836.38 96.74 836.49 95.94 836.49 95.04C836.49 93.68 836.33 92.62 836.01 91.86C835.69 91.1 835.21 90.56 834.57 90.24C833.95 89.92 833.15 89.76 832.17 89.76C831.51 89.76 830.86 89.89 830.22 90.15C829.58 90.39 829 90.77 828.48 91.29L827.43 89.91C828.07 89.27 828.81 88.79 829.65 88.47C830.49 88.15 831.38 87.99 832.32 87.99C833.22 87.99 834.04 88.1 834.78 88.32C835.52 88.54 836.15 88.91 836.67 89.43C837.21 89.93 837.62 90.61 837.9 91.47C838.2 92.33 838.35 93.41 838.35 94.71V102H836.01V99.9C835.75 100.4 835.43 100.81 835.05 101.13C834.69 101.45 834.3 101.7 833.88 101.88C833.46 102.04 833.03 102.15 832.59 102.21C832.15 102.29 831.73 102.33 831.33 102.33ZM848.97 102.21C848.09 102.21 847.37 102.06 846.81 101.76C846.25 101.46 845.82 101 845.52 100.38C845.22 99.74 845.02 98.94 844.92 97.98C844.84 97.02 844.82 95.88 844.86 94.56L845.22 84.78L847.47 84.51L847.77 84.48L847.8 84.69C847.7 84.83 847.61 84.97 847.53 85.11C847.47 85.25 847.42 85.49 847.38 85.83L847.11 89.22L847.2 89.76L846.99 94.71C846.93 96.23 846.97 97.41 847.11 98.25C847.25 99.07 847.5 99.64 847.86 99.96C848.22 100.26 848.7 100.41 849.3 100.41C849.96 100.41 850.54 100.28 851.04 100.02C851.56 99.76 852.1 99.43 852.66 99.03L853.32 100.74C852.64 101.24 851.94 101.61 851.22 101.85C850.5 102.09 849.75 102.21 848.97 102.21ZM842.1 88.29H851.97V90.06H842.1V88.29ZM858 102V100.26H861.51V90.03H858.18V88.29H863.67V100.26H866.88V102H858ZM862.47 85.41C862.05 85.41 861.69 85.26 861.39 84.96C861.09 84.66 860.94 84.3 860.94 83.88C860.94 83.44 861.08 83.07 861.36 82.77C861.66 82.47 862.03 82.32 862.47 82.32C862.89 82.32 863.25 82.48 863.55 82.8C863.87 83.1 864.03 83.46 864.03 83.88C864.03 84.3 863.87 84.66 863.55 84.96C863.25 85.26 862.89 85.41 862.47 85.41ZM877.5 102.24C876.26 102.24 875.16 101.94 874.2 101.34C873.26 100.72 872.52 99.88 871.98 98.82C871.44 97.74 871.17 96.51 871.17 95.13C871.17 93.73 871.44 92.5 871.98 91.44C872.52 90.36 873.26 89.52 874.2 88.92C875.16 88.3 876.26 87.99 877.5 87.99C878.74 87.99 879.83 88.3 880.77 88.92C881.73 89.52 882.48 90.36 883.02 91.44C883.56 92.5 883.83 93.73 883.83 95.13C883.83 96.51 883.56 97.74 883.02 98.82C882.48 99.88 881.73 100.72 880.77 101.34C879.83 101.94 878.74 102.24 877.5 102.24ZM877.5 100.44C878.3 100.44 879 100.21 879.6 99.75C880.2 99.29 880.67 98.66 881.01 97.86C881.37 97.06 881.55 96.14 881.55 95.1C881.55 94.06 881.37 93.14 881.01 92.34C880.67 91.54 880.2 90.92 879.6 90.48C879 90.02 878.3 89.79 877.5 89.79C876.72 89.79 876.02 90.02 875.4 90.48C874.8 90.92 874.32 91.54 873.96 92.34C873.62 93.14 873.45 94.06 873.45 95.1C873.45 96.14 873.62 97.06 873.96 97.86C874.32 98.66 874.8 99.29 875.4 99.75C876.02 100.21 876.72 100.44 877.5 100.44ZM887.16 102V88.29H889.26V90.72C889.62 90.16 890.04 89.68 890.52 89.28C891 88.86 891.53 88.54 892.11 88.32C892.69 88.08 893.29 87.96 893.91 87.96C894.67 87.96 895.35 88.15 895.95 88.53C896.55 88.91 897.03 89.52 897.39 90.36C897.75 91.2 897.93 92.31 897.93 93.69V102H895.83V93.75C895.83 92.79 895.72 92.03 895.5 91.47C895.28 90.89 894.98 90.48 894.6 90.24C894.22 89.98 893.79 89.85 893.31 89.85C892.85 89.85 892.38 89.95 891.9 90.15C891.44 90.35 891.01 90.64 890.61 91.02C890.21 91.38 889.88 91.82 889.62 92.34C889.38 92.86 889.26 93.45 889.26 94.11V102H887.16Z" fill="white"/>
</svg>
